Preview_Domine-weight_467.00_VL.ufo
<glyph name="exclam" format="2">
  <advance width="288"/>
  <unicode hex="0021"/>
  <outline>
    <contour>
      <point x="178.873" y="205.0" type="line"/>
      <point x="178.873" y="308.0"/>
      <point x="192.741" y="452.0"/>
      <point x="194.873" y="500.0" type="curve" smooth="yes"/>
      <point x="199.807" y="549.0"/>
      <point x="207.873" y="595.0"/>
      <point x="207.873" y="651.0" type="curve" smooth="yes"/>
      <point x="207.873" y="694.0"/>
      <point x="192.005" y="730.0"/>
      <point x="145.868" y="730.0" type="curve" smooth="yes"/>
      <point x="101.198" y="730.0"/>
      <point x="79.863" y="697.0"/>
      <point x="79.863" y="650.0" type="curve" smooth="yes"/>
      <point x="79.863" y="595.0"/>
      <point x="88.863" y="549.0"/>
      <point x="92.863" y="500.0" type="curve" smooth="yes"/>
      <point x="96.863" y="452.0"/>
      <point x="108.863" y="308.0"/>
      <point x="108.863" y="205.0" type="curve"/>
    </contour>
    <contour>
      <point x="213.34" y="52.467" type="curve" smooth="yes"/>
      <point x="213.34" y="95.67"/>
      <point x="186.604" y="123.406"/>
      <point x="143.401" y="123.406" type="curve" smooth="yes"/>
      <point x="100.198" y="123.406"/>
      <point x="73.929" y="95.604"/>
      <point x="73.929" y="52.0" type="curve" smooth="yes"/>
      <point x="73.929" y="8.33"/>
      <point x="100.264" y="-17.005000000000003"/>
      <point x="143.467" y="-17.005000000000003" type="curve" smooth="yes"/>
      <point x="187.071" y="-17.005000000000003"/>
      <point x="213.34" y="8.731"/>
    </contour>
  </outline>
</glyph>
<glyph name="quotedbl" format="2">
  <advance width="399"/>
  <unicode hex="0022"/>
  <outline>
    <contour>
      <point x="232.14100000000002" y="477.995" type="line"/>
      <point x="232.14100000000002" y="566.995"/>
      <point x="258.141" y="658.995"/>
      <point x="258.141" y="696.995" type="curve" smooth="yes"/>
      <point x="258.141" y="735.198"/>
      <point x="244.27300000000002" y="760.0"/>
      <point x="202.13600000000002" y="760.0" type="curve" smooth="yes"/>
      <point x="158.99900000000002" y="760.0"/>
      <point x="145.131" y="734.198"/>
      <point x="145.131" y="696.995" type="curve" smooth="yes"/>
      <point x="145.131" y="658.995"/>
      <point x="171.131" y="566.995"/>
      <point x="171.131" y="477.995" type="curve"/>
    </contour>
    <contour>
      <point x="227.81799999999998" y="477.995" type="line"/>
      <point x="227.81799999999998" y="566.995"/>
      <point x="253.81799999999998" y="658.995"/>
      <point x="253.81799999999998" y="696.995" type="curve" smooth="yes"/>
      <point x="253.81799999999998" y="735.198"/>
      <point x="239.95" y="760.0"/>
      <point x="197.813" y="760.0" type="curve" smooth="yes"/>
      <point x="154.676" y="760.0"/>
      <point x="140.808" y="734.198"/>
      <point x="140.808" y="696.995" type="curve" smooth="yes"/>
      <point x="140.808" y="658.995"/>
      <point x="166.808" y="566.995"/>
      <point x="166.808" y="477.995" type="curve"/>
    </contour>
  </outline>
</glyph>
<glyph name="numbersign" format="2">
  <advance width="748"/>
  <unicode hex="0023"/>
  <outline>
    <contour>
      <point x="396.599" y="-10.0" type="line"/>
      <point x="467.609" y="-10.0" type="line"/>
      <point x="508.675" y="194.995" type="line"/>
      <point x="664.609" y="194.995" type="line"/>
      <point x="664.609" y="255.0" type="line"/>
      <point x="519.609" y="255.0" type="line"/>
      <point x="559.675" y="453.995" type="line"/>
      <point x="713.609" y="453.995" type="line"/>
      <point x="713.609" y="514.0" type="line"/>
      <point x="570.609" y="514.0" type="line"/>
      <point x="613.609" y="730.0" type="line"/>
      <point x="542.599" y="730.0" type="line"/>
      <point x="499.599" y="514.0" type="line"/>
      <point x="310.609" y="514.0" type="line"/>
      <point x="353.609" y="730.0" type="line"/>
      <point x="282.599" y="730.0" type="line"/>
      <point x="239.599" y="514.0" type="line"/>
      <point x="82.599" y="514.0" type="line"/>
      <point x="82.599" y="453.995" type="line"/>
      <point x="228.665" y="453.995" type="line"/>
      <point x="188.599" y="255.0" type="line"/>
      <point x="33.599" y="255.0" type="line"/>
      <point x="33.599" y="194.995" type="line"/>
      <point x="177.665" y="194.995" type="line"/>
      <point x="136.599" y="-10.0" type="line"/>
      <point x="207.609" y="-10.0" type="line"/>
      <point x="248.675" y="194.995" type="line"/>
      <point x="437.665" y="194.995" type="line"/>
    </contour>
    <contour>
      <point x="299.675" y="453.995" type="line"/>
      <point x="488.665" y="453.995" type="line"/>
      <point x="448.599" y="255.0" type="line"/>
      <point x="259.609" y="255.0" type="line"/>
    </contour>
  </outline>
</glyph>
<glyph name="dollar" format="2">
  <advance width="577"/>
  <unicode hex="0024"/>
  <outline>
    <contour>
      <point x="260.198" y="-130.0" type="line"/>
      <point x="321.208" y="-130.0" type="line"/>
      <point x="321.208" y="-10.0" type="line"/>
      <point x="457.543" y="-4.0"/>
      <point x="542.208" y="69.0"/>
      <point x="542.208" y="188.797" type="curve" smooth="yes"/>
      <point x="542.208" y="300.462"/>
      <point x="468.675" y="344.868"/>
      <point x="321.208" y="413.269" type="curve"/>
      <point x="321.208" y="667.995" type="line"/>
      <point x="366.67" y="663.462"/>
      <point x="399.467" y="643.797"/>
      <point x="421.198" y="606.0" type="curve"/>
      <point x="399.264" y="594.132"/>
      <point x="385.198" y="567.929"/>
      <point x="385.198" y="542.396" type="curve" smooth="yes"/>
      <point x="385.198" y="506.594"/>
      <point x="413.401" y="485.995"/>
      <point x="447.802" y="485.995" type="curve" smooth="yes"/>
      <point x="490.406" y="485.995"/>
      <point x="516.208" y="516.797"/>
      <point x="516.208" y="562.599" type="curve" smooth="yes"/>
      <point x="516.208" y="640.0"/>
      <point x="441.609" y="715.533"/>
      <point x="321.208" y="729.0" type="curve"/>
      <point x="321.208" y="851.0" type="line"/>
      <point x="260.198" y="851.0" type="line"/>
      <point x="260.198" y="731.0" type="line"/>
      <point x="133.198" y="726.0"/>
      <point x="50.198" y="650.467"/>
      <point x="50.198" y="531.066" type="curve" smooth="yes"/>
      <point x="50.198" y="400.731"/>
      <point x="150.066" y="352.396"/>
      <point x="247.934" y="312.396" type="curve" smooth="yes"/>
      <point x="251.533" y="310.863"/>
      <point x="255.599" y="308.797"/>
      <point x="260.198" y="307.264" type="curve"/>
      <point x="260.198" y="51.005" type="line"/>
      <point x="198.203" y="54.538"/>
      <point x="157.406" y="80.736"/>
      <point x="132.208" y="115.0" type="curve"/>
      <point x="153.208" y="126.0"/>
      <point x="174.208" y="148.533"/>
      <point x="174.208" y="179.934" type="curve" smooth="yes"/>
      <point x="174.208" y="214.203"/>
      <point x="149.406" y="240.005"/>
      <point x="109.203" y="240.005" type="curve" smooth="yes"/>
      <point x="64.0" y="240.005"/>
      <point x="38.198" y="207.802"/>
      <point x="38.198" y="162.0" type="curve" smooth="yes"/>
      <point x="38.198" y="80.0"/>
      <point x="121.198" y="0.0"/>
      <point x="260.198" y="-10.0" type="curve"/>
    </contour>
    <contour>
      <point x="420.198" y="155.467" type="curve" smooth="yes"/>
      <point x="420.198" y="96.269"/>
      <point x="382.934" y="60.071"/>
      <point x="321.208" y="52.005" type="curve"/>
      <point x="321.208" y="282.995" type="line"/>
      <point x="376.802" y="253.929"/>
      <point x="420.198" y="219.731"/>
    </contour>
    <contour>
      <point x="165.208" y="557.467" type="curve" smooth="yes"/>
      <point x="165.208" y="620.863"/>
      <point x="195.071" y="661.462"/>
      <point x="260.198" y="667.995" type="curve"/>
      <point x="260.198" y="439.406" type="line"/>
      <point x="194.071" y="473.939"/>
      <point x="165.208" y="496.604"/>
    </contour>
  </outline>
</glyph>
<glyph name="ampersand" format="2">
  <advance width="762"/>
  <unicode hex="0026"/>
  <outline>
    <contour>
      <point x="712.472" y="336.995" type="line"/>
      <point x="712.472" y="385.0" type="line"/>
      <point x="489.462" y="385.0" type="line"/>
      <point x="489.462" y="336.995" type="line"/>
      <point x="566.462" y="317.995" type="line"/>
      <point x="565.528" y="251.33"/>
      <point x="545.127" y="192.401"/>
      <point x="519.0" y="151.274" type="curve"/>
      <point x="342.274" y="380.264" type="line"/>
      <point x="454.274" y="439.264"/>
      <point x="508.472" y="512.0"/>
      <point x="508.472" y="587.0" type="curve" smooth="yes"/>
      <point x="508.472" y="669.0"/>
      <point x="440.873" y="728.0"/>
      <point x="338.934" y="728.0" type="curve" smooth="yes"/>
      <point x="228.462" y="728.0"/>
      <point x="157.462" y="657.0"/>
      <point x="157.462" y="553.0" type="curve" smooth="yes"/>
      <point x="157.462" y="500.0"/>
      <point x="175.462" y="445.0"/>
      <point x="212.462" y="386.0" type="curve"/>
      <point x="101.462" y="325.0"/>
      <point x="59.462" y="270.0"/>
      <point x="59.462" y="188.0" type="curve" smooth="yes"/>
      <point x="59.462" y="65.0"/>
      <point x="157.462" y="-10.0"/>
      <point x="319.462" y="-10.0" type="curve" smooth="yes"/>
      <point x="393.462" y="-10.0"/>
      <point x="451.33" y="4.132"/>
      <point x="500.33" y="38.132" type="curve"/>
      <point x="539.33" y="7.0"/>
      <point x="581.462" y="-10.0"/>
      <point x="628.462" y="-10.0" type="curve" smooth="yes"/>
      <point x="681.462" y="-10.0"/>
      <point x="725.462" y="11.0"/>
      <point x="753.462" y="51.0" type="curve"/>
      <point x="722.325" y="95.939" type="line"/>
      <point x="703.259" y="69.939"/>
      <point x="672.396" y="53.34"/>
      <point x="641.33" y="53.34" type="curve" smooth="yes"/>
      <point x="613.269" y="53.34"/>
      <point x="581.939" y="70.604"/>
      <point x="568.939" y="94.401" type="curve"/>
      <point x="610.005" y="154.533"/>
      <point x="636.005" y="239.33"/>
      <point x="636.472" y="317.995" type="curve"/>
    </contour>
    <contour>
      <point x="331.462" y="55.005" type="curve" smooth="yes"/>
      <point x="230.335" y="55.005"/>
      <point x="173.472" y="103.67"/>
      <point x="173.472" y="189.0" type="curve" smooth="yes"/>
      <point x="173.472" y="252.198"/>
      <point x="203.269" y="307.396"/>
      <point x="255.066" y="335.995" type="curve"/>
      <point x="450.193" y="86.203" type="line"/>
      <point x="423.599" y="66.406"/>
      <point x="381.462" y="55.005"/>
    </contour>
    <contour>
      <point x="256.472" y="576.0" type="curve" smooth="yes"/>
      <point x="256.472" y="636.33"/>
      <point x="286.939" y="667.061"/>
      <point x="336.335" y="667.061" type="curve" smooth="yes"/>
      <point x="391.533" y="667.061"/>
      <point x="425.462" y="632.797"/>
      <point x="425.462" y="582.0" type="curve" smooth="yes"/>
      <point x="425.462" y="527.0"/>
      <point x="385.929" y="486.67"/>
      <point x="302.67" y="436.538" type="curve"/>
      <point x="268.67" y="489.538"/>
      <point x="256.472" y="529.0"/>
    </contour>
  </outline>
</glyph>
<glyph name="quotesingle" format="2">
  <advance width="216"/>
  <unicode hex="0027"/>
  <outline>
    <contour>
      <point x="138.274" y="477.995" type="line"/>
      <point x="138.274" y="566.995"/>
      <point x="164.274" y="658.995"/>
      <point x="164.274" y="696.995" type="curve" smooth="yes"/>
      <point x="164.274" y="735.198"/>
      <point x="150.406" y="760.0"/>
      <point x="108.269" y="760.0" type="curve" smooth="yes"/>
      <point x="65.132" y="760.0"/>
      <point x="51.264" y="734.198"/>
      <point x="51.264" y="696.995" type="curve" smooth="yes"/>
      <point x="51.264" y="658.995"/>
      <point x="77.264" y="566.995"/>
      <point x="77.264" y="477.995" type="curve"/>
    </contour>
  </outline>
</glyph>
<glyph name="parenleft" format="2">
  <advance width="376"/>
  <unicode hex="0028"/>
  <outline>
    <contour>
      <point x="38.863" y="353.0" type="curve" smooth="yes"/>
      <point x="38.863" y="617.401"/>
      <point x="166.67" y="830.807"/>
      <point x="343.67" y="874.807" type="curve"/>
      <point x="368.873" y="816.0" type="line"/>
      <point x="239.873" y="786.0"/>
      <point x="153.873" y="600.0"/>
      <point x="153.873" y="351.0" type="curve" smooth="yes"/>
      <point x="153.873" y="98.0"/>
      <point x="237.873" y="-78.0"/>
      <point x="363.873" y="-104.0" type="curve"/>
      <point x="331.335" y="-169.741" type="line"/>
      <point x="164.335" y="-135.741"/>
      <point x="38.863" y="75.0"/>
    </contour>
  </outline>
</glyph>
<glyph name="parenright" format="2">
  <advance width="376"/>
  <unicode hex="0029"/>
  <outline>
    <contour>
      <point x="337.274" y="353.0" type="curve"/>
      <point x="337.274" y="75.0"/>
      <point x="211.802" y="-135.741"/>
      <point x="44.802" y="-169.741" type="curve"/>
      <point x="12.264" y="-104.0" type="line"/>
      <point x="138.264" y="-78.0"/>
      <point x="222.264" y="98.0"/>
      <point x="222.264" y="351.0" type="curve" smooth="yes"/>
      <point x="222.264" y="600.0"/>
      <point x="136.264" y="786.0"/>
      <point x="7.263999999999999" y="816.0" type="curve"/>
      <point x="32.467" y="874.807" type="line"/>
      <point x="209.467" y="830.807"/>
      <point x="337.274" y="617.401"/>
    </contour>
  </outline>
</glyph>
<glyph name="asterisk" format="2">
  <advance width="476"/>
  <unicode hex="002A"/>
  <outline>
    <contour>
      <point x="282.873" y="749.071" type="curve" smooth="yes"/>
      <point x="282.873" y="779.472"/>
      <point x="263.736" y="798.406"/>
      <point x="236.802" y="798.406" type="curve" smooth="yes"/>
      <point x="208.401" y="798.406"/>
      <point x="190.731" y="778.472"/>
      <point x="190.731" y="749.071" type="curve" smooth="yes"/>
      <point x="190.731" y="716.604"/>
      <point x="206.264" y="670.67"/>
      <point x="216.934" y="628.269" type="curve"/>
      <point x="175.736" y="653.071"/>
      <point x="122.137" y="689.137"/>
      <point x="88.533" y="689.137" type="curve" smooth="yes"/>
      <point x="65.396" y="689.137"/>
      <point x="45.396" y="670.599"/>
      <point x="45.396" y="642.0" type="curve" smooth="yes"/>
      <point x="45.396" y="597.528"/>
      <point x="95.802" y="595.396"/>
      <point x="140.0" y="594.33" type="curve" smooth="yes"/>
      <point x="162.0" y="593.797"/>
      <point x="185.066" y="593.731"/>
      <point x="206.533" y="593.533" type="curve"/>
      <point x="159.264" y="555.137"/>
      <point x="100.863" y="510.604"/>
      <point x="100.863" y="475.736" type="curve" smooth="yes"/>
      <point x="100.863" y="453.066"/>
      <point x="124.132" y="430.797"/>
      <point x="147.868" y="430.797" type="curve" smooth="yes"/>
      <point x="191.934" y="430.797"/>
      <point x="209.67" y="501.858"/>
      <point x="237.802" y="569.797" type="curve"/>
      <point x="261.665" y="512.797"/>
      <point x="283.335" y="431.797"/>
      <point x="329.67" y="431.797" type="curve" smooth="yes"/>
      <point x="354.406" y="431.797"/>
      <point x="375.741" y="454.599"/>
      <point x="375.741" y="475.335" type="curve" smooth="yes"/>
      <point x="375.741" y="516.472"/>
      <point x="306.401" y="560.34"/>
      <point x="266.203" y="593.066" type="curve"/>
      <point x="291.802" y="593.797"/>
      <point x="319.533" y="593.33"/>
      <point x="344.665" y="594.396" type="curve" smooth="yes"/>
      <point x="385.132" y="595.995"/>
      <point x="430.208" y="600.259"/>
      <point x="430.208" y="642.599" type="curve" smooth="yes"/>
      <point x="430.208" y="671.198"/>
      <point x="409.142" y="689.203"/>
      <point x="386.538" y="689.203" type="curve" smooth="yes"/>
      <point x="350.802" y="689.203"/>
      <point x="300.335" y="653.137"/>
      <point x="256.67" y="626.802" type="curve"/>
      <point x="266.406" y="664.335"/>
      <point x="282.873" y="715.67"/>
    </contour>
  </outline>
</glyph>
<glyph name="plus" format="2">
  <advance width="494"/>
  <unicode hex="002B"/>
  <outline>
    <contour>
      <point x="40.797" y="324.731" type="line"/>
      <point x="205.797" y="324.731" type="line"/>
      <point x="205.797" y="163.0" type="line"/>
      <point x="287.807" y="163.0" type="line"/>
      <point x="287.807" y="324.731" type="line"/>
      <point x="452.807" y="324.731" type="line"/>
      <point x="452.807" y="399.269" type="line"/>
      <point x="287.807" y="399.269" type="line"/>
      <point x="287.807" y="561.0" type="line"/>
      <point x="205.797" y="561.0" type="line"/>
      <point x="205.797" y="399.269" type="line"/>
      <point x="40.797" y="399.269" type="line"/>
    </contour>
  </outline>
</glyph>
<glyph name="comma" format="2">
  <advance width="250"/>
  <unicode hex="002C"/>
  <outline>
    <contour>
      <point x="122.868" y="125.005" type="curve" smooth="yes"/>
      <point x="79.665" y="125.005"/>
      <point x="50.863" y="95.203"/>
      <point x="50.863" y="53.0" type="curve" smooth="yes"/>
      <point x="50.863" y="12.797"/>
      <point x="73.797" y="-14.604"/>
      <point x="104.264" y="-14.604" type="curve" smooth="yes"/>
      <point x="115.264" y="-14.604"/>
      <point x="123.929" y="-11.538"/>
      <point x="127.863" y="-7.005000000000001" type="curve"/>
      <point x="131.863" y="-10.005" type="line"/>
      <point x="128.863" y="-40.137"/>
      <point x="93.528" y="-79.868"/>
      <point x="40.731" y="-123.066" type="curve"/>
      <point x="66.934" y="-153.203" type="line"/>
      <point x="156.604" y="-99.203"/>
      <point x="198.873" y="-37.0"/>
      <point x="198.873" y="35.0" type="curve" smooth="yes"/>
      <point x="198.873" y="90.203"/>
      <point x="169.071" y="125.005"/>
    </contour>
  </outline>
</glyph>
<glyph name="hyphen" format="2">
  <advance width="381"/>
  <unicode hex="002D"/>
  <outline>
    <contour>
      <point x="64.797" y="236.995" type="line"/>
      <point x="315.797" y="236.995" type="line"/>
      <point x="315.797" y="318.005" type="line"/>
      <point x="64.797" y="318.005" type="line"/>
    </contour>
  </outline>
</glyph>
<glyph name="period" format="2">
  <advance width="243"/>
  <unicode hex="002E"/>
  <outline>
    <contour>
      <point x="51.396" y="52.533" type="curve" smooth="yes"/>
      <point x="51.396" y="8.33"/>
      <point x="77.198" y="-17.005000000000003"/>
      <point x="120.934" y="-17.005000000000003" type="curve" smooth="yes"/>
      <point x="165.071" y="-17.005000000000003"/>
      <point x="192.406" y="9.797"/>
      <point x="192.406" y="53.0" type="curve" smooth="yes"/>
      <point x="192.406" y="96.203"/>
      <point x="164.604" y="125.005"/>
      <point x="121.401" y="125.005" type="curve" smooth="yes"/>
      <point x="78.198" y="125.005"/>
      <point x="51.396" y="97.203"/>
    </contour>
  </outline>
</glyph>
<glyph name="slash" format="2">
  <advance width="315"/>
  <unicode hex="002F"/>
  <outline>
    <contour>
      <point x="49.33" y="-10.0" type="line"/>
      <point x="120.34" y="-10.0" type="line"/>
      <point x="266.34" y="730.0" type="line"/>
      <point x="195.33" y="730.0" type="line"/>
    </contour>
  </outline>
</glyph>
<glyph name="zero" format="2">
  <advance width="679"/>
  <unicode hex="0030"/>
  <outline>
    <contour>
      <point x="52.33" y="360.0" type="curve" smooth="yes"/>
      <point x="52.33" y="232.0"/>
      <point x="81.33" y="133.0"/>
      <point x="135.33" y="68.0" type="curve" smooth="yes"/>
      <point x="183.33" y="10.0"/>
      <point x="247.467" y="-10.0"/>
      <point x="339.335" y="-10.0" type="curve" smooth="yes"/>
      <point x="435.873" y="-10.0"/>
      <point x="492.071" y="10.0"/>
      <point x="543.34" y="68.0" type="curve" smooth="yes"/>
      <point x="596.873" y="133.0"/>
      <point x="626.34" y="232.0"/>
      <point x="626.34" y="360.0" type="curve" smooth="yes"/>
      <point x="626.34" y="488.0"/>
      <point x="597.34" y="587.0"/>
      <point x="543.34" y="652.0" type="curve" smooth="yes"/>
      <point x="492.071" y="710.0"/>
      <point x="435.873" y="730.0"/>
      <point x="339.335" y="730.0" type="curve" smooth="yes"/>
      <point x="247.467" y="730.0"/>
      <point x="183.33" y="710.0"/>
      <point x="135.33" y="652.0" type="curve" smooth="yes"/>
      <point x="81.33" y="587.0"/>
      <point x="52.33" y="488.0"/>
    </contour>
    <contour>
      <point x="500.33" y="360.0" type="curve" smooth="yes"/>
      <point x="500.33" y="247.269"/>
      <point x="485.863" y="164.604"/>
      <point x="455.33" y="114.005" type="curve" smooth="yes"/>
      <point x="429.863" y="72.005"/>
      <point x="400.0" y="51.005"/>
      <point x="339.335" y="51.005" type="curve" smooth="yes"/>
      <point x="283.34" y="51.005"/>
      <point x="245.538" y="72.005"/>
      <point x="223.34" y="114.005" type="curve" smooth="yes"/>
      <point x="192.34" y="164.604"/>
      <point x="178.34" y="247.269"/>
      <point x="178.34" y="360.0" type="curve" smooth="yes"/>
      <point x="178.34" y="472.731"/>
      <point x="192.807" y="555.396"/>
      <point x="223.34" y="605.995" type="curve" smooth="yes"/>
      <point x="245.538" y="647.995"/>
      <point x="284.741" y="668.995"/>
      <point x="339.335" y="668.995" type="curve" smooth="yes"/>
      <point x="400.0" y="668.995"/>
      <point x="429.863" y="647.995"/>
      <point x="455.33" y="605.995" type="curve" smooth="yes"/>
      <point x="485.863" y="555.396"/>
      <point x="500.33" y="472.731"/>
    </contour>
  </outline>
</glyph>
<glyph name="one" format="2">
  <advance width="407"/>
  <unicode hex="0031"/>
  <outline>
    <contour>
      <point x="168.731" y="67.005" type="line"/>
      <point x="41.731" y="48.005" type="line"/>
      <point x="41.731" y="0.0" type="line"/>
      <point x="386.741" y="0.0" type="line"/>
      <point x="386.741" y="48.005" type="line"/>
      <point x="279.741" y="67.005" type="line"/>
      <point x="279.741" y="730.0" type="line"/>
      <point x="197.731" y="730.0" type="line"/>
      <point x="174.731" y="700.0"/>
      <point x="89.731" y="684.0"/>
      <point x="41.731" y="684.0" type="curve"/>
      <point x="41.731" y="625.995" type="line"/>
      <point x="168.731" y="625.995" type="line"/>
    </contour>
  </outline>
</glyph>
<glyph name="two" format="2">
  <advance width="594"/>
  <unicode hex="0032"/>
  <outline>
    <contour>
      <point x="141.34" y="102.005" type="line"/>
      <point x="141.34" y="226.457"/>
      <point x="526.34" y="296.137"/>
      <point x="526.34" y="536.066" type="curve" smooth="yes"/>
      <point x="526.34" y="655.0"/>
      <point x="430.802" y="731.0"/>
      <point x="290.599" y="731.0" type="curve" smooth="yes"/>
      <point x="148.929" y="731.0"/>
      <point x="59.33" y="654.066"/>
      <point x="59.33" y="542.868" type="curve" smooth="yes"/>
      <point x="59.33" y="478.462"/>
      <point x="90.203" y="451.462"/>
      <point x="136.604" y="451.462" type="curve" smooth="yes"/>
      <point x="179.005" y="451.462"/>
      <point x="205.34" y="473.995"/>
      <point x="205.34" y="512.462" type="curve" smooth="yes"/>
      <point x="205.34" y="549.528"/>
      <point x="181.34" y="572.995"/>
      <point x="139.34" y="572.995" type="curve"/>
      <point x="152.406" y="637.995"/>
      <point x="195.67" y="669.995"/>
      <point x="273.401" y="669.995" type="curve" smooth="yes"/>
      <point x="361.264" y="669.995"/>
      <point x="411.33" y="629.462"/>
      <point x="411.33" y="558.264" type="curve" smooth="yes"/>
      <point x="411.33" y="365.269"/>
      <point x="46.33" y="275.066"/>
      <point x="46.33" y="66.0" type="curve" smooth="yes"/>
      <point x="46.33" y="0.0" type="line"/>
      <point x="535.34" y="0.0" type="line"/>
      <point x="535.34" y="230.005" type="line"/>
      <point x="466.33" y="230.005" type="line"/>
      <point x="442.33" y="102.005" type="line"/>
    </contour>
  </outline>
</glyph>
<glyph name="three" format="2">
  <advance width="585"/>
  <unicode hex="0033"/>
  <outline>
    <contour>
      <point x="520.34" y="542.066" type="curve" smooth="yes"/>
      <point x="520.34" y="655.0"/>
      <point x="423.269" y="731.0"/>
      <point x="285.665" y="731.0" type="curve" smooth="yes"/>
      <point x="148.863" y="731.0"/>
      <point x="56.33" y="660.0"/>
      <point x="56.33" y="557.934" type="curve" smooth="yes"/>
      <point x="56.33" y="501.066"/>
      <point x="86.198" y="461.929"/>
      <point x="140.604" y="461.929" type="curve" smooth="yes"/>
      <point x="185.208" y="461.929"/>
      <point x="208.34" y="488.264"/>
      <point x="208.34" y="523.929" type="curve" smooth="yes"/>
      <point x="208.34" y="560.528"/>
      <point x="183.34" y="582.995"/>
      <point x="142.34" y="582.995" type="curve"/>
      <point x="152.406" y="640.995"/>
      <point x="197.67" y="669.995"/>
      <point x="275.132" y="669.995" type="curve" smooth="yes"/>
      <point x="357.396" y="669.995"/>
      <point x="406.33" y="630.264"/>
      <point x="406.33" y="554.665" type="curve" smooth="yes"/>
      <point x="406.33" y="462.401"/>
      <point x="334.797" y="400.269"/>
      <point x="227.33" y="400.269" type="curve"/>
      <point x="227.33" y="345.264" type="line"/>
      <point x="340.33" y="345.264"/>
      <point x="409.33" y="283.066"/>
      <point x="409.33" y="183.868" type="curve" smooth="yes"/>
      <point x="409.33" y="96.67"/>
      <point x="357.929" y="51.005"/>
      <point x="265.533" y="51.005" type="curve" smooth="yes"/>
      <point x="184.736" y="51.005"/>
      <point x="139.873" y="84.005"/>
      <point x="128.34" y="148.005" type="curve"/>
      <point x="168.34" y="148.005"/>
      <point x="194.34" y="172.472"/>
      <point x="194.34" y="208.005" type="curve" smooth="yes"/>
      <point x="194.34" y="244.604"/>
      <point x="169.406" y="270.005"/>
      <point x="126.736" y="270.005" type="curve" smooth="yes"/>
      <point x="73.665" y="270.005"/>
      <point x="48.33" y="235.467"/>
      <point x="48.33" y="176.599" type="curve" smooth="yes"/>
      <point x="48.33" y="67.934"/>
      <point x="137.528" y="-10.0"/>
      <point x="277.533" y="-10.0" type="curve" smooth="yes"/>
      <point x="422.599" y="-10.0"/>
      <point x="531.34" y="69.264"/>
      <point x="531.34" y="197.335" type="curve" smooth="yes"/>
      <point x="531.34" y="288.264"/>
      <point x="483.208" y="350.0"/>
      <point x="378.34" y="372.0" type="curve"/>
      <point x="378.34" y="376.0" type="line"/>
      <point x="466.807" y="391.0"/>
      <point x="520.34" y="456.868"/>
    </contour>
  </outline>
</glyph>
<glyph name="four" format="2">
  <advance width="566"/>
  <unicode hex="0034"/>
  <outline>
    <contour>
      <point x="316.797" y="67.005" type="line"/>
      <point x="219.797" y="48.005" type="line"/>
      <point x="219.797" y="0.0" type="line"/>
      <point x="504.807" y="0.0" type="line"/>
      <point x="504.807" y="48.005" type="line"/>
      <point x="427.807" y="67.005" type="line"/>
      <point x="427.807" y="205.995" type="line"/>
      <point x="526.807" y="205.995" type="line"/>
      <point x="536.807" y="270.0" type="line"/>
      <point x="427.807" y="270.0" type="line"/>
      <point x="427.807" y="730.0" type="line"/>
      <point x="334.797" y="730.0" type="line"/>
      <point x="13.797" y="257.0" type="line"/>
      <point x="26.665" y="205.995" type="line"/>
      <point x="316.797" y="205.995" type="line"/>
    </contour>
    <contour>
      <point x="316.797" y="603.99" type="line"/>
      <point x="316.797" y="270.0" type="line"/>
      <point x="96.807" y="270.0" type="line"/>
    </contour>
  </outline>
</glyph>
<glyph name="five" format="2">
  <advance width="557"/>
  <unicode hex="0035"/>
  <outline>
    <contour>
      <point x="450.807" y="617.995" type="line"/>
      <point x="177.208" y="617.995" type="line"/>
      <point x="145.142" y="407.0" type="line"/>
      <point x="184.142" y="436.0"/>
      <point x="228.142" y="451.0"/>
      <point x="286.142" y="451.0" type="curve" smooth="yes"/>
      <point x="425.142" y="451.0"/>
      <point x="517.142" y="364.0"/>
      <point x="517.142" y="227.0" type="curve" smooth="yes"/>
      <point x="517.142" y="85.0"/>
      <point x="419.076" y="-10.0"/>
      <point x="265.472" y="-10.0" type="curve" smooth="yes"/>
      <point x="129.066" y="-10.0"/>
      <point x="43.132" y="66.0"/>
      <point x="43.132" y="153.0" type="curve" smooth="yes"/>
      <point x="43.132" y="217.203"/>
      <point x="82.269" y="256.005"/>
      <point x="126.005" y="256.005" type="curve" smooth="yes"/>
      <point x="172.543" y="256.005"/>
      <point x="191.142" y="228.005"/>
      <point x="191.142" y="196.005" type="curve" smooth="yes"/>
      <point x="191.142" y="164.005"/>
      <point x="166.142" y="134.005"/>
      <point x="124.142" y="134.005" type="curve"/>
      <point x="134.208" y="85.939"/>
      <point x="182.401" y="49.005"/>
      <point x="259.401" y="49.005" type="curve" smooth="yes"/>
      <point x="354.66" y="49.005"/>
      <point x="395.132" y="118.203"/>
      <point x="395.132" y="222.0" type="curve" smooth="yes"/>
      <point x="395.132" y="323.797"/>
      <point x="359.396" y="388.995"/>
      <point x="265.137" y="388.995" type="curve" smooth="yes"/>
      <point x="212.137" y="388.995"/>
      <point x="162.142" y="371.995"/>
      <point x="136.142" y="338.995" type="curve"/>
      <point x="76.0" y="363.665" type="line"/>
      <point x="131.132" y="720.0" type="line"/>
      <point x="419.132" y="720.0" type="line"/>
      <point x="437.132" y="752.0" type="line"/>
      <point x="493.142" y="752.0" type="line"/>
    </contour>
  </outline>
</glyph>
<glyph name="six" format="2">
  <advance width="607"/>
  <unicode hex="0036"/>
  <outline>
    <contour>
      <point x="162.873" y="351.0" type="line"/>
      <point x="160.873" y="368.0"/>
      <point x="160.873" y="379.0"/>
      <point x="160.873" y="398.0" type="curve" smooth="yes"/>
      <point x="160.873" y="587.863"/>
      <point x="212.873" y="668.995"/>
      <point x="333.873" y="668.995" type="curve" smooth="yes"/>
      <point x="398.066" y="668.995"/>
      <point x="441.797" y="644.396"/>
      <point x="450.863" y="601.0" type="curve"/>
      <point x="410.33" y="601.0"/>
      <point x="384.863" y="577.0"/>
      <point x="384.863" y="540.0" type="curve" smooth="yes"/>
      <point x="384.863" y="502.0"/>
      <point x="410.797" y="476.198"/>
      <point x="456.802" y="476.198" type="curve" smooth="yes"/>
      <point x="507.34" y="476.198"/>
      <point x="530.873" y="508.0"/>
      <point x="530.873" y="563.0" type="curve" smooth="yes"/>
      <point x="530.873" y="663.0"/>
      <point x="446.873" y="731.0"/>
      <point x="324.873" y="731.0" type="curve" smooth="yes"/>
      <point x="146.198" y="731.0"/>
      <point x="53.863" y="595.0"/>
      <point x="53.863" y="340.0" type="curve" smooth="yes"/>
      <point x="53.863" y="102.0"/>
      <point x="138.533" y="-10.0"/>
      <point x="317.873" y="-10.0" type="curve" smooth="yes"/>
      <point x="464.873" y="-10.0"/>
      <point x="556.873" y="74.0"/>
      <point x="556.873" y="210.0" type="curve" smooth="yes"/>
      <point x="556.873" y="342.0"/>
      <point x="470.873" y="430.0"/>
      <point x="343.873" y="430.0" type="curve" smooth="yes"/>
      <point x="270.873" y="430.0"/>
      <point x="203.873" y="400.0"/>
      <point x="166.873" y="351.0" type="curve"/>
    </contour>
    <contour>
      <point x="435.863" y="210.0" type="curve"/>
      <point x="435.863" y="105.67"/>
      <point x="393.198" y="52.005"/>
      <point x="309.868" y="52.005" type="curve" smooth="yes"/>
      <point x="228.873" y="52.005"/>
      <point x="183.873" y="105.67"/>
      <point x="183.873" y="210.0" type="curve" smooth="yes"/>
      <point x="183.873" y="313.33"/>
      <point x="228.873" y="365.995"/>
      <point x="309.868" y="365.995" type="curve" smooth="yes"/>
      <point x="393.198" y="365.995"/>
      <point x="435.863" y="313.33"/>
    </contour>
  </outline>
</glyph>
<glyph name="seven" format="2">
  <advance width="520"/>
  <unicode hex="0037"/>
  <outline>
    <contour>
      <point x="272.274" y="56.335" type="curve" smooth="yes"/>
      <point x="272.274" y="254.335"/>
      <point x="375.274" y="494.995"/>
      <point x="509.274" y="651.995" type="curve"/>
      <point x="509.274" y="720.0" type="line"/>
      <point x="36.264" y="720.0" type="line"/>
      <point x="36.264" y="500.995" type="line"/>
      <point x="102.274" y="500.995" type="line"/>
      <point x="121.274" y="617.995" type="line"/>
      <point x="397.594" y="617.995" type="line"/>
      <point x="266.594" y="464.995"/>
      <point x="155.264" y="197.335"/>
      <point x="155.264" y="57.335" type="curve" smooth="yes"/>
      <point x="155.264" y="15.335"/>
      <point x="169.731" y="-10.0"/>
      <point x="211.934" y="-10.0" type="curve" smooth="yes"/>
      <point x="257.741" y="-10.0"/>
      <point x="272.274" y="14.066"/>
    </contour>
  </outline>
</glyph>
<glyph name="eight" format="2">
  <advance width="576"/>
  <unicode hex="0038"/>
  <guideline x="96.0" y="0" angle="90.0" identifier="nNJBkzDnoT"/>
  <guideline x="496.0" y="0" angle="90.0" identifier="OCNdPRmzCB"/>
  <outline>
    <contour>
      <point x="495.34" y="570.066" type="curve" smooth="yes"/>
      <point x="495.34" y="672.401"/>
      <point x="416.802" y="731.0"/>
      <point x="293.066" y="731.0" type="curve" smooth="yes"/>
      <point x="157.462" y="731.0"/>
      <point x="81.33" y="661.0"/>
      <point x="81.33" y="546.467" type="curve" smooth="yes"/>
      <point x="81.33" y="477.0"/>
      <point x="109.33" y="431.0"/>
      <point x="183.33" y="378.0" type="curve"/>
      <point x="90.33" y="325.0"/>
      <point x="48.33" y="263.0"/>
      <point x="48.33" y="178.467" type="curve" smooth="yes"/>
      <point x="48.33" y="60.0"/>
      <point x="131.132" y="-10.0"/>
      <point x="272.269" y="-10.0" type="curve" smooth="yes"/>
      <point x="425.538" y="-10.0"/>
      <point x="528.34" y="71.599"/>
      <point x="528.34" y="197.533" type="curve" smooth="yes"/>
      <point x="528.34" y="278.0"/>
      <point x="485.34" y="335.0"/>
      <point x="386.34" y="389.0" type="curve"/>
      <point x="455.34" y="430.0"/>
      <point x="495.34" y="496.467"/>
    </contour>
    <contour>
      <point x="237.406" y="344.061" type="curve"/>
      <point x="374.665" y="266.462"/>
      <point x="416.33" y="228.599"/>
      <point x="416.33" y="167.467" type="curve" smooth="yes"/>
      <point x="416.33" y="92.538"/>
      <point x="363.863" y="51.005"/>
      <point x="273.269" y="51.005" type="curve" smooth="yes"/>
      <point x="182.675" y="51.005"/>
      <point x="132.34" y="93.604"/>
      <point x="132.34" y="180.868" type="curve" smooth="yes"/>
      <point x="132.34" y="254.066"/>
      <point x="167.208" y="303.863"/>
    </contour>
    <contour>
      <point x="339.137" y="420.604" type="curve"/>
      <point x="219.137" y="473.203"/>
      <point x="180.34" y="516.604"/>
      <point x="180.34" y="574.0" type="curve" smooth="yes"/>
      <point x="180.34" y="637.396"/>
      <point x="223.274" y="669.995"/>
      <point x="298.335" y="669.995" type="curve" smooth="yes"/>
      <point x="376.396" y="669.995"/>
      <point x="421.33" y="634.396"/>
      <point x="421.33" y="565.132" type="curve" smooth="yes"/>
      <point x="421.33" y="505.736"/>
      <point x="388.198" y="448.604"/>
    </contour>
  </outline>
</glyph>
<glyph name="nine" format="2">
  <advance width="607"/>
  <unicode hex="0039"/>
  <outline>
    <contour>
      <point x="443.863" y="370.0" type="line"/>
      <point x="445.863" y="354.599"/>
      <point x="445.863" y="344.665"/>
      <point x="445.863" y="323.0" type="curve" smooth="yes"/>
      <point x="445.863" y="131.005"/>
      <point x="393.33" y="52.005"/>
      <point x="265.401" y="52.005" type="curve" smooth="yes"/>
      <point x="202.274" y="52.005"/>
      <point x="162.274" y="76.071"/>
      <point x="154.807" y="118.401" type="curve"/>
      <point x="195.34" y="118.401"/>
      <point x="220.807" y="142.401"/>
      <point x="220.807" y="179.401" type="curve" smooth="yes"/>
      <point x="220.807" y="217.401"/>
      <point x="194.873" y="243.203"/>
      <point x="148.868" y="243.203" type="curve" smooth="yes"/>
      <point x="100.198" y="243.203"/>
      <point x="74.797" y="209.467"/>
      <point x="74.797" y="155.868" type="curve" smooth="yes"/>
      <point x="74.797" y="55.868"/>
      <point x="155.066" y="-10.0"/>
      <point x="276.0" y="-10.0" type="curve" smooth="yes"/>
      <point x="459.472" y="-10.0"/>
      <point x="552.873" y="124.934"/>
      <point x="552.873" y="380.467" type="curve" smooth="yes"/>
      <point x="552.873" y="619.0"/>
      <point x="470.071" y="731.0"/>
      <point x="290.731" y="731.0" type="curve" smooth="yes"/>
      <point x="143.731" y="731.0"/>
      <point x="49.863" y="647.0"/>
      <point x="49.863" y="511.0" type="curve" smooth="yes"/>
      <point x="49.863" y="379.0"/>
      <point x="135.863" y="291.0"/>
      <point x="262.863" y="291.0" type="curve" smooth="yes"/>
      <point x="335.863" y="291.0"/>
      <point x="402.863" y="321.0"/>
      <point x="439.863" y="370.0" type="curve"/>
    </contour>
    <contour>
      <point x="170.873" y="511.0" type="curve" smooth="yes"/>
      <point x="170.873" y="615.33"/>
      <point x="213.538" y="668.995"/>
      <point x="296.868" y="668.995" type="curve" smooth="yes"/>
      <point x="377.863" y="668.995"/>
      <point x="422.863" y="615.33"/>
      <point x="422.863" y="511.0" type="curve" smooth="yes"/>
      <point x="422.863" y="407.67"/>
      <point x="377.863" y="355.005"/>
      <point x="296.868" y="355.005" type="curve" smooth="yes"/>
      <point x="213.538" y="355.005"/>
      <point x="170.873" y="407.67"/>
    </contour>
  </outline>
</glyph>
<glyph name="less" format="2">
  <advance width="480"/>
  <unicode hex="003C"/>
  <outline>
    <contour>
      <point x="415.675" y="135.0" type="line"/>
      <point x="415.675" y="219.406" type="line"/>
      <point x="117.675" y="360.0" type="line"/>
      <point x="415.675" y="500.594" type="line"/>
      <point x="415.675" y="584.0" type="line"/>
      <point x="32.665" y="389.0" type="line"/>
      <point x="32.665" y="331.0" type="line"/>
    </contour>
  </outline>
</glyph>
<glyph name="equal" format="2">
  <advance width="567"/>
  <unicode hex="003D"/>
  <outline>
    <contour>
      <point x="69.33" y="415.995" type="line"/>
      <point x="497.33" y="415.995" type="line"/>
      <point x="497.33" y="488.005" type="line"/>
      <point x="69.33" y="488.005" type="line"/>
    </contour>
    <contour>
      <point x="69.33" y="227.995" type="line"/>
      <point x="497.33" y="227.995" type="line"/>
      <point x="497.33" y="301.005" type="line"/>
      <point x="69.33" y="301.005" type="line"/>
    </contour>
  </outline>
</glyph>
<glyph name="greater" format="2">
  <advance width="480"/>
  <unicode hex="003E"/>
  <outline>
    <contour>
      <point x="447.675" y="331.0" type="line"/>
      <point x="447.675" y="389.0" type="line"/>
      <point x="64.665" y="584.0" type="line"/>
      <point x="64.665" y="500.594" type="line"/>
      <point x="362.665" y="360.0" type="line"/>
      <point x="64.665" y="219.406" type="line"/>
      <point x="64.665" y="135.0" type="line"/>
    </contour>
  </outline>
</glyph>
<glyph name="question" format="2">
  <advance width="493"/>
  <unicode hex="003F"/>
  <outline>
    <contour>
      <point x="251.076" y="205.0" type="line"/>
      <point x="251.076" y="264.0"/>
      <point x="275.543" y="299.599"/>
      <point x="361.604" y="379.061" type="curve" smooth="yes"/>
      <point x="436.208" y="448.132"/>
      <point x="464.076" y="497.0"/>
      <point x="464.076" y="557.0" type="curve" smooth="yes"/>
      <point x="464.076" y="659.0"/>
      <point x="372.472" y="731.0"/>
      <point x="241.066" y="731.0" type="curve" smooth="yes"/>
      <point x="124.066" y="731.0"/>
      <point x="33.066" y="664.0"/>
      <point x="33.066" y="578.0" type="curve" smooth="yes"/>
      <point x="33.066" y="523.264"/>
      <point x="65.401" y="480.726"/>
      <point x="112.137" y="480.726" type="curve" smooth="yes"/>
      <point x="156.208" y="480.726"/>
      <point x="186.076" y="510.995"/>
      <point x="186.076" y="547.995" type="curve" smooth="yes"/>
      <point x="186.076" y="576.995"/>
      <point x="169.076" y="604.995"/>
      <point x="143.076" y="619.995" type="curve"/>
      <point x="143.076" y="645.995"/>
      <point x="185.538" y="668.995"/>
      <point x="232.066" y="668.995" type="curve" smooth="yes"/>
      <point x="307.066" y="668.995"/>
      <point x="349.066" y="626.33"/>
      <point x="349.066" y="551.0" type="curve" smooth="yes"/>
      <point x="349.066" y="498.0"/>
      <point x="331.066" y="459.0"/>
      <point x="284.066" y="412.0" type="curve" smooth="yes"/>
      <point x="204.066" y="332.0"/>
      <point x="181.066" y="286.0"/>
      <point x="181.066" y="205.0" type="curve"/>
    </contour>
    <contour>
      <point x="213.158" y="52.0" type="curve" smooth="yes"/>
      <point x="213.158" y="49.903999999999996"/>
      <point x="214.442" y="49.61999999999999"/>
      <point x="216.071" y="49.61999999999999" type="curve" smooth="yes"/>
      <point x="219.167" y="49.61999999999999"/>
      <point x="220.385" y="50.838"/>
      <point x="220.385" y="52.467" type="curve" smooth="yes"/>
      <point x="220.385" y="54.096000000000004"/>
      <point x="218.7" y="56.781000000000006"/>
      <point x="217.071" y="56.781000000000006" type="curve" smooth="yes"/>
      <point x="215.442" y="56.781000000000006"/>
      <point x="213.158" y="54.563"/>
    </contour>
  </outline>
</glyph>
<glyph name="at" format="2">
  <advance width="812"/>
  <unicode hex="0040"/>
  <outline>
    <contour>
      <point x="404.33" y="449.0" type="curve" smooth="yes"/>
      <point x="282.33" y="449.0"/>
      <point x="189.33" y="340.0"/>
      <point x="189.33" y="196.0" type="curve" smooth="yes"/>
      <point x="189.33" y="92.0"/>
      <point x="239.396" y="34.0"/>
      <point x="338.335" y="34.0" type="curve" smooth="yes"/>
      <point x="397.401" y="34.0"/>
      <point x="450.335" y="63.335"/>
      <point x="481.335" y="107.0" type="curve"/>
      <point x="490.736" y="65.0"/>
      <point x="518.797" y="39.0"/>
      <point x="578.0" y="39.0" type="curve" smooth="yes"/>
      <point x="685.538" y="39.0"/>
      <point x="764.34" y="144.0"/>
      <point x="764.34" y="284.0" type="curve" smooth="yes"/>
      <point x="764.34" y="469.0"/>
      <point x="626.736" y="594.0"/>
      <point x="421.33" y="594.0" type="curve" smooth="yes"/>
      <point x="207.33" y="594.0"/>
      <point x="41.33" y="421.0"/>
      <point x="41.33" y="198.0" type="curve" smooth="yes"/>
      <point x="41.33" y="-9.0"/>
      <point x="174.33" y="-136.0"/>
      <point x="390.33" y="-136.0" type="curve" smooth="yes"/>
      <point x="489.33" y="-136.0"/>
      <point x="584.33" y="-110.0"/>
      <point x="657.33" y="-61.0" type="curve"/>
      <point x="638.33" y="-22.994999999999997" type="line"/>
      <point x="568.33" y="-67.995"/>
      <point x="483.33" y="-91.995"/>
      <point x="392.33" y="-91.995" type="curve" smooth="yes"/>
      <point x="206.203" y="-91.995"/>
      <point x="97.34" y="15.203"/>
      <point x="97.34" y="199.0" type="curve" smooth="yes"/>
      <point x="97.34" y="398.264"/>
      <point x="236.269" y="550.995"/>
      <point x="418.33" y="550.995" type="curve" smooth="yes"/>
      <point x="593.33" y="550.995"/>
      <point x="706.33" y="444.797"/>
      <point x="706.33" y="281.0" type="curve" smooth="yes"/>
      <point x="706.33" y="170.736"/>
      <point x="655.198" y="83.005"/>
      <point x="595.203" y="83.005" type="curve" smooth="yes"/>
      <point x="567.741" y="83.005"/>
      <point x="550.34" y="101.604"/>
      <point x="550.34" y="141.401" type="curve" smooth="yes"/>
      <point x="550.34" y="153.934"/>
      <point x="551.34" y="168.467"/>
      <point x="554.34" y="185.0" type="curve" smooth="yes"/>
      <point x="591.34" y="431.0" type="line"/>
      <point x="537.33" y="431.0" type="line"/>
      <point x="505.33" y="394.0" type="line"/>
      <point x="489.33" y="430.0"/>
      <point x="455.33" y="449.0"/>
    </contour>
    <contour>
      <point x="407.533" y="402.995" type="curve" smooth="yes"/>
      <point x="458.863" y="402.995"/>
      <point x="482.33" y="371.863"/>
      <point x="482.33" y="296.0" type="curve" smooth="yes"/>
      <point x="482.33" y="160.203"/>
      <point x="430.396" y="80.005"/>
      <point x="351.934" y="80.005" type="curve" smooth="yes"/>
      <point x="303.939" y="80.005"/>
      <point x="281.34" y="111.67"/>
      <point x="281.34" y="186.0" type="curve" smooth="yes"/>
      <point x="281.34" y="317.797"/>
      <point x="333.939" y="402.995"/>
    </contour>
  </outline>
</glyph>
<glyph name="A" format="2">
  <advance width="724"/>
  <unicode hex="0041"/>
  <anchor x="363.401" y="720.0" name="topcap"/>
  <anchor x="597.401" y="0" name="bottom"/>
  <outline>
    <contour>
      <point x="524.061" y="71.005" type="line"/>
      <point x="442.061" y="50.005" type="line"/>
      <point x="442.061" y="0.0" type="line"/>
      <point x="731.071" y="0.0" type="line"/>
      <point x="731.071" y="50.005" type="line"/>
      <point x="651.071" y="71.005" type="line"/>
      <point x="416.406" y="730.0" type="line"/>
      <point x="309.396" y="730.0" type="line"/>
      <point x="72.198" y="71.005" type="line"/>
      <point x="-9.802" y="50.005" type="line"/>
      <point x="-9.802" y="0.0" type="line"/>
      <point x="238.208" y="0.0" type="line"/>
      <point x="238.208" y="50.005" type="line"/>
      <point x="155.208" y="71.005" type="line"/>
      <point x="212.005" y="238.264" type="line"/>
      <point x="468.797" y="238.264" type="line"/>
    </contour>
    <contour>
      <point x="342.467" y="620.919" type="line"/>
      <point x="346.467" y="620.919" type="line"/>
      <point x="447.462" y="303.269" type="line"/>
      <point x="234.34" y="303.269" type="line"/>
    </contour>
  </outline>
</glyph>
<glyph name="B" format="2">
  <advance width="690"/>
  <unicode hex="0042"/>
  <outline>
    <contour>
      <point x="611.741" y="547.0" type="curve" smooth="yes"/>
      <point x="611.741" y="592.0"/>
      <point x="591.741" y="637.0"/>
      <point x="556.741" y="669.0" type="curve" smooth="yes"/>
      <point x="517.741" y="704.0"/>
      <point x="465.741" y="720.0"/>
      <point x="394.741" y="720.0" type="curve" smooth="yes"/>
      <point x="44.731" y="720.0" type="line"/>
      <point x="44.731" y="669.995" type="line"/>
      <point x="128.731" y="648.995" type="line"/>
      <point x="128.731" y="71.005" type="line"/>
      <point x="44.731" y="50.005" type="line"/>
      <point x="44.731" y="0.0" type="line"/>
      <point x="357.741" y="0.0" type="line" smooth="yes"/>
      <point x="456.741" y="0.0"/>
      <point x="504.741" y="8.0"/>
      <point x="541.741" y="27.0" type="curve" smooth="yes"/>
      <point x="601.741" y="57.0"/>
      <point x="645.741" y="126.0"/>
      <point x="645.741" y="201.0" type="curve" smooth="yes"/>
      <point x="645.741" y="298.0"/>
      <point x="581.741" y="368.0"/>
      <point x="477.741" y="390.0" type="curve"/>
      <point x="477.741" y="394.0" type="line"/>
      <point x="554.741" y="404.0"/>
      <point x="611.741" y="470.0"/>
    </contour>
    <contour>
      <point x="356.731" y="343.264" type="line" smooth="yes"/>
      <point x="414.731" y="343.264"/>
      <point x="450.731" y="333.797"/>
      <point x="474.731" y="314.264" type="curve" smooth="yes"/>
      <point x="501.731" y="292.198"/>
      <point x="520.731" y="256.467"/>
      <point x="520.731" y="208.335" type="curve" smooth="yes"/>
      <point x="520.731" y="151.604"/>
      <point x="495.731" y="107.604"/>
      <point x="459.731" y="88.005" type="curve" smooth="yes"/>
      <point x="434.731" y="73.005"/>
      <point x="399.731" y="67.005"/>
      <point x="338.731" y="67.005" type="curve" smooth="yes"/>
      <point x="242.741" y="67.005" type="line"/>
      <point x="242.741" y="343.264" type="line"/>
    </contour>
    <contour>
      <point x="242.741" y="654.995" type="line"/>
      <point x="357.731" y="654.995" type="line" smooth="yes"/>
      <point x="403.731" y="654.995"/>
      <point x="436.731" y="644.995"/>
      <point x="456.731" y="624.995" type="curve" smooth="yes"/>
      <point x="476.731" y="605.929"/>
      <point x="493.731" y="573.797"/>
      <point x="493.731" y="534.665" type="curve" smooth="yes"/>
      <point x="493.731" y="495.0"/>
      <point x="476.731" y="462.868"/>
      <point x="456.731" y="443.269" type="curve" smooth="yes"/>
      <point x="434.731" y="420.269"/>
      <point x="399.731" y="408.269"/>
      <point x="353.731" y="408.269" type="curve" smooth="yes"/>
      <point x="242.741" y="408.269" type="line"/>
    </contour>
  </outline>
</glyph>
<glyph name="C" format="2">
  <advance width="691"/>
  <unicode hex="0043"/>
  <anchor x="384.335" y="720.0" name="topcap"/>
  <anchor x="379.335" y="0" name="bottom"/>
  <outline>
    <contour>
      <point x="373.802" y="668.995" type="curve" smooth="yes"/>
      <point x="480.33" y="668.995"/>
      <point x="548.33" y="608.995"/>
      <point x="567.33" y="491.995" type="curve"/>
      <point x="642.34" y="491.995" type="line"/>
      <point x="642.34" y="720.0" type="line"/>
      <point x="573.33" y="720.0" type="line"/>
      <point x="553.33" y="657.0" type="line"/>
      <point x="502.33" y="712.0"/>
      <point x="458.33" y="730.0"/>
      <point x="375.33" y="730.0" type="curve" smooth="yes"/>
      <point x="290.33" y="730.0"/>
      <point x="226.33" y="710.0"/>
      <point x="174.33" y="667.0" type="curve" smooth="yes"/>
      <point x="94.33" y="601.0"/>
      <point x="48.33" y="487.0"/>
      <point x="48.33" y="353.0" type="curve" smooth="yes"/>
      <point x="48.33" y="234.0"/>
      <point x="84.33" y="134.0"/>
      <point x="149.33" y="70.0" type="curve" smooth="yes"/>
      <point x="203.33" y="17.0"/>
      <point x="277.33" y="-10.0"/>
      <point x="369.33" y="-10.0" type="curve" smooth="yes"/>
      <point x="532.269" y="-10.0"/>
      <point x="625.939" y="68.335"/>
      <point x="657.34" y="230.005" type="curve"/>
      <point x="588.33" y="230.005" type="line"/>
      <point x="569.33" y="119.005"/>
      <point x="500.132" y="61.005"/>
      <point x="384.934" y="61.005" type="curve" smooth="yes"/>
      <point x="314.472" y="61.005"/>
      <point x="264.071" y="83.67"/>
      <point x="231.34" y="135.0" type="curve" smooth="yes"/>
      <point x="195.34" y="191.0"/>
      <point x="174.34" y="277.0"/>
      <point x="174.34" y="372.0" type="curve" smooth="yes"/>
      <point x="174.34" y="470.198"/>
      <point x="200.208" y="554.995"/>
      <point x="238.34" y="606.995" type="curve" smooth="yes"/>
      <point x="268.472" y="648.061"/>
      <point x="315.34" y="668.995"/>
    </contour>
  </outline>
</glyph>
<glyph name="D" format="2">
  <advance width="772"/>
  <unicode hex="0044"/>
  <anchor x="330.736" y="720.0" name="topcap"/>
  <anchor x="330.736" y="0" name="bottom"/>
  <outline>
    <contour>
      <point x="242.741" y="67.005" type="line"/>
      <point x="242.741" y="652.995" type="line"/>
      <point x="373.731" y="652.995" type="line" smooth="yes"/>
      <point x="450.731" y="652.995"/>
      <point x="504.264" y="628.528"/>
      <point x="539.731" y="578.995" type="curve" smooth="yes"/>
      <point x="576.264" y="528.929"/>
      <point x="594.731" y="453.731"/>
      <point x="594.731" y="354.0" type="curve" smooth="yes"/>
      <point x="594.731" y="252.269"/>
      <point x="576.264" y="179.071"/>
      <point x="539.731" y="133.005" type="curve" smooth="yes"/>
      <point x="505.264" y="88.472"/>
      <point x="455.731" y="67.005"/>
      <point x="383.731" y="67.005" type="curve" smooth="yes"/>
    </contour>
    <contour>
      <point x="44.731" y="720.0" type="line"/>
      <point x="44.731" y="669.995" type="line"/>
      <point x="128.731" y="648.995" type="line"/>
      <point x="128.731" y="71.005" type="line"/>
      <point x="44.731" y="50.005" type="line"/>
      <point x="44.731" y="0.0" type="line"/>
      <point x="385.741" y="0.0" type="line" smooth="yes"/>
      <point x="491.741" y="0.0"/>
      <point x="567.741" y="28.0"/>
      <point x="623.741" y="87.0" type="curve" smooth="yes"/>
      <point x="686.741" y="153.0"/>
      <point x="723.741" y="256.0"/>
      <point x="723.741" y="368.0" type="curve" smooth="yes"/>
      <point x="723.741" y="474.0"/>
      <point x="688.741" y="572.0"/>
      <point x="626.741" y="636.0" type="curve" smooth="yes"/>
      <point x="570.741" y="693.0"/>
      <point x="495.741" y="720.0"/>
      <point x="394.741" y="720.0" type="curve" smooth="yes"/>
    </contour>
  </outline>
</glyph>
<glyph name="E" format="2">
  <advance width="691"/>
  <unicode hex="0045"/>
  <anchor x="349.736" y="720.0" name="topcap"/>
  <anchor x="356.736" y="0" name="bottom"/>
  <outline>
    <contour>
      <point x="482.741" y="238.0" type="line"/>
      <point x="482.741" y="502.0" type="line"/>
      <point x="417.731" y="502.0" type="line"/>
      <point x="400.198" y="403.269" type="line"/>
      <point x="247.741" y="403.269" type="line"/>
      <point x="247.741" y="654.995" type="line"/>
      <point x="520.132" y="654.995" type="line"/>
      <point x="550.731" y="508.0" type="line"/>
      <point x="616.741" y="508.0" type="line"/>
      <point x="616.741" y="720.0" type="line"/>
      <point x="39.731" y="720.0" type="line"/>
      <point x="39.731" y="669.995" type="line"/>
      <point x="133.731" y="648.995" type="line"/>
      <point x="133.731" y="71.005" type="line"/>
      <point x="39.731" y="50.005" type="line"/>
      <point x="39.731" y="0.0" type="line"/>
      <point x="638.741" y="0.0" type="line"/>
      <point x="638.741" y="223.0" type="line"/>
      <point x="566.731" y="223.0" type="line"/>
      <point x="537.132" y="67.005" type="line"/>
      <point x="247.741" y="67.005" type="line"/>
      <point x="247.741" y="336.264" type="line"/>
      <point x="400.198" y="336.264" type="line"/>
      <point x="417.731" y="238.0" type="line"/>
    </contour>
  </outline>
</glyph>
<glyph name="F" format="2">
  <advance width="643"/>
  <unicode hex="0046"/>
  <outline>
    <contour>
      <point x="483.208" y="227.0" type="line"/>
      <point x="483.208" y="491.0" type="line"/>
      <point x="418.198" y="491.0" type="line"/>
      <point x="401.198" y="392.269" type="line"/>
      <point x="248.208" y="392.269" type="line"/>
      <point x="248.208" y="654.995" type="line"/>
      <point x="517.198" y="654.995" type="line"/>
      <point x="549.198" y="506.0" type="line"/>
      <point x="617.208" y="506.0" type="line"/>
      <point x="617.208" y="720.0" type="line"/>
      <point x="40.198" y="720.0" type="line"/>
      <point x="40.198" y="669.995" type="line"/>
      <point x="134.198" y="648.995" type="line"/>
      <point x="134.198" y="74.005" type="line"/>
      <point x="40.198" y="50.005" type="line"/>
      <point x="40.198" y="0.0" type="line"/>
      <point x="365.208" y="0.0" type="line"/>
      <point x="365.208" y="55.005" type="line"/>
      <point x="248.208" y="74.005" type="line"/>
      <point x="248.208" y="325.264" type="line"/>
      <point x="401.198" y="325.264" type="line"/>
      <point x="418.198" y="227.0" type="line"/>
    </contour>
  </outline>
</glyph>
<glyph name="G" format="2">
  <advance width="759"/>
  <unicode hex="0047"/>
  <anchor x="376.335" y="720.0" name="topcap"/>
  <anchor x="375.335" y="0" name="bottom"/>
  <outline>
    <contour>
      <point x="376.401" y="62.005" type="curve" smooth="yes"/>
      <point x="315.939" y="62.005"/>
      <point x="271.071" y="80.137"/>
      <point x="240.34" y="122.0" type="curve" smooth="yes"/>
      <point x="197.34" y="180.0"/>
      <point x="173.34" y="269.335"/>
      <point x="173.34" y="366.0" type="curve" smooth="yes"/>
      <point x="173.34" y="462.0"/>
      <point x="199.142" y="549.665"/>
      <point x="236.675" y="605.665" type="curve" smooth="yes"/>
      <point x="267.807" y="647.995"/>
      <point x="309.005" y="668.995"/>
      <point x="372.736" y="668.995" type="curve" smooth="yes"/>
      <point x="484.0" y="668.995"/>
      <point x="548.797" y="604.325"/>
      <point x="567.33" y="491.995" type="curve"/>
      <point x="642.34" y="491.995" type="line"/>
      <point x="642.34" y="720.0" type="line"/>
      <point x="573.33" y="720.0" type="line"/>
      <point x="552.264" y="654.269" type="line"/>
      <point x="502.264" y="708.868"/>
      <point x="453.0" y="730.0"/>
      <point x="373.0" y="730.0" type="curve" smooth="yes"/>
      <point x="276.33" y="730.0"/>
      <point x="203.33" y="701.0"/>
      <point x="149.33" y="644.0" type="curve" smooth="yes"/>
      <point x="85.33" y="577.0"/>
      <point x="48.33" y="470.0"/>
      <point x="48.33" y="352.0" type="curve" smooth="yes"/>
      <point x="48.33" y="236.0"/>
      <point x="83.33" y="137.0"/>
      <point x="145.33" y="74.0" type="curve" smooth="yes"/>
      <point x="199.33" y="19.0"/>
      <point x="274.33" y="-10.0"/>
      <point x="364.33" y="-10.0" type="curve" smooth="yes"/>
      <point x="448.33" y="-10.0"/>
      <point x="505.33" y="15.0"/>
      <point x="563.33" y="79.0" type="curve"/>
      <point x="588.33" y="0.0" type="line"/>
      <point x="654.34" y="0.0" type="line"/>
      <point x="654.34" y="285.995" type="line"/>
      <point x="738.34" y="306.995" type="line"/>
      <point x="738.34" y="359.0" type="line"/>
      <point x="456.33" y="359.0" type="line"/>
      <point x="456.33" y="306.995" type="line"/>
      <point x="540.33" y="285.995" type="line"/>
      <point x="540.33" y="230.005" type="line" smooth="yes"/>
      <point x="540.33" y="119.005"/>
      <point x="489.401" y="62.005"/>
    </contour>
  </outline>
</glyph>
<glyph name="H" format="2">
  <advance width="810"/>
  <unicode hex="0048"/>
  <anchor x="408.736" y="720.0" name="topcap"/>
  <anchor x="407.736" y="0" name="bottom"/>
  <outline>
    <contour>
      <point x="681.741" y="648.995" type="line"/>
      <point x="765.741" y="669.995" type="line"/>
      <point x="765.741" y="720.0" type="line"/>
      <point x="483.731" y="720.0" type="line"/>
      <point x="483.731" y="669.995" type="line"/>
      <point x="567.731" y="648.995" type="line"/>
      <point x="567.731" y="402.269" type="line"/>
      <point x="242.741" y="402.269" type="line"/>
      <point x="242.741" y="648.995" type="line"/>
      <point x="326.741" y="669.995" type="line"/>
      <point x="326.741" y="720.0" type="line"/>
      <point x="44.731" y="720.0" type="line"/>
      <point x="44.731" y="669.995" type="line"/>
      <point x="128.731" y="648.995" type="line"/>
      <point x="128.731" y="71.005" type="line"/>
      <point x="44.731" y="50.005" type="line"/>
      <point x="44.731" y="0.0" type="line"/>
      <point x="326.741" y="0.0" type="line"/>
      <point x="326.741" y="50.005" type="line"/>
      <point x="242.741" y="71.005" type="line"/>
      <point x="242.741" y="337.264" type="line"/>
      <point x="567.731" y="337.264" type="line"/>
      <point x="567.731" y="71.005" type="line"/>
      <point x="483.731" y="50.005" type="line"/>
      <point x="483.731" y="0.0" type="line"/>
      <point x="765.741" y="0.0" type="line"/>
      <point x="765.741" y="50.005" type="line"/>
      <point x="681.741" y="71.005" type="line"/>
    </contour>
  </outline>
</glyph>
<glyph name="I" format="2">
  <advance width="381"/>
  <unicode hex="0049"/>
  <anchor x="190.736" y="720.0" name="topcap"/>
  <anchor x="191.736" y="0" name="bottom"/>
  <outline>
    <contour>
      <point x="247.741" y="648.995" type="line"/>
      <point x="341.741" y="669.995" type="line"/>
      <point x="341.741" y="720.0" type="line"/>
      <point x="39.731" y="720.0" type="line"/>
      <point x="39.731" y="669.995" type="line"/>
      <point x="133.731" y="648.995" type="line"/>
      <point x="133.731" y="71.005" type="line"/>
      <point x="39.731" y="50.005" type="line"/>
      <point x="39.731" y="0.0" type="line"/>
      <point x="341.741" y="0.0" type="line"/>
      <point x="341.741" y="50.005" type="line"/>
      <point x="247.741" y="71.005" type="line"/>
    </contour>
  </outline>
</glyph>
<glyph name="J" format="2">
  <advance width="590"/>
  <unicode hex="004A"/>
  <anchor x="419.335" y="720.0" name="topcap"/>
  <outline>
    <contour>
      <point x="360.33" y="207.0" type="line" smooth="yes"/>
      <point x="360.33" y="104.67"/>
      <point x="317.797" y="54.005"/>
      <point x="233.604" y="54.005" type="curve" smooth="yes"/>
      <point x="161.538" y="54.005"/>
      <point x="116.609" y="83.736"/>
      <point x="113.34" y="123.0" type="curve"/>
      <point x="136.34" y="134.0"/>
      <point x="156.34" y="170.0"/>
      <point x="156.34" y="201.0" type="curve" smooth="yes"/>
      <point x="156.34" y="240.203"/>
      <point x="128.071" y="266.005"/>
      <point x="85.868" y="266.005" type="curve" smooth="yes"/>
      <point x="37.665" y="266.005"/>
      <point x="13.33" y="230.467"/>
      <point x="13.33" y="172.665" type="curve" smooth="yes"/>
      <point x="13.33" y="63.599"/>
      <point x="104.934" y="-11.0"/>
      <point x="238.34" y="-11.0" type="curve" smooth="yes"/>
      <point x="380.34" y="-11.0"/>
      <point x="474.34" y="80.0"/>
      <point x="474.34" y="218.0" type="curve" smooth="yes"/>
      <point x="474.34" y="648.995" type="line"/>
      <point x="553.34" y="669.995" type="line"/>
      <point x="553.34" y="720.0" type="line"/>
      <point x="261.33" y="720.0" type="line"/>
      <point x="261.33" y="669.995" type="line"/>
      <point x="360.33" y="648.995" type="line"/>
    </contour>
  </outline>
</glyph>
<glyph name="K" format="2">
  <advance width="744"/>
  <unicode hex="004B"/>
  <anchor x="388.736" y="0" name="bottom"/>
  <outline>
    <contour>
      <point x="247.741" y="648.995" type="line"/>
      <point x="331.741" y="669.995" type="line"/>
      <point x="331.741" y="720.0" type="line"/>
      <point x="39.731" y="720.0" type="line"/>
      <point x="39.731" y="669.995" type="line"/>
      <point x="133.731" y="648.995" type="line"/>
      <point x="133.731" y="71.005" type="line"/>
      <point x="39.731" y="50.005" type="line"/>
      <point x="39.731" y="0.0" type="line"/>
      <point x="331.741" y="0.0" type="line"/>
      <point x="331.741" y="50.005" type="line"/>
      <point x="247.741" y="71.005" type="line"/>
      <point x="247.741" y="296.0" type="line"/>
      <point x="302.802" y="348.528" type="line"/>
      <point x="528.127" y="70.005" type="line"/>
      <point x="462.127" y="50.005" type="line"/>
      <point x="462.127" y="0.0" type="line"/>
      <point x="755.137" y="0.0" type="line"/>
      <point x="755.137" y="50.005" type="line"/>
      <point x="671.137" y="69.005" type="line"/>
      <point x="377.741" y="424.0" type="line"/>
      <point x="604.736" y="648.995" type="line"/>
      <point x="692.736" y="669.995" type="line"/>
      <point x="692.736" y="720.0" type="line"/>
      <point x="415.726" y="720.0" type="line"/>
      <point x="415.726" y="669.995" type="line"/>
      <point x="506.726" y="648.995" type="line"/>
      <point x="247.741" y="380.477" type="line"/>
    </contour>
  </outline>
</glyph>
<glyph name="L" format="2">
  <advance width="636"/>
  <unicode hex="004C"/>
  <anchor x="189.736" y="720.0" name="topcap"/>
  <anchor x="337.736" y="0" name="bottom"/>
  <outline>
    <contour>
      <point x="247.741" y="648.995" type="line"/>
      <point x="351.741" y="669.995" type="line"/>
      <point x="351.741" y="720.0" type="line"/>
      <point x="39.731" y="720.0" type="line"/>
      <point x="39.731" y="669.995" type="line"/>
      <point x="133.731" y="648.995" type="line"/>
      <point x="133.731" y="71.005" type="line"/>
      <point x="39.731" y="50.005" type="line"/>
      <point x="39.731" y="0.0" type="line"/>
      <point x="608.741" y="0.0" type="line"/>
      <point x="608.741" y="240.005" type="line"/>
      <point x="539.731" y="240.005" type="line"/>
      <point x="505.731" y="67.005" type="line"/>
      <point x="247.741" y="67.005" type="line"/>
    </contour>
  </outline>
</glyph>
<glyph name="M" format="2">
  <advance width="968"/>
  <unicode hex="004D"/>
  <outline>
    <contour>
      <point x="486.0" y="98.005" type="line"/>
      <point x="482.0" y="98.005" type="line"/>
      <point x="296.741" y="720.0" type="line"/>
      <point x="44.731" y="720.0" type="line"/>
      <point x="44.731" y="669.995" type="line"/>
      <point x="128.731" y="648.995" type="line"/>
      <point x="128.731" y="71.005" type="line"/>
      <point x="44.731" y="50.005" type="line"/>
      <point x="44.731" y="0.0" type="line"/>
      <point x="280.741" y="0.0" type="line"/>
      <point x="280.741" y="50.005" type="line"/>
      <point x="207.741" y="71.005" type="line"/>
      <point x="207.741" y="647.995" type="line"/>
      <point x="401.731" y="0.0" type="line"/>
      <point x="530.939" y="0.0" type="line"/>
      <point x="725.731" y="647.995" type="line"/>
      <point x="725.731" y="71.005" type="line"/>
      <point x="652.731" y="50.005" type="line"/>
      <point x="652.731" y="0.0" type="line"/>
      <point x="923.741" y="0.0" type="line"/>
      <point x="923.741" y="50.005" type="line"/>
      <point x="839.741" y="71.005" type="line"/>
      <point x="839.741" y="648.995" type="line"/>
      <point x="923.741" y="669.995" type="line"/>
      <point x="923.741" y="720.0" type="line"/>
      <point x="675.731" y="720.0" type="line"/>
    </contour>
  </outline>
</glyph>
<glyph name="N" format="2">
  <advance width="808"/>
  <unicode hex="004E"/>
  <anchor x="403.736" y="720.0" name="topcap"/>
  <anchor x="403.736" y="0" name="bottom"/>
  <outline>
    <contour>
      <point x="128.731" y="71.005" type="line"/>
      <point x="44.731" y="50.005" type="line"/>
      <point x="44.731" y="0.0" type="line"/>
      <point x="291.741" y="0.0" type="line"/>
      <point x="291.741" y="50.005" type="line"/>
      <point x="207.741" y="71.005" type="line"/>
      <point x="207.741" y="587.325" type="line"/>
      <point x="599.061" y="0.0" type="line"/>
      <point x="688.741" y="0.0" type="line"/>
      <point x="688.741" y="648.995" type="line"/>
      <point x="772.741" y="669.995" type="line"/>
      <point x="772.741" y="720.0" type="line"/>
      <point x="525.731" y="720.0" type="line"/>
      <point x="525.731" y="669.995" type="line"/>
      <point x="609.731" y="648.995" type="line"/>
      <point x="609.731" y="178.675" type="line"/>
      <point x="254.411" y="720.0" type="line"/>
      <point x="44.731" y="720.0" type="line"/>
      <point x="44.731" y="669.995" type="line"/>
      <point x="128.731" y="648.995" type="line"/>
    </contour>
  </outline>
</glyph>
<glyph name="O" format="2">
  <advance width="769"/>
  <unicode hex="004F"/>
  <anchor x="384.335" y="720.0" name="topcap"/>
  <anchor x="382.335" y="0" name="bottom"/>
  <outline>
    <contour>
      <point x="720.34" y="368.0" type="curve" smooth="yes"/>
      <point x="720.34" y="476.731"/>
      <point x="688.609" y="579.665"/>
      <point x="623.34" y="646.0" type="curve" smooth="yes"/>
      <point x="566.005" y="703.934"/>
      <point x="488.137" y="730.0"/>
      <point x="384.335" y="730.0" type="curve" smooth="yes"/>
      <point x="278.198" y="730.0"/>
      <point x="204.33" y="703.0"/>
      <point x="148.33" y="643.0" type="curve" smooth="yes"/>
      <point x="85.33" y="575.0"/>
      <point x="48.33" y="468.0"/>
      <point x="48.33" y="352.0" type="curve" smooth="yes"/>
      <point x="48.33" y="237.132"/>
      <point x="84.731" y="136.132"/>
      <point x="144.33" y="74.0" type="curve" smooth="yes"/>
      <point x="197.264" y="18.0"/>
      <point x="275.731" y="-10.0"/>
      <point x="381.868" y="-10.0" type="curve" smooth="yes"/>
      <point x="487.472" y="-10.0"/>
      <point x="564.406" y="18.0"/>
      <point x="620.34" y="77.0" type="curve" smooth="yes"/>
      <point x="686.142" y="146.868"/>
      <point x="720.34" y="254.335"/>
    </contour>
    <contour>
      <point x="177.34" y="371.533" type="curve" smooth="yes"/>
      <point x="177.34" y="476.396"/>
      <point x="195.807" y="553.995"/>
      <point x="232.807" y="602.995" type="curve" smooth="yes"/>
      <point x="265.406" y="645.594"/>
      <point x="313.604" y="668.995"/>
      <point x="380.868" y="668.995" type="curve" smooth="yes"/>
      <point x="448.731" y="668.995"/>
      <point x="501.33" y="644.995"/>
      <point x="536.33" y="594.995" type="curve" smooth="yes"/>
      <point x="571.863" y="543.929"/>
      <point x="591.33" y="461.665"/>
      <point x="591.33" y="354.0" type="curve" smooth="yes"/>
      <point x="591.33" y="245.335"/>
      <point x="571.863" y="166.071"/>
      <point x="536.797" y="118.005" type="curve" smooth="yes"/>
      <point x="503.731" y="73.472"/>
      <point x="455.599" y="52.005"/>
      <point x="387.335" y="52.005" type="curve" smooth="yes"/>
      <point x="313.604" y="52.005"/>
      <point x="264.406" y="76.939"/>
      <point x="231.34" y="126.472" type="curve" smooth="yes"/>
      <point x="197.274" y="179.071"/>
      <point x="177.34" y="263.802"/>
    </contour>
  </outline>
</glyph>
<glyph name="P" format="2">
  <advance width="638"/>
  <unicode hex="0050"/>
  <outline>
    <contour>
      <point x="242.741" y="344.269" type="line"/>
      <point x="242.741" y="654.995" type="line"/>
      <point x="348.731" y="654.995" type="line" smooth="yes"/>
      <point x="386.731" y="654.995"/>
      <point x="421.731" y="641.528"/>
      <point x="443.731" y="618.995" type="curve" smooth="yes"/>
      <point x="471.731" y="587.863"/>
      <point x="491.731" y="543.929"/>
      <point x="491.731" y="496.731" type="curve" smooth="yes"/>
      <point x="491.731" y="446.132"/>
      <point x="470.731" y="402.335"/>
      <point x="443.731" y="375.269" type="curve" smooth="yes"/>
      <point x="424.731" y="356.269"/>
      <point x="389.731" y="344.269"/>
      <point x="352.731" y="344.269" type="curve" smooth="yes"/>
    </contour>
    <contour>
      <point x="388.741" y="279.264" type="line" smooth="yes"/>
      <point x="448.741" y="279.264"/>
      <point x="502.741" y="295.396"/>
      <point x="537.741" y="328.731" type="curve" smooth="yes"/>
      <point x="583.741" y="369.731"/>
      <point x="615.741" y="440.0"/>
      <point x="615.741" y="506.0" type="curve" smooth="yes"/>
      <point x="615.741" y="570.0"/>
      <point x="585.741" y="630.0"/>
      <point x="539.741" y="672.0" type="curve" smooth="yes"/>
      <point x="505.741" y="703.0"/>
      <point x="451.741" y="720.0"/>
      <point x="389.741" y="720.0" type="curve" smooth="yes"/>
      <point x="44.731" y="720.0" type="line"/>
      <point x="44.731" y="669.995" type="line"/>
      <point x="128.731" y="648.995" type="line"/>
      <point x="128.731" y="71.005" type="line"/>
      <point x="44.731" y="50.005" type="line"/>
      <point x="44.731" y="0.0" type="line"/>
      <point x="337.741" y="0.0" type="line"/>
      <point x="337.741" y="50.005" type="line"/>
      <point x="242.741" y="71.005" type="line"/>
      <point x="242.741" y="279.264" type="line"/>
    </contour>
  </outline>
</glyph>
<glyph name="Q" format="2">
  <advance width="769"/>
  <unicode hex="0051"/>
  <outline>
    <contour>
      <point x="720.34" y="368.0" type="curve" smooth="yes"/>
      <point x="720.34" y="480.0"/>
      <point x="685.807" y="582.467"/>
      <point x="623.34" y="646.0" type="curve" smooth="yes"/>
      <point x="566.939" y="703.467"/>
      <point x="488.604" y="730.0"/>
      <point x="384.335" y="730.0" type="curve" smooth="yes"/>
      <point x="279.066" y="730.0"/>
      <point x="205.731" y="703.467"/>
      <point x="148.33" y="643.0" type="curve" smooth="yes"/>
      <point x="84.863" y="575.467"/>
      <point x="48.33" y="468.0"/>
      <point x="48.33" y="352.0" type="curve" smooth="yes"/>
      <point x="48.33" y="239.0"/>
      <point x="83.33" y="138.0"/>
      <point x="144.33" y="74.0" type="curve" smooth="yes"/>
      <point x="191.33" y="25.0"/>
      <point x="255.33" y="-2.0"/>
      <point x="336.33" y="-8.0" type="curve"/>
      <point x="396.33" y="-109.0" type="line" smooth="yes"/>
      <point x="426.33" y="-160.0"/>
      <point x="485.33" y="-185.0"/>
      <point x="559.33" y="-185.0" type="curve" smooth="yes"/>
      <point x="621.198" y="-185.0"/>
      <point x="665.0" y="-167.132"/>
      <point x="691.934" y="-120.396" type="curve"/>
      <point x="673.132" y="-87.325" type="line"/>
      <point x="651.731" y="-105.061"/>
      <point x="639.198" y="-110.995"/>
      <point x="616.33" y="-110.995" type="curve" smooth="yes"/>
      <point x="588.33" y="-110.995"/>
      <point x="559.33" y="-102.462"/>
      <point x="535.33" y="-86.995" type="curve" smooth="yes"/>
      <point x="422.34" y="-13.0" type="line"/>
      <point x="422.34" y="-9.0" type="line"/>
      <point x="504.873" y="-3.0"/>
      <point x="570.873" y="24.0"/>
      <point x="620.34" y="77.0" type="curve" smooth="yes"/>
      <point x="683.807" y="145.0"/>
      <point x="720.34" y="252.0"/>
    </contour>
    <contour>
      <point x="177.34" y="374.0" type="curve" smooth="yes"/>
      <point x="177.34" y="479.731"/>
      <point x="195.34" y="556.396"/>
      <point x="232.34" y="602.995" type="curve" smooth="yes"/>
      <point x="264.939" y="646.995"/>
      <point x="313.604" y="668.995"/>
      <point x="381.335" y="668.995" type="curve" smooth="yes"/>
      <point x="452.066" y="668.995"/>
      <point x="502.731" y="644.995"/>
      <point x="536.33" y="594.995" type="curve" smooth="yes"/>
      <point x="572.33" y="544.396"/>
      <point x="591.33" y="460.731"/>
      <point x="591.33" y="354.0" type="curve" smooth="yes"/>
      <point x="591.33" y="246.269"/>
      <point x="572.33" y="165.604"/>
      <point x="536.33" y="118.005" type="curve" smooth="yes"/>
      <point x="504.731" y="74.005"/>
      <point x="455.066" y="52.005"/>
      <point x="386.335" y="52.005" type="curve" smooth="yes"/>
      <point x="313.604" y="52.005"/>
      <point x="262.939" y="76.005"/>
      <point x="231.34" y="126.005" type="curve" smooth="yes"/>
      <point x="196.34" y="176.604"/>
      <point x="177.34" y="264.269"/>
    </contour>
  </outline>
</glyph>
<glyph name="R" format="2">
  <advance width="711"/>
  <unicode hex="0052"/>
  <anchor x="312.736" y="720.0" name="topcap"/>
  <anchor x="384.736" y="0" name="bottom"/>
  <outline>
    <contour>
      <point x="553.741" y="382.0" type="curve" smooth="yes"/>
      <point x="600.274" y="418.0"/>
      <point x="629.741" y="476.0"/>
      <point x="629.741" y="532.0" type="curve" smooth="yes"/>
      <point x="629.741" y="588.0"/>
      <point x="600.274" y="649.066"/>
      <point x="551.741" y="682.0" type="curve" smooth="yes"/>
      <point x="513.208" y="708.467"/>
      <point x="466.741" y="720.0"/>
      <point x="402.741" y="720.0" type="curve" smooth="yes"/>
      <point x="44.731" y="720.0" type="line"/>
      <point x="44.731" y="669.995" type="line"/>
      <point x="128.731" y="648.995" type="line"/>
      <point x="128.731" y="71.005" type="line"/>
      <point x="44.731" y="50.005" type="line"/>
      <point x="44.731" y="0.0" type="line"/>
      <point x="337.741" y="0.0" type="line"/>
      <point x="337.741" y="50.005" type="line"/>
      <point x="242.741" y="71.005" type="line"/>
      <point x="242.741" y="319.264" type="line"/>
      <point x="352.599" y="319.264" type="line"/>
      <point x="490.528" y="50.005" type="line"/>
      <point x="490.528" y="0.0" type="line"/>
      <point x="710.538" y="0.0" type="line"/>
      <point x="710.538" y="50.005" type="line"/>
      <point x="621.538" y="69.005" type="line"/>
      <point x="492.741" y="287.0" type="line" smooth="yes"/>
      <point x="478.741" y="310.0"/>
      <point x="463.807" y="328.066"/>
      <point x="454.142" y="337.731" type="curve"/>
      <point x="500.142" y="347.665"/>
      <point x="529.741" y="363.0"/>
    </contour>
    <contour>
      <point x="242.741" y="384.269" type="line"/>
      <point x="242.741" y="654.995" type="line"/>
      <point x="367.731" y="654.995" type="line" smooth="yes"/>
      <point x="409.731" y="654.995"/>
      <point x="438.731" y="647.528"/>
      <point x="461.731" y="628.995" type="curve" smooth="yes"/>
      <point x="489.264" y="605.929"/>
      <point x="505.731" y="569.198"/>
      <point x="505.731" y="526.0" type="curve" smooth="yes"/>
      <point x="505.731" y="480.401"/>
      <point x="489.731" y="438.802"/>
      <point x="462.731" y="415.269" type="curve" smooth="yes"/>
      <point x="439.731" y="395.269"/>
      <point x="407.731" y="384.269"/>
      <point x="371.731" y="384.269" type="curve" smooth="yes"/>
    </contour>
  </outline>
</glyph>
<glyph name="S" format="2">
  <advance width="606"/>
  <unicode hex="0053"/>
  <anchor x="291.269" y="720.0" name="topcap"/>
  <anchor x="324.269" y="0" name="bottom"/>
  <outline>
    <contour>
      <point x="321.467" y="-11.0" type="curve" smooth="yes"/>
      <point x="456.868" y="-11.0"/>
      <point x="556.274" y="59.132"/>
      <point x="556.274" y="187.269" type="curve" smooth="yes"/>
      <point x="556.274" y="289.0"/>
      <point x="494.076" y="342.599"/>
      <point x="327.142" y="415.934" type="curve" smooth="yes"/>
      <point x="212.477" y="465.934"/>
      <point x="180.274" y="485.0"/>
      <point x="180.274" y="553.401" type="curve" smooth="yes"/>
      <point x="180.274" y="630.33"/>
      <point x="222.137" y="669.995"/>
      <point x="306.066" y="669.995" type="curve" smooth="yes"/>
      <point x="406.264" y="669.995"/>
      <point x="452.264" y="612.594"/>
      <point x="452.264" y="485.995" type="curve"/>
      <point x="523.274" y="485.995" type="line"/>
      <point x="523.274" y="720.0" type="line"/>
      <point x="453.264" y="720.0" type="line"/>
      <point x="445.264" y="675.0" type="line"/>
      <point x="403.264" y="713.0"/>
      <point x="349.264" y="731.0"/>
      <point x="284.264" y="731.0" type="curve" smooth="yes"/>
      <point x="151.264" y="731.0"/>
      <point x="65.264" y="656.467"/>
      <point x="65.264" y="529.066" type="curve" smooth="yes"/>
      <point x="65.264" y="412.599"/>
      <point x="135.198" y="369.731"/>
      <point x="261.264" y="318.264" type="curve" smooth="yes"/>
      <point x="370.929" y="273.731"/>
      <point x="441.264" y="238.467"/>
      <point x="441.264" y="154.868" type="curve" smooth="yes"/>
      <point x="441.264" y="85.203"/>
      <point x="392.264" y="51.005"/>
      <point x="306.67" y="51.005" type="curve" smooth="yes"/>
      <point x="201.543" y="51.005"/>
      <point x="145.274" y="103.736"/>
      <point x="137.274" y="234.005" type="curve"/>
      <point x="62.264" y="234.005" type="line"/>
      <point x="62.264" y="0.0" type="line"/>
      <point x="132.274" y="0.0" type="line"/>
      <point x="143.274" y="58.0" type="line"/>
      <point x="185.34" y="12.132"/>
      <point x="243.868" y="-11.0"/>
    </contour>
  </outline>
</glyph>
<glyph name="T" format="2">
  <advance width="665"/>
  <unicode hex="0054"/>
  <anchor x="330.736" y="0" name="bottom"/>
  <outline>
    <contour>
      <point x="27.731" y="720.0" type="line"/>
      <point x="27.731" y="502.995" type="line"/>
      <point x="85.335" y="502.995" type="line"/>
      <point x="116.335" y="652.995" type="line"/>
      <point x="275.731" y="652.995" type="line"/>
      <point x="275.731" y="74.005" type="line"/>
      <point x="169.731" y="50.005" type="line"/>
      <point x="169.731" y="0.0" type="line"/>
      <point x="495.741" y="0.0" type="line"/>
      <point x="495.741" y="50.005" type="line"/>
      <point x="389.741" y="74.005" type="line"/>
      <point x="389.741" y="652.995" type="line"/>
      <point x="548.137" y="652.995" type="line"/>
      <point x="580.137" y="502.995" type="line"/>
      <point x="637.741" y="502.995" type="line"/>
      <point x="637.741" y="720.0" type="line"/>
    </contour>
  </outline>
</glyph>
<glyph name="U" format="2">
  <advance width="778"/>
  <unicode hex="0055"/>
  <anchor x="408.269" y="720.0" name="topcap"/>
  <anchor x="408.269" y="0" name="bottom"/>
  <outline>
    <contour>
      <point x="588.264" y="266.005" type="line" smooth="yes"/>
      <point x="588.264" y="115.005"/>
      <point x="535.264" y="51.005"/>
      <point x="410.264" y="51.005" type="curve" smooth="yes"/>
      <point x="286.604" y="51.005"/>
      <point x="226.274" y="122.005"/>
      <point x="226.274" y="268.005" type="curve" smooth="yes"/>
      <point x="226.274" y="648.995" type="line"/>
      <point x="310.274" y="669.995" type="line"/>
      <point x="310.274" y="720.0" type="line"/>
      <point x="28.264" y="720.0" type="line"/>
      <point x="28.264" y="669.995" type="line"/>
      <point x="112.264" y="648.995" type="line"/>
      <point x="112.264" y="244.0" type="line" smooth="yes"/>
      <point x="112.264" y="81.0"/>
      <point x="211.264" y="-11.0"/>
      <point x="388.264" y="-11.0" type="curve" smooth="yes"/>
      <point x="569.604" y="-11.0"/>
      <point x="665.274" y="77.0"/>
      <point x="665.274" y="243.0" type="curve" smooth="yes"/>
      <point x="665.274" y="648.995" type="line"/>
      <point x="749.274" y="669.995" type="line"/>
      <point x="749.274" y="720.0" type="line"/>
      <point x="504.264" y="720.0" type="line"/>
      <point x="504.264" y="669.995" type="line"/>
      <point x="588.264" y="648.995" type="line"/>
    </contour>
  </outline>
</glyph>
<glyph name="V" format="2">
  <advance width="720"/>
  <unicode hex="0056"/>
  <outline>
    <contour>
      <point x="190.208" y="648.995" type="line"/>
      <point x="272.208" y="669.995" type="line"/>
      <point x="272.208" y="720.0" type="line"/>
      <point x="-11.802" y="720.0" type="line"/>
      <point x="-11.802" y="669.995" type="line"/>
      <point x="68.198" y="648.995" type="line"/>
      <point x="308.863" y="0.0" type="line"/>
      <point x="420.873" y="0.0" type="line"/>
      <point x="642.538" y="648.995" type="line"/>
      <point x="724.538" y="669.995" type="line"/>
      <point x="724.538" y="720.0" type="line"/>
      <point x="476.528" y="720.0" type="line"/>
      <point x="476.528" y="669.995" type="line"/>
      <point x="559.528" y="648.995" type="line"/>
      <point x="381.0" y="99.345" type="line"/>
      <point x="377.0" y="99.345" type="line"/>
    </contour>
  </outline>
</glyph>
<glyph name="W" format="2">
  <advance width="1046"/>
  <unicode hex="0057"/>
  <anchor x="525.802" y="720.0" name="topcap"/>
  <outline>
    <contour>
      <point x="737.0" y="109.411" type="line"/>
      <point x="733.0" y="109.411" type="line"/>
      <point x="580.675" y="648.995" type="line"/>
      <point x="672.675" y="669.995" type="line"/>
      <point x="672.675" y="720.0" type="line"/>
      <point x="394.665" y="720.0" type="line"/>
      <point x="394.665" y="669.995" type="line"/>
      <point x="472.665" y="648.995" type="line"/>
      <point x="483.797" y="596.0" type="line"/>
      <point x="352.467" y="109.878" type="line"/>
      <point x="348.467" y="109.878" type="line"/>
      <point x="194.208" y="648.995" type="line"/>
      <point x="290.208" y="669.995" type="line"/>
      <point x="290.208" y="720.0" type="line"/>
      <point x="-7.802" y="720.0" type="line"/>
      <point x="-7.802" y="669.995" type="line"/>
      <point x="70.198" y="648.995" type="line"/>
      <point x="276.797" y="0.0" type="line"/>
      <point x="394.807" y="0.0" type="line"/>
      <point x="521.269" y="457.65" type="line"/>
      <point x="660.797" y="0.0" type="line"/>
      <point x="778.807" y="0.0" type="line"/>
      <point x="966.472" y="648.995" type="line"/>
      <point x="1049.472" y="669.995" type="line"/>
      <point x="1049.472" y="720.0" type="line"/>
      <point x="806.462" y="720.0" type="line"/>
      <point x="806.462" y="669.995" type="line"/>
      <point x="885.462" y="649.995" type="line"/>
    </contour>
  </outline>
</glyph>
<glyph name="X" format="2">
  <advance width="741"/>
  <unicode hex="0058"/>
  <outline>
    <contour>
      <point x="342.675" y="669.995" type="line"/>
      <point x="342.675" y="720.0" type="line"/>
      <point x="11.665" y="720.0" type="line"/>
      <point x="11.665" y="669.995" type="line"/>
      <point x="117.665" y="648.995" type="line"/>
      <point x="308.462" y="358.0" type="line"/>
      <point x="102.599" y="71.005" type="line"/>
      <point x="9.599" y="50.005" type="line"/>
      <point x="9.599" y="0.0" type="line"/>
      <point x="295.609" y="0.0" type="line"/>
      <point x="295.609" y="50.005" type="line"/>
      <point x="186.609" y="71.005" type="line"/>
      <point x="351.0" y="304.726" type="line"/>
      <point x="497.259" y="71.005" type="line"/>
      <point x="394.259" y="50.005" type="line"/>
      <point x="396.259" y="0.0" type="line"/>
      <point x="737.269" y="0.0" type="line"/>
      <point x="737.269" y="50.005" type="line"/>
      <point x="631.269" y="71.005" type="line"/>
      <point x="421.472" y="386.0" type="line"/>
      <point x="622.802" y="648.995" type="line"/>
      <point x="720.802" y="669.995" type="line"/>
      <point x="720.802" y="720.0" type="line"/>
      <point x="443.792" y="720.0" type="line"/>
      <point x="443.792" y="669.995" type="line"/>
      <point x="534.792" y="648.995" type="line"/>
      <point x="378.467" y="441.34" type="line"/>
      <point x="248.675" y="648.995" type="line"/>
    </contour>
  </outline>
</glyph>
<glyph name="Y" format="2">
  <advance width="680"/>
  <unicode hex="0059"/>
  <anchor x="359.934" y="721.0" name="topcap"/>
  <outline>
    <contour>
      <point x="359.467" y="348.609" type="line"/>
      <point x="198.675" y="648.995" type="line"/>
      <point x="282.675" y="669.995" type="line"/>
      <point x="282.675" y="720.0" type="line"/>
      <point x="-7.335" y="720.0" type="line"/>
      <point x="-7.335" y="669.995" type="line"/>
      <point x="75.665" y="648.995" type="line"/>
      <point x="286.929" y="266.0" type="line"/>
      <point x="286.929" y="71.005" type="line"/>
      <point x="192.929" y="50.005" type="line"/>
      <point x="192.929" y="0.0" type="line"/>
      <point x="494.939" y="0.0" type="line"/>
      <point x="494.939" y="50.005" type="line"/>
      <point x="400.939" y="71.005" type="line"/>
      <point x="400.939" y="282.0" type="line"/>
      <point x="601.203" y="648.995" type="line"/>
      <point x="683.203" y="669.995" type="line"/>
      <point x="683.203" y="720.0" type="line"/>
      <point x="442.193" y="720.0" type="line"/>
      <point x="442.193" y="669.995" type="line"/>
      <point x="523.193" y="648.995" type="line"/>
    </contour>
  </outline>
</glyph>
<glyph name="Z" format="2">
  <advance width="653"/>
  <unicode hex="005A"/>
  <guideline x="63.0" y="0" angle="90.0" identifier="2eeMh7ZjBB"/>
  <guideline x="572.0" y="0" angle="90.0" identifier="1S3RkmM0Bj"/>
  <anchor x="331.802" y="720.0" name="topcap"/>
  <anchor x="338.802" y="0" name="bottom"/>
  <outline>
    <contour>
      <point x="506.797" y="67.005" type="line"/>
      <point x="165.944" y="67.005" type="line"/>
      <point x="586.807" y="659.0" type="line"/>
      <point x="586.807" y="720.0" type="line"/>
      <point x="63.797" y="720.0" type="line"/>
      <point x="63.797" y="500.995" type="line"/>
      <point x="129.807" y="500.995" type="line"/>
      <point x="161.807" y="652.995" type="line"/>
      <point x="453.66" y="652.995" type="line"/>
      <point x="32.797" y="61.0" type="line"/>
      <point x="32.797" y="0.0" type="line"/>
      <point x="609.807" y="0.0" type="line"/>
      <point x="609.807" y="230.005" type="line"/>
      <point x="538.797" y="230.005" type="line"/>
    </contour>
  </outline>
</glyph>
<glyph name="bracketleft" format="2">
  <advance width="375"/>
  <unicode hex="005B"/>
  <outline>
    <contour>
      <point x="88.797" y="-149.0" type="line"/>
      <point x="353.807" y="-149.0" type="line"/>
      <point x="353.807" y="-82.462" type="line"/>
      <point x="191.807" y="-82.462" type="line"/>
      <point x="191.807" y="787.995" type="line"/>
      <point x="353.807" y="787.995" type="line"/>
      <point x="353.807" y="855.0" type="line"/>
      <point x="88.797" y="855.0" type="line"/>
    </contour>
  </outline>
</glyph>
<glyph name="backslash" format="2">
  <advance width="315"/>
  <unicode hex="005C"/>
  <outline>
    <contour>
      <point x="119.807" y="730.0" type="line"/>
      <point x="48.797" y="730.0" type="line"/>
      <point x="194.797" y="-10.0" type="line"/>
      <point x="265.807" y="-10.0" type="line"/>
    </contour>
  </outline>
</glyph>
<glyph name="bracketright" format="2">
  <advance width="375"/>
  <unicode hex="005D"/>
  <outline>
    <contour>
      <point x="286.208" y="855.0" type="line"/>
      <point x="21.198" y="855.0" type="line"/>
      <point x="21.198" y="787.995" type="line"/>
      <point x="183.198" y="787.995" type="line"/>
      <point x="183.198" y="-82.462" type="line"/>
      <point x="21.198" y="-82.462" type="line"/>
      <point x="21.198" y="-149.0" type="line"/>
      <point x="286.208" y="-149.0" type="line"/>
    </contour>
  </outline>
</glyph>
<glyph name="asciicircum" format="2">
  <advance width="387"/>
  <unicode hex="005E"/>
  <anchor x="193.335" y="639.0" name="_top"/>
  <outline>
    <contour>
      <point x="336.34" y="639.0" type="line"/>
      <point x="269.33" y="639.0" type="line"/>
      <point x="193.335" y="722.995" type="line"/>
      <point x="117.34" y="639.0" type="line"/>
      <point x="50.33" y="639.0" type="line"/>
      <point x="138.33" y="790.0" type="line"/>
      <point x="247.34" y="790.0" type="line"/>
    </contour>
  </outline>
</glyph>
<glyph name="underscore" format="2">
  <advance width="624"/>
  <unicode hex="005F"/>
  <outline>
    <contour>
      <point x="64.797" y="-65.005" type="line"/>
      <point x="558.797" y="-65.005" type="line"/>
      <point x="558.797" y="7.005000000000001" type="line"/>
      <point x="64.797" y="7.005000000000001" type="line"/>
    </contour>
  </outline>
</glyph>
<glyph name="grave" format="2">
  <advance width="259"/>
  <unicode hex="0060"/>
  <anchor x="191.0" y="639.0" name="_top"/>
  <outline>
    <contour>
      <point x="177.005" y="715.0" type="line" smooth="yes"/>
      <point x="137.604" y="776.401"/>
      <point x="117.67" y="795.467"/>
      <point x="85.0" y="795.467" type="curve" smooth="yes"/>
      <point x="49.995" y="795.467"/>
      <point x="34.863" y="780.264"/>
      <point x="34.863" y="757.198" type="curve" smooth="yes"/>
      <point x="34.863" y="737.198"/>
      <point x="57.528" y="713.0"/>
      <point x="120.995" y="667.0" type="curve" smooth="yes"/>
      <point x="158.995" y="639.0" type="line"/>
      <point x="226.005" y="639.0" type="line"/>
    </contour>
  </outline>
</glyph>
<glyph name="a" format="2">
  <advance width="543"/>
  <unicode hex="0061"/>
  <anchor x="247.269" y="639.0" name="top"/>
  <anchor x="425.269" y="0" name="bottom"/>
  <outline>
    <contour>
      <point x="34.264" y="117.467" type="curve" smooth="yes"/>
      <point x="34.264" y="38.0"/>
      <point x="85.264" y="-10.0"/>
      <point x="169.264" y="-10.0" type="curve" smooth="yes"/>
      <point x="247.264" y="-10.0"/>
      <point x="320.264" y="31.0"/>
      <point x="361.264" y="99.0" type="curve"/>
      <point x="365.264" y="99.0" type="line"/>
      <point x="365.264" y="13.066"/>
      <point x="376.264" y="-10.0"/>
      <point x="418.665" y="-10.0" type="curve" smooth="yes"/>
      <point x="447.066" y="-10.0"/>
      <point x="490.203" y="0.0"/>
      <point x="543.274" y="19.0" type="curve"/>
      <point x="543.274" y="56.005" type="line"/>
      <point x="498.274" y="56.005" type="line" smooth="yes"/>
      <point x="469.274" y="56.005"/>
      <point x="463.274" y="77.005"/>
      <point x="463.274" y="143.005" type="curve" smooth="yes"/>
      <point x="463.274" y="281.0" type="line" smooth="yes"/>
      <point x="463.274" y="384.599"/>
      <point x="440.472" y="457.599"/>
      <point x="393.335" y="501.934" type="curve" smooth="yes"/>
      <point x="361.802" y="531.599"/>
      <point x="312.467" y="550.0"/>
      <point x="254.198" y="550.0" type="curve" smooth="yes"/>
      <point x="162.264" y="550.0"/>
      <point x="61.264" y="503.0"/>
      <point x="61.264" y="420.467" type="curve" smooth="yes"/>
      <point x="61.264" y="380.533"/>
      <point x="85.198" y="354.33"/>
      <point x="121.868" y="354.33" type="curve" smooth="yes"/>
      <point x="158.071" y="354.33"/>
      <point x="187.274" y="380.0"/>
      <point x="187.274" y="413.0" type="curve" smooth="yes"/>
      <point x="187.274" y="429.665"/>
      <point x="179.208" y="453.132"/>
      <point x="161.208" y="465.264" type="curve"/>
      <point x="170.274" y="485.863"/>
      <point x="200.538" y="498.995"/>
      <point x="233.335" y="498.995" type="curve" smooth="yes"/>
      <point x="271.868" y="498.995"/>
      <point x="301.731" y="480.594"/>
      <point x="320.264" y="447.995" type="curve" smooth="yes"/>
      <point x="335.264" y="421.462"/>
      <point x="343.264" y="385.665"/>
      <point x="349.264" y="313.269" type="curve"/>
      <point x="127.533" y="279.269"/>
      <point x="34.264" y="224.269"/>
    </contour>
    <contour>
      <point x="220.137" y="55.005" type="curve" smooth="yes"/>
      <point x="180.609" y="55.005"/>
      <point x="151.274" y="82.868"/>
      <point x="151.274" y="140.335" type="curve" smooth="yes"/>
      <point x="151.274" y="212.599"/>
      <point x="197.472" y="245.132"/>
      <point x="348.264" y="276.731" type="curve"/>
      <point x="350.264" y="257.665"/>
      <point x="352.264" y="235.599"/>
      <point x="352.264" y="216.401" type="curve" smooth="yes"/>
      <point x="352.264" y="167.335"/>
      <point x="338.995" y="131.802"/>
      <point x="321.264" y="109.071" type="curve" smooth="yes"/>
      <point x="294.665" y="74.538"/>
      <point x="252.934" y="55.005"/>
    </contour>
  </outline>
</glyph>
<glyph name="b" format="2">
  <advance width="608"/>
  <unicode hex="0062"/>
  <guideline x="78.0" y="0" angle="90.0" identifier="k6Re6bvD15"/>
  <outline>
    <contour>
      <point x="565.274" y="275.0" type="curve" smooth="yes"/>
      <point x="565.274" y="360.0"/>
      <point x="541.274" y="436.0"/>
      <point x="500.274" y="487.0" type="curve" smooth="yes"/>
      <point x="465.274" y="531.0"/>
      <point x="408.274" y="550.0"/>
      <point x="340.274" y="550.0" type="curve" smooth="yes"/>
      <point x="279.274" y="550.0"/>
      <point x="230.274" y="533.0"/>
      <point x="190.274" y="482.0" type="curve"/>
      <point x="190.274" y="780.0" type="line"/>
      <point x="2.264" y="780.0" type="line"/>
      <point x="2.264" y="731.995" type="line"/>
      <point x="79.264" y="712.995" type="line"/>
      <point x="79.264" y="0.0" type="line"/>
      <point x="140.274" y="0.0" type="line"/>
      <point x="170.274" y="101.0" type="line"/>
      <point x="211.274" y="16.0"/>
      <point x="264.274" y="-10.0"/>
      <point x="332.274" y="-10.0" type="curve" smooth="yes"/>
      <point x="402.274" y="-10.0"/>
      <point x="456.274" y="12.0"/>
      <point x="493.274" y="55.0" type="curve" smooth="yes"/>
      <point x="538.274" y="107.0"/>
      <point x="565.274" y="188.0"/>
    </contour>
    <contour>
      <point x="190.274" y="272.132" type="curve" smooth="yes"/>
      <point x="190.274" y="352.665"/>
      <point x="204.208" y="408.929"/>
      <point x="225.274" y="444.995" type="curve" smooth="yes"/>
      <point x="244.208" y="477.863"/>
      <point x="279.208" y="490.995"/>
      <point x="320.538" y="490.995" type="curve" smooth="yes"/>
      <point x="367.269" y="490.995"/>
      <point x="394.401" y="472.462"/>
      <point x="413.599" y="437.995" type="curve" smooth="yes"/>
      <point x="433.797" y="400.462"/>
      <point x="446.264" y="339.995"/>
      <point x="446.264" y="261.863" type="curve" smooth="yes"/>
      <point x="446.264" y="187.0"/>
      <point x="435.797" y="130.939"/>
      <point x="413.665" y="96.472" type="curve" smooth="yes"/>
      <point x="394.533" y="67.406"/>
      <point x="365.604" y="49.005"/>
      <point x="321.538" y="49.005" type="curve" smooth="yes"/>
      <point x="274.807" y="49.005"/>
      <point x="246.274" y="68.472"/>
      <point x="225.274" y="102.005" type="curve" smooth="yes"/>
      <point x="203.675" y="136.67"/>
      <point x="190.274" y="191.599"/>
    </contour>
  </outline>
</glyph>
<glyph name="c" format="2">
  <advance width="541"/>
  <unicode hex="0063"/>
  <anchor x="304.802" y="639.0" name="top"/>
  <anchor x="286.802" y="0" name="bottom"/>
  <outline>
    <contour>
      <point x="301.066" y="550.0" type="curve" smooth="yes"/>
      <point x="141.396" y="550.0"/>
      <point x="41.797" y="437.467"/>
      <point x="41.797" y="264.467" type="curve" smooth="yes"/>
      <point x="41.797" y="202.0"/>
      <point x="54.797" y="145.0"/>
      <point x="77.797" y="102.0" type="curve" smooth="yes"/>
      <point x="116.797" y="29.0"/>
      <point x="185.863" y="-10.0"/>
      <point x="281.665" y="-10.0" type="curve" smooth="yes"/>
      <point x="374.665" y="-10.0"/>
      <point x="450.604" y="26.132"/>
      <point x="507.807" y="110.0" type="curve"/>
      <point x="466.599" y="142.406" type="line"/>
      <point x="426.599" y="90.604"/>
      <point x="363.396" y="64.005"/>
      <point x="305.665" y="64.005" type="curve" smooth="yes"/>
      <point x="249.401" y="64.005"/>
      <point x="210.472" y="89.137"/>
      <point x="186.807" y="134.0" type="curve" smooth="yes"/>
      <point x="170.274" y="165.599"/>
      <point x="160.807" y="207.929"/>
      <point x="160.807" y="276.198" type="curve" smooth="yes"/>
      <point x="160.807" y="430.467"/>
      <point x="209.274" y="491.995"/>
      <point x="306.599" y="491.995" type="curve" smooth="yes"/>
      <point x="357.396" y="491.995"/>
      <point x="395.731" y="475.462"/>
      <point x="414.797" y="444.0" type="curve"/>
      <point x="382.863" y="434.533"/>
      <point x="364.797" y="408.533"/>
      <point x="364.797" y="375.533" type="curve" smooth="yes"/>
      <point x="364.797" y="340.467"/>
      <point x="385.462" y="309.995"/>
      <point x="430.0" y="309.995" type="curve" smooth="yes"/>
      <point x="473.802" y="309.995"/>
      <point x="501.807" y="339.33"/>
      <point x="501.807" y="394.0" type="curve" smooth="yes"/>
      <point x="501.807" y="488.0"/>
      <point x="419.802" y="550.0"/>
    </contour>
  </outline>
</glyph>
<glyph name="d" format="2">
  <advance width="627"/>
  <unicode hex="0064"/>
  <anchor x="278.269" y="0" name="bottom"/>
  <outline>
    <contour>
      <point x="42.264" y="266.868" type="curve" smooth="yes"/>
      <point x="42.264" y="179.066"/>
      <point x="69.198" y="102.665"/>
      <point x="111.264" y="53.0" type="curve" smooth="yes"/>
      <point x="146.797" y="10.868"/>
      <point x="199.061" y="-10.0"/>
      <point x="269.396" y="-10.0" type="curve" smooth="yes"/>
      <point x="335.731" y="-10.0"/>
      <point x="387.264" y="10.0"/>
      <point x="428.264" y="72.0" type="curve"/>
      <point x="436.264" y="-10.0" type="line"/>
      <point x="605.274" y="0.0" type="line"/>
      <point x="605.274" y="48.005" type="line"/>
      <point x="528.274" y="67.005" type="line"/>
      <point x="528.274" y="780.0" type="line"/>
      <point x="340.264" y="780.0" type="line"/>
      <point x="340.264" y="731.995" type="line"/>
      <point x="417.264" y="712.995" type="line"/>
      <point x="417.264" y="472.0" type="line"/>
      <point x="378.264" y="530.0"/>
      <point x="330.731" y="550.0"/>
      <point x="270.33" y="550.0" type="curve" smooth="yes"/>
      <point x="201.731" y="550.0"/>
      <point x="148.264" y="527.0"/>
      <point x="110.264" y="485.0" type="curve" smooth="yes"/>
      <point x="66.665" y="436.401"/>
      <point x="42.264" y="354.335"/>
    </contour>
    <contour>
      <point x="417.264" y="266.0" type="curve" smooth="yes"/>
      <point x="417.264" y="190.137"/>
      <point x="404.264" y="130.604"/>
      <point x="382.731" y="95.005" type="curve" smooth="yes"/>
      <point x="363.33" y="63.071"/>
      <point x="328.33" y="49.005"/>
      <point x="289.335" y="49.005" type="curve" smooth="yes"/>
      <point x="244.939" y="49.005"/>
      <point x="213.137" y="68.472"/>
      <point x="193.005" y="102.472" type="curve" smooth="yes"/>
      <point x="173.274" y="136.736"/>
      <point x="161.274" y="196.736"/>
      <point x="161.274" y="275.335" type="curve" smooth="yes"/>
      <point x="161.274" y="349.264"/>
      <point x="170.807" y="410.929"/>
      <point x="191.538" y="443.995" type="curve" smooth="yes"/>
      <point x="211.604" y="476.33"/>
      <point x="247.538" y="490.528"/>
      <point x="286.467" y="490.528" type="curve" smooth="yes"/>
      <point x="332.731" y="490.528"/>
      <point x="362.198" y="471.995"/>
      <point x="382.731" y="438.929" type="curve" smooth="yes"/>
      <point x="403.863" y="405.198"/>
      <point x="417.264" y="345.132"/>
    </contour>
  </outline>
</glyph>
<glyph name="e" format="2">
  <advance width="550"/>
  <unicode hex="0065"/>
  <anchor x="280.797" y="639.0" name="top"/>
  <anchor x="277.797" y="0" name="bottom"/>
  <outline>
    <contour>
      <point x="506.807" y="260.264" type="line"/>
      <point x="509.807" y="288.132"/>
      <point x="509.807" y="297.066"/>
      <point x="509.807" y="311.0" type="curve" smooth="yes"/>
      <point x="509.807" y="460.0"/>
      <point x="426.269" y="550.0"/>
      <point x="286.066" y="550.0" type="curve" smooth="yes"/>
      <point x="133.396" y="550.0"/>
      <point x="42.797" y="443.0"/>
      <point x="42.797" y="256.467" type="curve" smooth="yes"/>
      <point x="42.797" y="198.0"/>
      <point x="51.797" y="147.0"/>
      <point x="71.797" y="106.0" type="curve" smooth="yes"/>
      <point x="108.797" y="30.0"/>
      <point x="181.863" y="-10.0"/>
      <point x="276.665" y="-10.0" type="curve" smooth="yes"/>
      <point x="386.802" y="-10.0"/>
      <point x="456.274" y="42.467"/>
      <point x="503.274" y="107.868" type="curve"/>
      <point x="461.0" y="140.274" type="line"/>
      <point x="420.0" y="91.071"/>
      <point x="363.33" y="64.005"/>
      <point x="302.198" y="64.005" type="curve" smooth="yes"/>
      <point x="246.533" y="64.005"/>
      <point x="201.472" y="88.472"/>
      <point x="177.807" y="143.0" type="curve" smooth="yes"/>
      <point x="164.807" y="173.066"/>
      <point x="157.807" y="211.665"/>
      <point x="157.807" y="260.264" type="curve"/>
    </contour>
    <contour>
      <point x="281.934" y="488.995" type="curve" smooth="yes"/>
      <point x="353.731" y="488.995"/>
      <point x="394.797" y="437.33"/>
      <point x="394.797" y="346.0" type="curve" smooth="yes"/>
      <point x="394.797" y="316.269" type="line"/>
      <point x="158.807" y="316.269" type="line"/>
      <point x="166.34" y="431.665"/>
      <point x="206.604" y="488.995"/>
    </contour>
  </outline>
</glyph>
<glyph name="f" format="2">
  <advance width="375"/>
  <unicode hex="0066"/>
  <outline>
    <contour>
      <point x="17.533" y="475.99" type="line"/>
      <point x="114.533" y="475.99" type="line"/>
      <point x="114.533" y="67.005" type="line"/>
      <point x="37.533" y="48.005" type="line"/>
      <point x="37.533" y="0.0" type="line"/>
      <point x="333.543" y="0.0" type="line"/>
      <point x="333.543" y="48.005" type="line"/>
      <point x="225.543" y="67.005" type="line"/>
      <point x="225.543" y="475.99" type="line"/>
      <point x="353.543" y="475.99" type="line"/>
      <point x="353.543" y="540.0" type="line"/>
      <point x="225.543" y="540.0" type="line"/>
      <point x="225.543" y="590.0" type="line" smooth="yes"/>
      <point x="225.543" y="650.198"/>
      <point x="225.543" y="708.462"/>
      <point x="269.609" y="735.929" type="curve" smooth="yes"/>
      <point x="280.675" y="742.462"/>
      <point x="292.741" y="744.995"/>
      <point x="305.873" y="744.995" type="curve" smooth="yes"/>
      <point x="321.137" y="744.995"/>
      <point x="334.736" y="739.528"/>
      <point x="344.401" y="726.995" type="curve"/>
      <point x="333.934" y="713.33"/>
      <point x="328.401" y="697.665"/>
      <point x="328.401" y="682.0" type="curve" smooth="yes"/>
      <point x="328.401" y="647.198"/>
      <point x="350.269" y="627.33"/>
      <point x="386.873" y="627.33" type="curve" smooth="yes"/>
      <point x="421.675" y="627.33"/>
      <point x="443.543" y="649.198"/>
      <point x="443.543" y="689.0" type="curve" smooth="yes"/>
      <point x="443.543" y="747.0"/>
      <point x="392.543" y="790.0"/>
      <point x="313.543" y="790.0" type="curve" smooth="yes"/>
      <point x="192.137" y="790.0"/>
      <point x="114.533" y="705.335"/>
      <point x="114.533" y="557.005" type="curve" smooth="yes"/>
      <point x="114.533" y="539.066" type="line"/>
      <point x="17.533" y="525.066" type="line"/>
    </contour>
  </outline>
</glyph>
<glyph name="g" format="2">
  <advance width="567"/>
  <unicode hex="0067"/>
  <anchor x="263.802" y="639.0" name="top"/>
  <outline>
    <contour>
      <point x="516.807" y="-8.132" type="curve" smooth="yes"/>
      <point x="516.807" y="79.868"/>
      <point x="459.807" y="120.736"/>
      <point x="350.807" y="120.736" type="curve" smooth="yes"/>
      <point x="234.807" y="120.736" type="line" smooth="yes"/>
      <point x="166.741" y="120.736"/>
      <point x="146.807" y="128.802"/>
      <point x="146.807" y="156.533" type="curve" smooth="yes"/>
      <point x="146.807" y="187.066"/>
      <point x="176.01" y="205.198"/>
      <point x="229.076" y="212.731" type="curve"/>
      <point x="242.076" y="211.731"/>
      <point x="255.076" y="210.731"/>
      <point x="269.076" y="210.731" type="curve" smooth="yes"/>
      <point x="397.076" y="210.731"/>
      <point x="470.807" y="277.132"/>
      <point x="470.807" y="384.0" type="curve" smooth="yes"/>
      <point x="470.807" y="419.198"/>
      <point x="462.675" y="448.863"/>
      <point x="446.01" y="472.995" type="curve"/>
      <point x="475.807" y="472.995" type="line"/>
      <point x="545.807" y="464.995" type="line"/>
      <point x="562.807" y="464.995" type="line"/>
      <point x="562.807" y="560.0" type="line"/>
      <point x="545.807" y="560.0" type="line"/>
      <point x="453.807" y="516.0" type="line"/>
      <point x="419.807" y="504.0" type="line"/>
      <point x="382.939" y="534.0"/>
      <point x="335.741" y="550.0"/>
      <point x="261.132" y="550.0" type="curve" smooth="yes"/>
      <point x="131.995" y="550.0"/>
      <point x="54.797" y="484.0"/>
      <point x="54.797" y="378.0" type="curve" smooth="yes"/>
      <point x="54.797" y="305.0"/>
      <point x="94.132" y="249.731"/>
      <point x="162.467" y="229.0" type="curve"/>
      <point x="93.33" y="212.604"/>
      <point x="64.797" y="167.599"/>
      <point x="64.797" y="127.066" type="curve" smooth="yes"/>
      <point x="64.797" y="88.0"/>
      <point x="88.132" y="63.467"/>
      <point x="135.467" y="50.0" type="curve"/>
      <point x="135.467" y="46.0" type="line"/>
      <point x="65.33" y="39.269"/>
      <point x="25.797" y="3.0"/>
      <point x="25.797" y="-58.533" type="curve" smooth="yes"/>
      <point x="25.797" y="-144.538"/>
      <point x="117.071" y="-184.0"/>
      <point x="257.863" y="-184.0" type="curve" smooth="yes"/>
      <point x="429.076" y="-184.0"/>
      <point x="516.807" y="-119.939"/>
    </contour>
    <contour>
      <point x="292.797" y="36.731" type="line" smooth="yes"/>
      <point x="394.33" y="36.731"/>
      <point x="430.797" y="18.665"/>
      <point x="430.797" y="-31.533" type="curve" smooth="yes"/>
      <point x="430.797" y="-94.33"/>
      <point x="372.599" y="-126.995"/>
      <point x="264.736" y="-126.995" type="curve" smooth="yes"/>
      <point x="164.005" y="-126.995"/>
      <point x="114.807" y="-97.33"/>
      <point x="114.807" y="-43.0" type="curve" smooth="yes"/>
      <point x="114.807" y="4.132"/>
      <point x="152.807" y="36.731"/>
      <point x="241.807" y="36.731" type="curve" smooth="yes"/>
    </contour>
    <contour>
      <point x="156.807" y="382.0" type="curve" smooth="yes"/>
      <point x="156.807" y="457.33"/>
      <point x="190.873" y="496.995"/>
      <point x="260.467" y="496.995" type="curve" smooth="yes"/>
      <point x="335.198" y="496.995"/>
      <point x="368.797" y="457.33"/>
      <point x="368.797" y="382.0" type="curve" smooth="yes"/>
      <point x="368.797" y="304.335"/>
      <point x="335.198" y="263.269"/>
      <point x="260.467" y="263.269" type="curve" smooth="yes"/>
      <point x="191.34" y="263.269"/>
      <point x="156.807" y="304.335"/>
    </contour>
  </outline>
</glyph>
<glyph name="h" format="2">
  <advance width="651"/>
  <unicode hex="0068"/>
  <anchor x="366.203" y="639.0" name="top"/>
  <anchor x="327.203" y="0" name="bottom"/>
  <outline>
    <contour>
      <point x="445.198" y="67.005" type="line"/>
      <point x="378.198" y="48.005" type="line"/>
      <point x="378.198" y="0.0" type="line"/>
      <point x="633.208" y="0.0" type="line"/>
      <point x="633.208" y="48.005" type="line"/>
      <point x="556.208" y="67.005" type="line"/>
      <point x="556.208" y="281.0" type="line" smooth="yes"/>
      <point x="556.208" y="395.0"/>
      <point x="541.472" y="460.868"/>
      <point x="508.467" y="500.67" type="curve" smooth="yes"/>
      <point x="481.599" y="532.802"/>
      <point x="439.868" y="550.0"/>
      <point x="385.0" y="550.0" type="curve" smooth="yes"/>
      <point x="312.736" y="550.0"/>
      <point x="247.406" y="510.0"/>
      <point x="210.208" y="446.0" type="curve"/>
      <point x="210.208" y="780.0" type="line"/>
      <point x="22.198" y="780.0" type="line"/>
      <point x="22.198" y="731.995" type="line"/>
      <point x="99.198" y="712.995" type="line"/>
      <point x="99.198" y="67.005" type="line"/>
      <point x="22.198" y="48.005" type="line"/>
      <point x="22.198" y="0.0" type="line"/>
      <point x="277.208" y="0.0" type="line"/>
      <point x="277.208" y="48.005" type="line"/>
      <point x="210.208" y="67.005" type="line"/>
      <point x="210.208" y="323.995" type="line"/>
      <point x="211.807" y="372.726"/>
      <point x="222.939" y="404.792"/>
      <point x="243.533" y="427.056" type="curve" smooth="yes"/>
      <point x="266.731" y="455.193"/>
      <point x="304.198" y="471.995"/>
      <point x="341.198" y="471.995" type="curve" smooth="yes"/>
      <point x="382.198" y="471.995"/>
      <point x="413.198" y="454.995"/>
      <point x="429.198" y="422.995" type="curve" smooth="yes"/>
      <point x="441.198" y="398.528"/>
      <point x="445.198" y="361.995"/>
      <point x="445.198" y="275.995" type="curve" smooth="yes"/>
    </contour>
  </outline>
</glyph>
<glyph name="i" format="2">
  <advance width="321"/>
  <unicode hex="0069"/>
  <guideline x="111.0" y="0" angle="90.0" identifier="vSaGMjAhdJ"/>
  <guideline x="208.0" y="0" angle="90.0" identifier="JknFNMV5ER"/>
  <anchor x="167.67" y="0" name="bottom"/>
  <outline>
    <contour>
      <point x="110.665" y="472.995" type="line"/>
      <point x="110.665" y="67.005" type="line"/>
      <point x="33.665" y="48.005" type="line"/>
      <point x="33.665" y="0.0" type="line"/>
      <point x="298.675" y="0.0" type="line"/>
      <point x="298.675" y="48.005" type="line"/>
      <point x="221.675" y="67.005" type="line"/>
      <point x="221.675" y="540.0" type="line"/>
      <point x="33.665" y="540.0" type="line"/>
      <point x="33.665" y="491.995" type="line"/>
    </contour>
    <contour>
      <point x="98.066" y="696.797" type="curve" smooth="yes"/>
      <point x="98.066" y="655.929"/>
      <point x="122.467" y="630.594"/>
      <point x="165.67" y="630.594" type="curve" smooth="yes"/>
      <point x="208.873" y="630.594"/>
      <point x="234.274" y="656.929"/>
      <point x="234.274" y="696.797" type="curve" smooth="yes"/>
      <point x="234.274" y="736.665"/>
      <point x="207.873" y="764.0"/>
      <point x="165.67" y="764.0" type="curve" smooth="yes"/>
      <point x="123.467" y="764.0"/>
      <point x="98.066" y="737.665"/>
    </contour>
  </outline>
</glyph>
<glyph name="j" format="2">
  <advance width="291"/>
  <unicode hex="006A"/>
  <outline>
    <contour>
      <point x="212.208" y="540.0" type="line"/>
      <point x="24.198" y="540.0" type="line"/>
      <point x="24.198" y="491.995" type="line"/>
      <point x="101.198" y="472.995" type="line"/>
      <point x="101.198" y="-16.994999999999997" type="line" smooth="yes"/>
      <point x="101.198" y="-113.995"/>
      <point x="86.198" y="-145.995"/>
      <point x="47.604" y="-145.995" type="curve" smooth="yes"/>
      <point x="34.076" y="-145.995"/>
      <point x="16.208" y="-142.797"/>
      <point x="14.208" y="-130.995" type="curve"/>
      <point x="25.675" y="-121.396"/>
      <point x="31.142000000000003" y="-105.929"/>
      <point x="31.142000000000003" y="-89.264" type="curve" smooth="yes"/>
      <point x="31.142000000000003" y="-54.264"/>
      <point x="9.406" y="-30.994999999999997"/>
      <point x="-24.863" y="-30.994999999999997" type="curve" smooth="yes"/>
      <point x="-62.934" y="-30.994999999999997"/>
      <point x="-85.802" y="-58.132"/>
      <point x="-85.802" y="-95.0" type="curve" smooth="yes"/>
      <point x="-85.802" y="-153.269"/>
      <point x="-31.0" y="-190.0"/>
      <point x="46.538" y="-190.0" type="curve" smooth="yes"/>
      <point x="113.741" y="-190.0"/>
      <point x="162.873" y="-160.802"/>
      <point x="190.208" y="-101.0" type="curve" smooth="yes"/>
      <point x="206.675" y="-65.0"/>
      <point x="212.208" y="-14.0"/>
      <point x="212.208" y="85.0" type="curve" smooth="yes"/>
    </contour>
    <contour>
      <point x="90.0" y="696.797" type="curve" smooth="yes"/>
      <point x="90.0" y="655.929"/>
      <point x="114.401" y="630.594"/>
      <point x="157.604" y="630.594" type="curve" smooth="yes"/>
      <point x="200.807" y="630.594"/>
      <point x="226.208" y="656.929"/>
      <point x="226.208" y="696.797" type="curve" smooth="yes"/>
      <point x="226.208" y="736.665"/>
      <point x="199.807" y="764.0"/>
      <point x="157.604" y="764.0" type="curve" smooth="yes"/>
      <point x="115.401" y="764.0"/>
      <point x="90.0" y="737.665"/>
    </contour>
  </outline>
</glyph>
<glyph name="k" format="2">
  <advance width="602"/>
  <unicode hex="006B"/>
  <anchor x="319.203" y="0" name="bottom"/>
  <outline>
    <contour>
      <point x="361.594" y="48.005" type="line"/>
      <point x="361.594" y="0.0" type="line"/>
      <point x="594.604" y="0.0" type="line"/>
      <point x="594.604" y="48.005" type="line"/>
      <point x="541.604" y="65.005" type="line"/>
      <point x="348.208" y="325.0" type="line"/>
      <point x="492.67" y="472.995" type="line"/>
      <point x="572.675" y="491.995" type="line"/>
      <point x="572.675" y="540.0" type="line"/>
      <point x="343.665" y="540.0" type="line"/>
      <point x="343.665" y="491.995" type="line"/>
      <point x="403.127" y="473.462" type="line"/>
      <point x="210.208" y="265.477" type="line"/>
      <point x="210.208" y="780.0" type="line"/>
      <point x="22.198" y="780.0" type="line"/>
      <point x="22.198" y="731.995" type="line"/>
      <point x="99.198" y="712.995" type="line"/>
      <point x="99.198" y="67.005" type="line"/>
      <point x="22.198" y="48.005" type="line"/>
      <point x="22.198" y="0.0" type="line"/>
      <point x="287.208" y="0.0" type="line"/>
      <point x="287.208" y="48.005" type="line"/>
      <point x="210.208" y="67.005" type="line"/>
      <point x="210.208" y="204.0" type="line"/>
      <point x="276.868" y="260.061" type="line"/>
      <point x="420.594" y="67.005" type="line"/>
    </contour>
  </outline>
</glyph>
<glyph name="l" format="2">
  <advance width="316"/>
  <unicode hex="006C"/>
  <anchor x="155.736" y="0" name="bottom"/>
  <outline>
    <contour>
      <point x="102.198" y="67.472" type="line"/>
      <point x="25.198" y="48.472" type="line"/>
      <point x="25.198" y="0.0" type="line"/>
      <point x="290.208" y="0.0" type="line"/>
      <point x="290.208" y="48.472" type="line"/>
      <point x="213.208" y="67.472" type="line"/>
      <point x="213.208" y="780.0" type="line"/>
      <point x="25.198" y="780.0" type="line"/>
      <point x="25.198" y="731.528" type="line"/>
      <point x="102.198" y="712.528" type="line"/>
    </contour>
  </outline>
</glyph>
<glyph name="m" format="2">
  <advance width="984"/>
  <unicode hex="006D"/>
  <outline>
    <contour>
      <point x="110.665" y="67.005" type="line"/>
      <point x="33.665" y="48.005" type="line"/>
      <point x="33.665" y="0.0" type="line"/>
      <point x="288.675" y="0.0" type="line"/>
      <point x="288.675" y="48.005" type="line"/>
      <point x="221.675" y="67.005" type="line"/>
      <point x="221.675" y="319.995" type="line"/>
      <point x="224.675" y="374.995"/>
      <point x="237.675" y="407.995"/>
      <point x="266.675" y="434.995" type="curve" smooth="yes"/>
      <point x="291.675" y="457.995"/>
      <point x="321.406" y="469.193"/>
      <point x="355.406" y="469.193" type="curve" smooth="yes"/>
      <point x="386.868" y="469.193"/>
      <point x="414.066" y="454.995"/>
      <point x="428.665" y="422.995" type="curve" smooth="yes"/>
      <point x="439.731" y="398.528"/>
      <point x="444.665" y="361.995"/>
      <point x="444.665" y="275.995" type="curve" smooth="yes"/>
      <point x="444.665" y="67.005" type="line"/>
      <point x="377.665" y="48.005" type="line"/>
      <point x="377.665" y="0.0" type="line"/>
      <point x="622.675" y="0.0" type="line"/>
      <point x="622.675" y="48.005" type="line"/>
      <point x="555.675" y="67.005" type="line"/>
      <point x="555.675" y="319.995" type="line"/>
      <point x="558.675" y="374.995"/>
      <point x="571.675" y="407.995"/>
      <point x="600.675" y="434.995" type="curve" smooth="yes"/>
      <point x="625.675" y="457.995"/>
      <point x="655.406" y="469.193"/>
      <point x="689.406" y="469.193" type="curve" smooth="yes"/>
      <point x="720.868" y="469.193"/>
      <point x="748.066" y="454.995"/>
      <point x="762.665" y="422.995" type="curve" smooth="yes"/>
      <point x="773.731" y="398.528"/>
      <point x="778.665" y="361.995"/>
      <point x="778.665" y="275.995" type="curve" smooth="yes"/>
      <point x="778.665" y="67.005" type="line"/>
      <point x="711.665" y="48.005" type="line"/>
      <point x="711.665" y="0.0" type="line"/>
      <point x="966.675" y="0.0" type="line"/>
      <point x="966.675" y="48.005" type="line"/>
      <point x="889.675" y="67.005" type="line"/>
      <point x="889.675" y="245.0" type="line" smooth="yes"/>
      <point x="889.675" y="390.0"/>
      <point x="881.675" y="454.0"/>
      <point x="857.675" y="492.0" type="curve" smooth="yes"/>
      <point x="834.675" y="528.0"/>
      <point x="789.675" y="550.0"/>
      <point x="736.675" y="550.0" type="curve" smooth="yes"/>
      <point x="659.675" y="550.0"/>
      <point x="586.675" y="505.0"/>
      <point x="544.675" y="430.0" type="curve"/>
      <point x="538.675" y="456.0"/>
      <point x="528.675" y="481.0"/>
      <point x="518.675" y="496.0" type="curve" smooth="yes"/>
      <point x="498.675" y="526.0"/>
      <point x="453.675" y="550.0"/>
      <point x="398.675" y="550.0" type="curve" smooth="yes"/>
      <point x="325.675" y="550.0"/>
      <point x="255.675" y="507.0"/>
      <point x="217.675" y="440.0" type="curve"/>
      <point x="213.675" y="440.0" type="line"/>
      <point x="191.675" y="540.0" type="line"/>
      <point x="33.665" y="540.0" type="line"/>
      <point x="33.665" y="491.995" type="line"/>
      <point x="110.665" y="472.995" type="line"/>
    </contour>
  </outline>
</glyph>
<glyph name="n" format="2">
  <advance width="664"/>
  <unicode hex="006E"/>
  <anchor x="351.67" y="639.0" name="top"/>
  <anchor x="338.67" y="0" name="bottom"/>
  <outline>
    <contour>
      <point x="110.665" y="67.005" type="line"/>
      <point x="33.665" y="48.005" type="line"/>
      <point x="33.665" y="0.0" type="line"/>
      <point x="288.675" y="0.0" type="line"/>
      <point x="288.675" y="48.005" type="line"/>
      <point x="221.675" y="67.005" type="line"/>
      <point x="221.675" y="319.995" type="line"/>
      <point x="224.675" y="374.528"/>
      <point x="238.142" y="409.929"/>
      <point x="266.675" y="435.929" type="curve" smooth="yes"/>
      <point x="290.807" y="457.995"/>
      <point x="323.604" y="470.594"/>
      <point x="358.736" y="470.594" type="curve" smooth="yes"/>
      <point x="396.467" y="470.594"/>
      <point x="425.132" y="455.929"/>
      <point x="440.665" y="422.995" type="curve" smooth="yes"/>
      <point x="452.665" y="397.594"/>
      <point x="456.665" y="359.193"/>
      <point x="456.665" y="275.995" type="curve" smooth="yes"/>
      <point x="456.665" y="67.005" type="line"/>
      <point x="389.665" y="48.005" type="line"/>
      <point x="389.665" y="0.0" type="line"/>
      <point x="644.675" y="0.0" type="line"/>
      <point x="644.675" y="48.005" type="line"/>
      <point x="567.675" y="67.005" type="line"/>
      <point x="567.675" y="281.0" type="line" smooth="yes"/>
      <point x="567.675" y="395.0"/>
      <point x="556.675" y="459.0"/>
      <point x="530.675" y="496.0" type="curve" smooth="yes"/>
      <point x="505.675" y="530.0"/>
      <point x="460.675" y="550.0"/>
      <point x="407.675" y="550.0" type="curve" smooth="yes"/>
      <point x="329.675" y="550.0"/>
      <point x="257.675" y="508.0"/>
      <point x="217.675" y="440.0" type="curve"/>
      <point x="213.675" y="440.0" type="line"/>
      <point x="191.675" y="540.0" type="line"/>
      <point x="33.665" y="540.0" type="line"/>
      <point x="33.665" y="491.995" type="line"/>
      <point x="110.665" y="472.995" type="line"/>
    </contour>
  </outline>
</glyph>
<glyph name="o" format="2">
  <advance width="588"/>
  <unicode hex="006F"/>
  <anchor x="293.802" y="639.0" name="top"/>
  <anchor x="291.802" y="0" name="bottom"/>
  <outline>
    <contour>
      <point x="545.807" y="272.665" type="curve" smooth="yes"/>
      <point x="545.807" y="357.665"/>
      <point x="520.807" y="436.599"/>
      <point x="474.34" y="486.066" type="curve" smooth="yes"/>
      <point x="432.472" y="530.401"/>
      <point x="372.005" y="550.0"/>
      <point x="294.335" y="550.0" type="curve" smooth="yes"/>
      <point x="216.132" y="550.0"/>
      <point x="157.797" y="530.934"/>
      <point x="114.863" y="485.0" type="curve" smooth="yes"/>
      <point x="67.33" y="434.467"/>
      <point x="41.797" y="352.335"/>
      <point x="41.797" y="266.269" type="curve" smooth="yes"/>
      <point x="41.797" y="181.269"/>
      <point x="67.33" y="103.401"/>
      <point x="113.264" y="53.934" type="curve" smooth="yes"/>
      <point x="155.132" y="9.066"/>
      <point x="214.533" y="-10.0"/>
      <point x="292.203" y="-10.0" type="curve" smooth="yes"/>
      <point x="370.939" y="-10.0"/>
      <point x="430.873" y="9.599"/>
      <point x="472.741" y="55.0" type="curve" smooth="yes"/>
      <point x="519.208" y="105.533"/>
      <point x="545.807" y="186.599"/>
    </contour>
    <contour>
      <point x="177.751" y="191.341" type="curve" smooth="yes"/>
      <point x="167.944" y="249.458"/>
      <point x="169.736" y="308.59"/>
      <point x="181.995" y="367.006" type="curve" smooth="yes"/>
      <point x="192.655" y="422.224"/>
      <point x="215.914" y="457.371"/>
      <point x="250.772" y="472.315" type="curve" smooth="yes"/>
      <point x="286.361" y="484.924"/>
      <point x="316.361" y="480.868"/>
      <point x="348.168" y="462.746" type="curve" smooth="yes"/>
      <point x="380.508" y="442.492"/>
      <point x="401.447" y="404.44100000000003"/>
      <point x="409.853" y="349.192" type="curve" smooth="yes"/>
      <point x="419.66" y="291.608"/>
      <point x="418.934" y="230.877"/>
      <point x="406.142" y="173.527" type="curve" smooth="yes"/>
      <point x="394.416" y="118.309"/>
      <point x="370.624" y="82.629"/>
      <point x="336.299" y="67.685" type="curve" smooth="yes"/>
      <point x="300.71" y="55.076"/>
      <point x="271.243" y="59.132"/>
      <point x="239.436" y="77.25399999999999" type="curve" smooth="yes"/>
      <point x="207.096" y="97.508"/>
      <point x="186.157" y="135.559"/>
    </contour>
  </outline>
</glyph>
<glyph name="p" format="2">
  <advance width="626"/>
  <unicode hex="0070"/>
  <outline>
    <contour>
      <point x="210.208" y="-112.995" type="line"/>
      <point x="210.208" y="74.0" type="line"/>
      <point x="248.208" y="19.0"/>
      <point x="294.208" y="0.0"/>
      <point x="351.208" y="0.0" type="curve" smooth="yes"/>
      <point x="421.208" y="0.0"/>
      <point x="475.208" y="22.0"/>
      <point x="512.208" y="65.0" type="curve" smooth="yes"/>
      <point x="556.208" y="116.0"/>
      <point x="584.208" y="195.0"/>
      <point x="584.208" y="280.0" type="curve" smooth="yes"/>
      <point x="584.208" y="363.0"/>
      <point x="559.208" y="436.0"/>
      <point x="519.208" y="487.0" type="curve" smooth="yes"/>
      <point x="484.208" y="531.0"/>
      <point x="427.208" y="550.0"/>
      <point x="359.208" y="550.0" type="curve" smooth="yes"/>
      <point x="291.208" y="550.0"/>
      <point x="237.208" y="529.0"/>
      <point x="195.208" y="463.0" type="curve"/>
      <point x="180.208" y="540.0" type="line"/>
      <point x="22.198" y="540.0" type="line"/>
      <point x="22.198" y="491.995" type="line"/>
      <point x="99.198" y="472.995" type="line"/>
      <point x="99.198" y="-112.995" type="line"/>
      <point x="22.198" y="-131.995" type="line"/>
      <point x="22.198" y="-180.0" type="line"/>
      <point x="307.208" y="-180.0" type="line"/>
      <point x="307.208" y="-131.995" type="line"/>
    </contour>
    <contour>
      <point x="209.208" y="279.467" type="curve" smooth="yes"/>
      <point x="209.208" y="355.665"/>
      <point x="222.208" y="410.863"/>
      <point x="242.807" y="444.528" type="curve" smooth="yes"/>
      <point x="261.741" y="475.995"/>
      <point x="293.005" y="490.528"/>
      <point x="336.67" y="490.528" type="curve" smooth="yes"/>
      <point x="380.599" y="490.528"/>
      <point x="410.066" y="475.264"/>
      <point x="431.132" y="440.797" type="curve" smooth="yes"/>
      <point x="452.731" y="404.264"/>
      <point x="465.198" y="343.929"/>
      <point x="465.198" y="271.066" type="curve" smooth="yes"/>
      <point x="465.198" y="199.604"/>
      <point x="454.264" y="139.939"/>
      <point x="432.132" y="106.005" type="curve" smooth="yes"/>
      <point x="413.467" y="76.939"/>
      <point x="383.137" y="59.005"/>
      <point x="340.005" y="59.005" type="curve" smooth="yes"/>
      <point x="293.741" y="59.005"/>
      <point x="263.807" y="78.472"/>
      <point x="243.274" y="112.005" type="curve" smooth="yes"/>
      <point x="221.675" y="146.604"/>
      <point x="209.208" y="203.269"/>
    </contour>
  </outline>
</glyph>
<glyph name="q" format="2">
  <advance width="608"/>
  <unicode hex="0071"/>
  <outline>
    <contour>
      <point x="417.264" y="-112.995" type="line"/>
      <point x="320.264" y="-131.995" type="line"/>
      <point x="320.264" y="-180.0" type="line"/>
      <point x="605.274" y="-180.0" type="line"/>
      <point x="605.274" y="-131.995" type="line"/>
      <point x="528.274" y="-112.995" type="line"/>
      <point x="528.274" y="540.0" type="line"/>
      <point x="467.264" y="540.0" type="line"/>
      <point x="437.264" y="437.0" type="line"/>
      <point x="395.264" y="522.0"/>
      <point x="341.264" y="550.0"/>
      <point x="271.264" y="550.0" type="curve" smooth="yes"/>
      <point x="201.264" y="550.0"/>
      <point x="145.264" y="528.0"/>
      <point x="110.264" y="485.0" type="curve" smooth="yes"/>
      <point x="68.264" y="434.0"/>
      <point x="42.264" y="355.0"/>
      <point x="42.264" y="270.0" type="curve" smooth="yes"/>
      <point x="42.264" y="187.0"/>
      <point x="69.264" y="114.0"/>
      <point x="111.264" y="63.0" type="curve" smooth="yes"/>
      <point x="147.264" y="19.0"/>
      <point x="203.264" y="0.0"/>
      <point x="271.264" y="0.0" type="curve" smooth="yes"/>
      <point x="330.264" y="0.0"/>
      <point x="378.264" y="16.0"/>
      <point x="417.264" y="67.0" type="curve"/>
    </contour>
    <contour>
      <point x="417.264" y="271.0" type="curve" smooth="yes"/>
      <point x="417.264" y="195.269"/>
      <point x="403.797" y="140.071"/>
      <point x="382.264" y="105.005" type="curve" smooth="yes"/>
      <point x="363.797" y="74.472"/>
      <point x="332.533" y="59.005"/>
      <point x="286.533" y="59.005" type="curve" smooth="yes"/>
      <point x="243.538" y="59.005"/>
      <point x="213.137" y="74.736"/>
      <point x="192.071" y="112.005" type="curve" smooth="yes"/>
      <point x="171.406" y="149.005"/>
      <point x="161.274" y="203.269"/>
      <point x="161.274" y="278.0" type="curve" smooth="yes"/>
      <point x="161.274" y="352.731"/>
      <point x="168.939" y="410.528"/>
      <point x="191.538" y="443.995" type="curve" smooth="yes"/>
      <point x="212.071" y="475.396"/>
      <point x="247.538" y="490.528"/>
      <point x="286.467" y="490.528" type="curve" smooth="yes"/>
      <point x="332.264" y="490.528"/>
      <point x="361.264" y="471.995"/>
      <point x="382.264" y="437.995" type="curve" smooth="yes"/>
      <point x="405.264" y="403.396"/>
      <point x="417.264" y="346.731"/>
    </contour>
  </outline>
</glyph>
<glyph name="r" format="2">
  <advance width="465"/>
  <unicode hex="0072"/>
  <anchor x="247.736" y="639.0" name="top"/>
  <anchor x="164.736" y="0" name="bottom"/>
  <outline>
    <contour>
      <point x="333.731" y="474.995" type="curve"/>
      <point x="329.33956199811365" y="459.39902319320925"/>
      <point x="328.731" y="456.462"/>
      <point x="328.731" y="447.995" type="curve" smooth="yes"/>
      <point x="328.731" y="415.264"/>
      <point x="349.264" y="388.462"/>
      <point x="393.137" y="388.462" type="curve" smooth="yes"/>
      <point x="432.34" y="388.462"/>
      <point x="455.741" y="420.0"/>
      <point x="455.741" y="460.0" type="curve" smooth="yes"/>
      <point x="455.741" y="514.0"/>
      <point x="416.741" y="550.0"/>
      <point x="364.741" y="550.0" type="curve" smooth="yes"/>
      <point x="301.741" y="550.0"/>
      <point x="246.741" y="498.467"/>
      <point x="216.741" y="408.0" type="curve"/>
      <point x="212.741" y="408.0" type="line"/>
      <point x="190.741" y="540.0" type="line"/>
      <point x="32.731" y="540.0" type="line"/>
      <point x="32.731" y="499.0" type="line"/>
      <point x="109.731" y="480.0" type="line"/>
      <point x="109.731" y="67.005" type="line"/>
      <point x="32.731" y="48.005" type="line"/>
      <point x="32.731" y="0.0" type="line"/>
      <point x="328.741" y="0.0" type="line"/>
      <point x="328.741" y="48.005" type="line"/>
      <point x="220.741" y="67.005" type="line"/>
      <point x="220.741" y="239.995" type="line" smooth="yes"/>
      <point x="220.741" y="302.599"/>
      <point x="233.142" y="352.528"/>
      <point x="250.741" y="397.995" type="curve" smooth="yes"/>
      <point x="266.604" y="436.655"/>
      <point x="299.005" y="478.193"/>
      <point x="323.071" y="478.193" type="curve" smooth="yes"/>
      <point x="326.269" y="478.193"/>
      <point x="330.533" y="477.127"/>
    </contour>
  </outline>
</glyph>
<glyph name="s" format="2">
  <advance width="509"/>
  <unicode hex="0073"/>
  <anchor x="265.736" y="639.0" name="top"/>
  <anchor x="243.736" y="0" name="bottom"/>
  <outline>
    <contour>
      <point x="243.533" y="43.005" type="curve" smooth="yes"/>
      <point x="186.533" y="43.005"/>
      <point x="146.873" y="63.34"/>
      <point x="131.741" y="87.005" type="curve"/>
      <point x="150.807" y="97.472"/>
      <point x="167.741" y="123.005"/>
      <point x="167.741" y="147.538" type="curve" smooth="yes"/>
      <point x="167.741" y="178.939"/>
      <point x="139.005" y="199.005"/>
      <point x="107.005" y="199.005" type="curve" smooth="yes"/>
      <point x="67.736" y="199.005"/>
      <point x="40.731" y="169.203"/>
      <point x="40.731" y="121.599" type="curve" smooth="yes"/>
      <point x="40.731" y="41.0"/>
      <point x="117.797" y="-10.0"/>
      <point x="240.0" y="-10.0" type="curve" smooth="yes"/>
      <point x="371.736" y="-10.0"/>
      <point x="468.741" y="49.0"/>
      <point x="468.741" y="152.467" type="curve" smooth="yes"/>
      <point x="468.741" y="258.533"/>
      <point x="366.67" y="290.401"/>
      <point x="268.731" y="319.802" type="curve" smooth="yes"/>
      <point x="197.939" y="341.599"/>
      <point x="156.741" y="360.401"/>
      <point x="156.741" y="417.132" type="curve" smooth="yes"/>
      <point x="156.741" y="468.929"/>
      <point x="192.538" y="496.995"/>
      <point x="264.132" y="496.995" type="curve" smooth="yes"/>
      <point x="311.731" y="496.995"/>
      <point x="342.665" y="483.594"/>
      <point x="361.731" y="456.995" type="curve"/>
      <point x="340.731" y="447.528"/>
      <point x="325.731" y="424.061"/>
      <point x="325.731" y="400.462" type="curve" smooth="yes"/>
      <point x="325.731" y="371.929"/>
      <point x="349.132" y="349.528"/>
      <point x="385.736" y="349.528" type="curve" smooth="yes"/>
      <point x="423.939" y="349.528"/>
      <point x="446.741" y="375.061"/>
      <point x="446.741" y="418.929" type="curve" smooth="yes"/>
      <point x="446.741" y="497.797"/>
      <point x="374.137" y="550.0"/>
      <point x="260.665" y="550.0" type="curve" smooth="yes"/>
      <point x="134.264" y="550.0"/>
      <point x="60.731" y="487.0"/>
      <point x="60.731" y="391.0" type="curve" smooth="yes"/>
      <point x="60.731" y="289.0"/>
      <point x="143.731" y="250.33"/>
      <point x="225.731" y="225.33" type="curve" smooth="yes"/>
      <point x="292.132" y="205.863"/>
      <point x="367.731" y="183.396"/>
      <point x="367.731" y="123.0" type="curve" smooth="yes"/>
      <point x="367.731" y="72.203"/>
      <point x="314.33" y="43.005"/>
    </contour>
  </outline>
</glyph>
<glyph name="t" format="2">
  <advance width="352"/>
  <unicode hex="0074"/>
  <anchor x="168.137" y="0" name="bottom"/>
  <outline>
    <contour>
      <point x="7.132" y="482.995" type="line"/>
      <point x="104.132" y="482.995" type="line"/>
      <point x="104.132" y="114.0" type="line" smooth="yes"/>
      <point x="104.132" y="64.0"/>
      <point x="106.132" y="43.0"/>
      <point x="112.132" y="27.0" type="curve" smooth="yes"/>
      <point x="121.132" y="2.0"/>
      <point x="140.132" y="-10.0"/>
      <point x="170.132" y="-10.0" type="curve" smooth="yes"/>
      <point x="201.934" y="-10.0"/>
      <point x="257.071" y="1.0"/>
      <point x="327.142" y="25.0" type="curve"/>
      <point x="327.142" y="61.005" type="line"/>
      <point x="257.142" y="61.005" type="line" smooth="yes"/>
      <point x="233.142" y="61.005"/>
      <point x="224.142" y="63.939"/>
      <point x="220.142" y="73.005" type="curve" smooth="yes"/>
      <point x="216.142" y="83.005"/>
      <point x="215.142" y="95.005"/>
      <point x="215.142" y="140.005" type="curve" smooth="yes"/>
      <point x="215.142" y="482.995" type="line"/>
      <point x="343.142" y="482.995" type="line"/>
      <point x="343.142" y="540.0" type="line"/>
      <point x="215.142" y="540.0" type="line"/>
      <point x="215.142" y="678.934" type="line"/>
      <point x="117.132" y="665.066" type="line"/>
      <point x="104.599" y="540.0" type="line"/>
      <point x="7.132" y="526.0" type="line"/>
    </contour>
  </outline>
</glyph>
<glyph name="u" format="2">
  <advance width="642"/>
  <unicode hex="0075"/>
  <guideline x="0" y="247.0" angle="0" identifier="W6dzbHnLf6"/>
  <anchor x="315.67" y="639.0" name="top"/>
  <anchor x="296.67" y="0" name="bottom"/>
  <outline>
    <contour>
      <point x="204.675" y="540.0" type="line"/>
      <point x="26.665" y="540.0" type="line"/>
      <point x="26.665" y="491.995" type="line"/>
      <point x="93.665" y="472.995" type="line"/>
      <point x="93.665" y="259.0" type="line" smooth="yes"/>
      <point x="93.665" y="145.0"/>
      <point x="104.665" y="81.0"/>
      <point x="130.665" y="44.0" type="curve" smooth="yes"/>
      <point x="154.665" y="10.0"/>
      <point x="198.665" y="-10.0"/>
      <point x="249.665" y="-10.0" type="curve" smooth="yes"/>
      <point x="325.665" y="-10.0"/>
      <point x="396.665" y="32.0"/>
      <point x="435.665" y="100.0" type="curve"/>
      <point x="439.665" y="100.0" type="line"/>
      <point x="450.665" y="-10.0" type="line"/>
      <point x="619.675" y="0.0" type="line"/>
      <point x="619.675" y="48.005" type="line"/>
      <point x="542.675" y="67.005" type="line"/>
      <point x="542.675" y="540.0" type="line"/>
      <point x="344.665" y="540.0" type="line"/>
      <point x="344.665" y="491.995" type="line"/>
      <point x="431.665" y="472.995" type="line"/>
      <point x="431.665" y="220.005" type="line"/>
      <point x="428.665" y="165.005"/>
      <point x="415.665" y="131.005"/>
      <point x="386.665" y="105.005" type="curve" smooth="yes"/>
      <point x="361.665" y="82.005"/>
      <point x="329.467" y="68.005"/>
      <point x="293.467" y="68.005" type="curve" smooth="yes"/>
      <point x="261.005" y="68.005"/>
      <point x="231.472" y="85.005"/>
      <point x="218.807" y="117.005" type="curve" smooth="yes"/>
      <point x="208.675" y="141.472"/>
      <point x="204.675" y="178.005"/>
      <point x="204.675" y="264.005" type="curve" smooth="yes"/>
    </contour>
  </outline>
</glyph>
<glyph name="v" format="2">
  <advance width="598"/>
  <unicode hex="0076"/>
  <outline>
    <contour>
      <point x="357.34" y="-10.0" type="line"/>
      <point x="532.472" y="472.995" type="line"/>
      <point x="590.472" y="491.995" type="line"/>
      <point x="590.472" y="540.0" type="line"/>
      <point x="386.462" y="540.0" type="line"/>
      <point x="386.462" y="491.995" type="line"/>
      <point x="448.462" y="472.995" type="line"/>
      <point x="315.868" y="78.74600000000001" type="line"/>
      <point x="311.868" y="78.74600000000001" type="line"/>
      <point x="180.675" y="473.462" type="line"/>
      <point x="246.675" y="492.462" type="line"/>
      <point x="246.675" y="540.467" type="line"/>
      <point x="8.665" y="540.467" type="line"/>
      <point x="8.665" y="492.462" type="line"/>
      <point x="64.665" y="473.462" type="line"/>
      <point x="240.33" y="-10.0" type="line"/>
    </contour>
  </outline>
</glyph>
<glyph name="w" format="2">
  <advance width="882"/>
  <unicode hex="0077"/>
  <anchor x="455.802" y="639.0" name="top"/>
  <outline>
    <contour>
      <point x="179.675" y="472.528" type="line"/>
      <point x="248.675" y="491.528" type="line"/>
      <point x="248.675" y="539.533" type="line"/>
      <point x="10.665" y="539.533" type="line"/>
      <point x="10.665" y="491.528" type="line"/>
      <point x="63.665" y="472.528" type="line"/>
      <point x="214.797" y="-10.0" type="line"/>
      <point x="331.807" y="-10.0" type="line"/>
      <point x="440.802" y="366.457" type="line"/>
      <point x="552.797" y="-10.0" type="line"/>
      <point x="669.807" y="-10.0" type="line"/>
      <point x="816.472" y="472.528" type="line"/>
      <point x="870.472" y="491.528" type="line"/>
      <point x="870.472" y="539.533" type="line"/>
      <point x="666.462" y="539.533" type="line"/>
      <point x="666.462" y="491.528" type="line"/>
      <point x="731.462" y="472.528" type="line"/>
      <point x="640.335" y="134.477" type="line"/>
      <point x="628.335" y="75.477" type="line"/>
      <point x="624.335" y="75.477" type="line"/>
      <point x="613.269" y="134.477" type="line"/>
      <point x="498.807" y="550.0" type="line"/>
      <point x="412.797" y="550.0" type="line"/>
      <point x="301.868" y="134.01" type="line"/>
      <point x="290.335" y="75.01" type="line"/>
      <point x="285.335" y="75.01" type="line"/>
      <point x="274.269" y="134.01" type="line"/>
    </contour>
  </outline>
</glyph>
<glyph name="x" format="2">
  <advance width="573"/>
  <unicode hex="0078"/>
  <outline>
    <contour>
      <point x="193.609" y="472.995" type="line"/>
      <point x="237.609" y="491.995" type="line"/>
      <point x="237.609" y="540.0" type="line"/>
      <point x="16.599" y="540.0" type="line"/>
      <point x="16.599" y="491.995" type="line"/>
      <point x="72.599" y="472.995" type="line"/>
      <point x="237.462" y="260.0" type="line"/>
      <point x="73.066" y="67.005" type="line"/>
      <point x="17.066" y="48.005" type="line"/>
      <point x="17.066" y="0.0" type="line"/>
      <point x="219.076" y="0.0" type="line"/>
      <point x="219.076" y="48.005" type="line"/>
      <point x="159.076" y="67.005" type="line"/>
      <point x="270.467" y="216.66" type="line"/>
      <point x="386.858" y="67.005" type="line"/>
      <point x="329.858" y="48.005" type="line"/>
      <point x="329.858" y="0.0" type="line"/>
      <point x="562.868" y="0.0" type="line"/>
      <point x="562.868" y="48.005" type="line"/>
      <point x="507.868" y="66.005" type="line"/>
      <point x="336.472" y="287.0" type="line"/>
      <point x="492.868" y="472.995" type="line"/>
      <point x="549.868" y="491.995" type="line"/>
      <point x="549.868" y="540.0" type="line"/>
      <point x="347.858" y="540.0" type="line"/>
      <point x="347.858" y="491.995" type="line"/>
      <point x="407.858" y="472.995" type="line"/>
      <point x="303.0" y="330.34" type="line"/>
    </contour>
  </outline>
</glyph>
<glyph name="y" format="2">
  <advance width="595"/>
  <unicode hex="0079"/>
  <anchor x="315.335" y="639.0" name="top"/>
  <outline>
    <contour>
      <point x="521.005" y="472.995" type="line"/>
      <point x="582.005" y="491.995" type="line"/>
      <point x="582.005" y="540.0" type="line"/>
      <point x="377.995" y="540.0" type="line"/>
      <point x="377.995" y="491.995" type="line"/>
      <point x="435.995" y="472.995" type="line"/>
      <point x="317.0" y="102.01" type="line"/>
      <point x="313.0" y="102.01" type="line"/>
      <point x="176.142" y="472.995" type="line"/>
      <point x="247.142" y="491.995" type="line"/>
      <point x="239.142" y="540.0" type="line"/>
      <point x="1.132" y="540.0" type="line"/>
      <point x="1.132" y="491.995" type="line"/>
      <point x="61.132" y="472.995" type="line"/>
      <point x="265.33" y="-7.0" type="line"/>
      <point x="253.33" y="-44.0" type="line" smooth="yes"/>
      <point x="220.33" y="-133.929"/>
      <point x="199.33" y="-143.995"/>
      <point x="172.33" y="-143.995" type="curve" smooth="yes"/>
      <point x="162.33" y="-143.995"/>
      <point x="146.33" y="-140.528"/>
      <point x="143.33" y="-126.995" type="curve"/>
      <point x="165.137" y="-120.066"/>
      <point x="175.472" y="-95.528"/>
      <point x="175.472" y="-79.33" type="curve" smooth="yes"/>
      <point x="175.472" y="-47.995"/>
      <point x="154.538" y="-29.994999999999997"/>
      <point x="120.802" y="-29.994999999999997" type="curve" smooth="yes"/>
      <point x="81.599" y="-29.994999999999997"/>
      <point x="55.33" y="-60.797"/>
      <point x="55.33" y="-102.0" type="curve" smooth="yes"/>
      <point x="55.33" y="-153.0"/>
      <point x="106.33" y="-190.0"/>
      <point x="169.33" y="-190.0" type="curve" smooth="yes"/>
      <point x="264.335" y="-190.0"/>
      <point x="295.67" y="-131.0"/>
      <point x="357.34" y="24.0" type="curve" smooth="yes"/>
    </contour>
  </outline>
</glyph>
<glyph name="z" format="2">
  <advance width="547"/>
  <unicode hex="007A"/>
  <anchor x="274.67" y="639.0" name="top"/>
  <anchor x="269.67" y="0" name="bottom"/>
  <outline>
    <contour>
      <point x="407.665" y="63.005" type="line"/>
      <point x="174.147" y="63.005" type="line"/>
      <point x="494.675" y="476.995" type="line"/>
      <point x="494.675" y="540.0" type="line"/>
      <point x="54.665" y="540.0" type="line"/>
      <point x="54.665" y="345.995" type="line"/>
      <point x="125.675" y="345.995" type="line"/>
      <point x="149.675" y="476.995" type="line"/>
      <point x="362.66" y="476.995" type="line"/>
      <point x="41.665" y="63.005" type="line"/>
      <point x="41.665" y="0.0" type="line"/>
      <point x="498.675" y="0.0" type="line"/>
      <point x="498.675" y="199.005" type="line"/>
      <point x="427.665" y="199.005" type="line"/>
    </contour>
  </outline>
</glyph>
<glyph name="braceleft" format="2">
  <advance width="413"/>
  <unicode hex="007B"/>
  <outline>
    <contour>
      <point x="4.132" y="319.995" type="line"/>
      <point x="38.132" y="319.995" type="line" smooth="yes"/>
      <point x="112.132" y="319.995"/>
      <point x="143.132" y="286.462"/>
      <point x="143.132" y="206.995" type="curve" smooth="yes"/>
      <point x="143.132" y="171.396"/>
      <point x="136.132" y="74.599"/>
      <point x="136.132" y="39.0" type="curve" smooth="yes"/>
      <point x="136.132" y="-84.0"/>
      <point x="215.335" y="-142.0"/>
      <point x="392.142" y="-150.0" type="curve"/>
      <point x="392.142" y="-82.995" type="line"/>
      <point x="285.142" y="-77.995"/>
      <point x="244.142" y="-45.995"/>
      <point x="244.142" y="33.005" type="curve" smooth="yes"/>
      <point x="244.142" y="57.071"/>
      <point x="248.142" y="148.868"/>
      <point x="248.142" y="185.0" type="curve" smooth="yes"/>
      <point x="248.142" y="291.0"/>
      <point x="217.142" y="339.467"/>
      <point x="139.142" y="357.467" type="curve"/>
      <point x="139.142" y="362.0" type="line"/>
      <point x="216.142" y="389.0"/>
      <point x="248.142" y="437.0"/>
      <point x="248.142" y="529.0" type="curve" smooth="yes"/>
      <point x="248.142" y="560.599"/>
      <point x="244.142" y="648.929"/>
      <point x="244.142" y="671.995" type="curve" smooth="yes"/>
      <point x="244.142" y="749.995"/>
      <point x="284.142" y="780.995"/>
      <point x="392.142" y="787.995" type="curve"/>
      <point x="392.142" y="855.0" type="line"/>
      <point x="215.335" y="847.0"/>
      <point x="136.132" y="788.0"/>
      <point x="136.132" y="667.0" type="curve" smooth="yes"/>
      <point x="136.132" y="631.401"/>
      <point x="143.132" y="540.604"/>
      <point x="143.132" y="505.005" type="curve" smooth="yes"/>
      <point x="143.132" y="427.005"/>
      <point x="111.132" y="393.005"/>
      <point x="38.132" y="393.005" type="curve" smooth="yes"/>
      <point x="4.132" y="393.005" type="line"/>
    </contour>
  </outline>
</glyph>
<glyph name="bar" format="2">
  <advance width="250"/>
  <unicode hex="007C"/>
  <outline>
    <contour>
      <point x="89.33" y="-170.0" type="line"/>
      <point x="160.34" y="-170.0" type="line"/>
      <point x="160.34" y="770.0" type="line"/>
      <point x="89.33" y="770.0" type="line"/>
    </contour>
  </outline>
</glyph>
<glyph name="braceright" format="2">
  <advance width="413"/>
  <unicode hex="007D"/>
  <outline>
    <contour>
      <point x="409.208" y="393.005" type="line"/>
      <point x="375.208" y="393.005" type="line" smooth="yes"/>
      <point x="302.208" y="393.005"/>
      <point x="270.208" y="427.005"/>
      <point x="270.208" y="505.005" type="curve" smooth="yes"/>
      <point x="270.208" y="540.604"/>
      <point x="277.208" y="631.401"/>
      <point x="277.208" y="667.0" type="curve" smooth="yes"/>
      <point x="277.208" y="788.0"/>
      <point x="198.005" y="847.0"/>
      <point x="21.198" y="855.0" type="curve"/>
      <point x="21.198" y="787.995" type="line"/>
      <point x="129.198" y="780.995"/>
      <point x="169.198" y="749.995"/>
      <point x="169.198" y="671.995" type="curve" smooth="yes"/>
      <point x="169.198" y="648.929"/>
      <point x="165.198" y="560.599"/>
      <point x="165.198" y="529.0" type="curve" smooth="yes"/>
      <point x="165.198" y="437.0"/>
      <point x="197.198" y="389.0"/>
      <point x="274.198" y="362.0" type="curve"/>
      <point x="274.198" y="357.467" type="line"/>
      <point x="196.198" y="339.467"/>
      <point x="165.198" y="291.0"/>
      <point x="165.198" y="185.0" type="curve" smooth="yes"/>
      <point x="165.198" y="148.868"/>
      <point x="169.198" y="57.071"/>
      <point x="169.198" y="33.005" type="curve" smooth="yes"/>
      <point x="169.198" y="-45.995"/>
      <point x="128.198" y="-77.995"/>
      <point x="21.198" y="-82.995" type="curve"/>
      <point x="21.198" y="-150.0" type="line"/>
      <point x="198.005" y="-142.0"/>
      <point x="277.208" y="-84.0"/>
      <point x="277.208" y="39.0" type="curve" smooth="yes"/>
      <point x="277.208" y="74.599"/>
      <point x="270.208" y="171.396"/>
      <point x="270.208" y="206.995" type="curve" smooth="yes"/>
      <point x="270.208" y="286.462"/>
      <point x="301.208" y="319.995"/>
      <point x="375.208" y="319.995" type="curve" smooth="yes"/>
      <point x="409.208" y="319.995" type="line"/>
    </contour>
  </outline>
</glyph>
<glyph name="asciitilde" format="2">
  <advance width="484"/>
  <unicode hex="007E"/>
  <outline>
    <contour>
      <point x="68.528" y="296.995" type="curve"/>
      <point x="120.533" y="296.995" type="line"/>
      <point x="126.533" y="324.995"/>
      <point x="146.533" y="341.995"/>
      <point x="174.533" y="341.995" type="curve" smooth="yes"/>
      <point x="222.533" y="341.995"/>
      <point x="249.533" y="285.995"/>
      <point x="316.533" y="285.995" type="curve" smooth="yes"/>
      <point x="374.269" y="285.995"/>
      <point x="408.604" y="329.665"/>
      <point x="420.538" y="421.005" type="curve"/>
      <point x="368.533" y="421.005" type="line"/>
      <point x="362.533" y="389.005"/>
      <point x="342.533" y="371.005"/>
      <point x="314.533" y="371.005" type="curve" smooth="yes"/>
      <point x="266.533" y="371.005"/>
      <point x="240.533" y="426.005"/>
      <point x="172.533" y="426.005" type="curve" smooth="yes"/>
      <point x="113.33" y="426.005"/>
      <point x="79.462" y="383.335"/>
    </contour>
  </outline>
</glyph>
<glyph name="exclamdown" format="2">
  <advance width="268"/>
  <unicode hex="00A1"/>
  <outline>
    <contour>
      <point x="98.863" y="335.0" type="line"/>
      <point x="98.863" y="232.0"/>
      <point x="86.863" y="88.0"/>
      <point x="82.863" y="40.0" type="curve" smooth="yes"/>
      <point x="78.863" y="-9.0"/>
      <point x="69.863" y="-55.0"/>
      <point x="69.863" y="-110.0" type="curve" smooth="yes"/>
      <point x="69.863" y="-157.0"/>
      <point x="91.198" y="-190.0"/>
      <point x="135.868" y="-190.0" type="curve" smooth="yes"/>
      <point x="182.005" y="-190.0"/>
      <point x="197.873" y="-154.0"/>
      <point x="197.873" y="-111.0" type="curve" smooth="yes"/>
      <point x="197.873" y="-55.0"/>
      <point x="189.807" y="-9.0"/>
      <point x="184.873" y="40.0" type="curve" smooth="yes"/>
      <point x="182.741" y="88.0"/>
      <point x="168.873" y="232.0"/>
      <point x="168.873" y="335.0" type="curve"/>
    </contour>
    <contour>
      <point x="203.34" y="487.066" type="curve" smooth="yes"/>
      <point x="203.34" y="530.802"/>
      <point x="176.604" y="557.472"/>
      <point x="133.934" y="557.472" type="curve" smooth="yes"/>
      <point x="90.731" y="557.472"/>
      <point x="63.929" y="530.736"/>
      <point x="63.929" y="486.599" type="curve" smooth="yes"/>
      <point x="63.929" y="443.462"/>
      <point x="89.731" y="417.061"/>
      <point x="132.934" y="417.061" type="curve" smooth="yes"/>
      <point x="177.071" y="417.061"/>
      <point x="203.34" y="443.863"/>
    </contour>
  </outline>
</glyph>
<glyph name="cent" format="2">
  <advance width="553"/>
  <unicode hex="00A2"/>
  <outline>
    <contour>
      <point x="261.33" y="-108.0" type="line"/>
      <point x="322.34" y="-108.0" type="line"/>
      <point x="322.34" y="-7.599" type="line"/>
      <point x="399.604" y="0.26900000000000013"/>
      <point x="462.406" y="37.335"/>
      <point x="512.34" y="110.0" type="curve"/>
      <point x="471.132" y="142.406" type="line"/>
      <point x="433.934" y="94.807"/>
      <point x="377.269" y="67.741"/>
      <point x="322.34" y="64.939" type="curve"/>
      <point x="322.34" y="491.528" type="line"/>
      <point x="370.599" y="489.193"/>
      <point x="405.929" y="473.594"/>
      <point x="424.66" y="444.0" type="curve"/>
      <point x="392.726" y="434.533"/>
      <point x="374.66" y="408.533"/>
      <point x="374.66" y="375.533" type="curve" smooth="yes"/>
      <point x="374.66" y="340.467"/>
      <point x="395.325" y="309.995"/>
      <point x="439.863" y="309.995" type="curve" smooth="yes"/>
      <point x="483.665" y="309.995"/>
      <point x="511.67" y="339.33"/>
      <point x="511.67" y="393.467" type="curve" smooth="yes"/>
      <point x="511.67" y="483.731"/>
      <point x="434.071" y="544.797"/>
      <point x="322.34" y="549.533" type="curve"/>
      <point x="322.34" y="652.0" type="line"/>
      <point x="261.33" y="652.0" type="line"/>
      <point x="261.33" y="547.0" type="line"/>
      <point x="126.396" y="527.533"/>
      <point x="46.33" y="420.0"/>
      <point x="46.33" y="264.467" type="curve" smooth="yes"/>
      <point x="46.33" y="202.0"/>
      <point x="59.33" y="145.0"/>
      <point x="82.33" y="102.0" type="curve" smooth="yes"/>
      <point x="117.33" y="35.467"/>
      <point x="178.396" y="-2.533"/>
      <point x="261.33" y="-9.0" type="curve"/>
    </contour>
    <contour>
      <point x="191.34" y="134.0" type="curve" smooth="yes"/>
      <point x="174.807" y="165.599"/>
      <point x="165.34" y="207.929"/>
      <point x="165.34" y="276.198" type="curve" smooth="yes"/>
      <point x="165.34" y="400.396"/>
      <point x="196.472" y="464.193"/>
      <point x="261.33" y="484.594" type="curve"/>
      <point x="261.33" y="71.873" type="line"/>
      <point x="230.401" y="82.406"/>
      <point x="207.005" y="103.071"/>
    </contour>
  </outline>
</glyph>
<glyph name="sterling" format="2">
  <advance width="616"/>
  <unicode hex="00A3"/>
  <outline>
    <contour>
      <point x="73.599" y="318.995" type="line"/>
      <point x="226.533" y="318.995" type="line"/>
      <point x="240.533" y="287.33"/>
      <point x="244.599" y="261.198"/>
      <point x="244.599" y="225.0" type="curve" smooth="yes"/>
      <point x="244.599" y="201.802"/>
      <point x="242.599" y="179.137"/>
      <point x="238.599" y="165.005" type="curve"/>
      <point x="209.599" y="175.939"/>
      <point x="170.533" y="182.005"/>
      <point x="142.533" y="182.005" type="curve" smooth="yes"/>
      <point x="82.67" y="182.005"/>
      <point x="33.599" y="145.873"/>
      <point x="33.599" y="86.472" type="curve" smooth="yes"/>
      <point x="33.599" y="26.401"/>
      <point x="78.203" y="-10.0"/>
      <point x="145.609" y="-10.0" type="curve" smooth="yes"/>
      <point x="196.609" y="-10.0"/>
      <point x="238.609" y="17.0"/>
      <point x="279.609" y="76.0" type="curve"/>
      <point x="381.609" y="6.0"/>
      <point x="413.609" y="-10.0"/>
      <point x="454.609" y="-10.0" type="curve" smooth="yes"/>
      <point x="523.609" y="-10.0"/>
      <point x="559.609" y="37.868"/>
      <point x="574.609" y="152.005" type="curve"/>
      <point x="515.599" y="152.005" type="line"/>
      <point x="504.599" y="102.005"/>
      <point x="481.533" y="83.406"/>
      <point x="434.533" y="83.406" type="curve" smooth="yes"/>
      <point x="402.802" y="83.406"/>
      <point x="373.538" y="94.472"/>
      <point x="308.01" y="133.005" type="curve"/>
      <point x="322.01" y="171.67"/>
      <point x="328.609" y="210.335"/>
      <point x="328.609" y="245.0" type="curve" smooth="yes"/>
      <point x="328.609" y="263.132"/>
      <point x="327.543" y="282.264"/>
      <point x="320.543" y="318.995" type="curve"/>
      <point x="473.609" y="318.995" type="line"/>
      <point x="473.609" y="389.0" type="line"/>
      <point x="300.609" y="389.0" type="line"/>
      <point x="271.609" y="460.0"/>
      <point x="258.609" y="513.0"/>
      <point x="258.609" y="555.0" type="curve" smooth="yes"/>
      <point x="258.609" y="619.33"/>
      <point x="297.01" y="647.995"/>
      <point x="370.538" y="647.995" type="curve" smooth="yes"/>
      <point x="414.467" y="647.995"/>
      <point x="445.401" y="635.528"/>
      <point x="463.599" y="607.995" type="curve"/>
      <point x="441.198" y="596.995"/>
      <point x="427.599" y="575.396"/>
      <point x="427.599" y="550.995" type="curve" smooth="yes"/>
      <point x="427.599" y="520.594"/>
      <point x="453.335" y="499.594"/>
      <point x="489.005" y="499.594" type="curve" smooth="yes"/>
      <point x="527.675" y="499.594"/>
      <point x="548.609" y="526.995"/>
      <point x="548.609" y="568.995" type="curve" smooth="yes"/>
      <point x="548.609" y="650.198"/>
      <point x="482.076" y="701.0"/>
      <point x="371.274" y="701.0" type="curve" smooth="yes"/>
      <point x="237.401" y="701.0"/>
      <point x="157.599" y="637.0"/>
      <point x="157.599" y="532.0" type="curve" smooth="yes"/>
      <point x="157.599" y="490.0"/>
      <point x="169.599" y="447.0"/>
      <point x="197.599" y="389.0" type="curve"/>
      <point x="73.599" y="389.0" type="line"/>
    </contour>
    <contour>
      <point x="150.609" y="48.005" type="curve" smooth="yes"/>
      <point x="121.609" y="48.005"/>
      <point x="105.609" y="60.137"/>
      <point x="105.609" y="85.203" type="curve" smooth="yes"/>
      <point x="105.609" y="109.868"/>
      <point x="123.609" y="125.0"/>
      <point x="153.609" y="125.0" type="curve" smooth="yes"/>
      <point x="169.873" y="125.0"/>
      <point x="195.802" y="117.0"/>
      <point x="213.599" y="107.0" type="curve"/>
      <point x="198.868" y="66.67"/>
      <point x="178.538" y="48.005"/>
    </contour>
  </outline>
</glyph>
<glyph name="yen" format="2">
  <advance width="749"/>
  <unicode hex="00A5"/>
  <outline>
    <contour>
      <point x="151.863" y="275.995" type="line"/>
      <point x="317.533" y="275.995" type="line"/>
      <point x="323.33" y="266.0" type="line"/>
      <point x="323.33" y="210.538" type="line"/>
      <point x="151.863" y="210.538" type="line"/>
      <point x="151.863" y="137.995" type="line"/>
      <point x="323.33" y="137.995" type="line"/>
      <point x="323.33" y="71.005" type="line"/>
      <point x="229.33" y="50.005" type="line"/>
      <point x="229.33" y="0.0" type="line"/>
      <point x="531.34" y="0.0" type="line"/>
      <point x="531.34" y="50.005" type="line"/>
      <point x="437.34" y="71.005" type="line"/>
      <point x="437.34" y="137.995" type="line"/>
      <point x="594.34" y="137.995" type="line"/>
      <point x="594.34" y="210.538" type="line"/>
      <point x="437.34" y="210.538" type="line"/>
      <point x="437.34" y="275.995" type="line"/>
      <point x="594.34" y="275.995" type="line"/>
      <point x="594.34" y="348.005" type="line"/>
      <point x="473.076" y="348.005" type="line"/>
      <point x="637.604" y="648.995" type="line"/>
      <point x="719.604" y="669.995" type="line"/>
      <point x="719.604" y="720.0" type="line"/>
      <point x="478.594" y="720.0" type="line"/>
      <point x="478.594" y="669.995" type="line"/>
      <point x="559.594" y="648.995" type="line"/>
      <point x="397.868" y="351.274" type="line"/>
      <point x="393.802" y="351.274" type="line"/>
      <point x="235.076" y="648.995" type="line"/>
      <point x="319.076" y="669.995" type="line"/>
      <point x="319.076" y="720.0" type="line"/>
      <point x="29.066" y="720.0" type="line"/>
      <point x="29.066" y="669.995" type="line"/>
      <point x="112.066" y="648.995" type="line"/>
      <point x="277.594" y="348.005" type="line"/>
      <point x="151.863" y="348.005" type="line"/>
    </contour>
  </outline>
</glyph>
<glyph name="brokenbar" format="2">
  <advance width="254"/>
  <unicode hex="00A6"/>
  <outline>
    <contour>
      <point x="91.33" y="-170.0" type="line"/>
      <point x="162.34" y="-170.0" type="line"/>
      <point x="162.34" y="248.0" type="line"/>
      <point x="91.33" y="248.0" type="line"/>
    </contour>
    <contour>
      <point x="91.33" y="368.0" type="line"/>
      <point x="162.34" y="368.0" type="line"/>
      <point x="162.34" y="770.0" type="line"/>
      <point x="91.33" y="770.0" type="line"/>
    </contour>
  </outline>
</glyph>
<glyph name="section" format="2">
  <advance width="535"/>
  <unicode hex="00A7"/>
  <outline>
    <contour>
      <point x="491.34" y="250.467" type="curve" smooth="yes"/>
      <point x="491.34" y="362.868"/>
      <point x="396.005" y="414.335"/>
      <point x="299.736" y="462.203" type="curve" smooth="yes"/>
      <point x="226.34" y="498.401"/>
      <point x="179.34" y="521.934"/>
      <point x="179.34" y="591.533" type="curve" smooth="yes"/>
      <point x="179.34" y="649.396"/>
      <point x="212.137" y="676.995"/>
      <point x="284.198" y="676.995" type="curve" smooth="yes"/>
      <point x="331.995" y="676.995"/>
      <point x="363.33" y="664.995"/>
      <point x="384.33" y="636.995" type="curve"/>
      <point x="363.33" y="626.995"/>
      <point x="348.33" y="603.995"/>
      <point x="348.33" y="579.995" type="curve" smooth="yes"/>
      <point x="348.33" y="551.462"/>
      <point x="369.863" y="529.528"/>
      <point x="406.934" y="529.528" type="curve" smooth="yes"/>
      <point x="447.472" y="529.528"/>
      <point x="469.34" y="555.995"/>
      <point x="469.34" y="599.396" type="curve" smooth="yes"/>
      <point x="469.34" y="678.264"/>
      <point x="396.736" y="730.0"/>
      <point x="281.198" y="730.0" type="curve" smooth="yes"/>
      <point x="155.396" y="730.0"/>
      <point x="83.33" y="669.0"/>
      <point x="83.33" y="564.0" type="curve" smooth="yes"/>
      <point x="83.33" y="515.0"/>
      <point x="99.33" y="477.0"/>
      <point x="137.33" y="444.0" type="curve"/>
      <point x="79.33" y="413.0"/>
      <point x="43.33" y="359.0"/>
      <point x="43.33" y="290.0" type="curve" smooth="yes"/>
      <point x="43.33" y="179.934"/>
      <point x="136.396" y="128.0"/>
      <point x="229.33" y="82.0" type="curve" smooth="yes"/>
      <point x="302.188" y="46.071"/>
      <point x="355.33" y="19.868"/>
      <point x="355.33" y="-48.665" type="curve" smooth="yes"/>
      <point x="355.33" y="-107.061"/>
      <point x="316.929" y="-136.995"/>
      <point x="238.264" y="-136.995" type="curve" smooth="yes"/>
      <point x="189.066" y="-136.995"/>
      <point x="161.934" y="-125.462"/>
      <point x="143.335" y="-96.995" type="curve"/>
      <point x="173.675" y="-89.396"/>
      <point x="186.34" y="-64.061"/>
      <point x="186.34" y="-41.396" type="curve" smooth="yes"/>
      <point x="186.34" y="-10.995"/>
      <point x="162.005" y="10.472000000000001"/>
      <point x="127.269" y="10.472000000000001" type="curve" smooth="yes"/>
      <point x="87.198" y="10.472000000000001"/>
      <point x="65.33" y="-18.797"/>
      <point x="65.33" y="-64.066" type="curve" smooth="yes"/>
      <point x="65.33" y="-142.0"/>
      <point x="130.462" y="-190.0"/>
      <point x="243.665" y="-190.0" type="curve" smooth="yes"/>
      <point x="371.269" y="-190.0"/>
      <point x="451.34" y="-129.0"/>
      <point x="451.34" y="-24.533" type="curve" smooth="yes"/>
      <point x="451.34" y="23.533"/>
      <point x="434.34" y="62.0"/>
      <point x="396.34" y="96.0" type="curve"/>
      <point x="454.873" y="126.0"/>
      <point x="491.34" y="181.0"/>
    </contour>
    <contour>
      <point x="248.33" y="377.0" type="curve" smooth="yes"/>
      <point x="359.538" y="322.797"/>
      <point x="390.33" y="279.127"/>
      <point x="390.33" y="219.132" type="curve" smooth="yes"/>
      <point x="390.33" y="180.599"/>
      <point x="378.198" y="146.137"/>
      <point x="356.868" y="127.538" type="curve"/>
      <point x="324.609" y="145.934"/>
      <point x="300.274" y="157.802"/>
      <point x="288.675" y="163.868" type="curve" smooth="yes"/>
      <point x="191.142" y="215.203"/>
      <point x="144.34" y="252.066"/>
      <point x="144.34" y="319.868" type="curve" smooth="yes"/>
      <point x="144.34" y="358.0"/>
      <point x="159.472" y="395.396"/>
      <point x="182.269" y="412.33" type="curve"/>
      <point x="215.269" y="392.33"/>
      <point x="239.0" y="381.665"/>
    </contour>
  </outline>
</glyph>
<glyph name="dieresis" format="2">
  <advance width="407"/>
  <unicode hex="00A8"/>
  <anchor x="203.0" y="639.0" name="_top"/>
  <outline>
    <contour>
      <point x="22.994999999999997" y="697.995" type="curve" smooth="yes"/>
      <point x="22.994999999999997" y="657.792"/>
      <point x="47.797" y="632.99"/>
      <point x="88.0" y="632.99" type="curve" smooth="yes"/>
      <point x="129.203" y="632.99"/>
      <point x="154.005" y="657.792"/>
      <point x="154.005" y="697.995" type="curve" smooth="yes"/>
      <point x="154.005" y="738.198"/>
      <point x="128.203" y="764.0"/>
      <point x="88.0" y="764.0" type="curve" smooth="yes"/>
      <point x="47.797" y="764.0"/>
      <point x="22.994999999999997" y="739.198"/>
    </contour>
    <contour>
      <point x="252.995" y="697.995" type="curve" smooth="yes"/>
      <point x="252.995" y="657.792"/>
      <point x="277.797" y="632.99"/>
      <point x="318.0" y="632.99" type="curve" smooth="yes"/>
      <point x="359.203" y="632.99"/>
      <point x="384.005" y="657.792"/>
      <point x="384.005" y="697.995" type="curve" smooth="yes"/>
      <point x="384.005" y="738.198"/>
      <point x="358.203" y="764.0"/>
      <point x="318.0" y="764.0" type="curve" smooth="yes"/>
      <point x="277.797" y="764.0"/>
      <point x="252.995" y="739.198"/>
    </contour>
  </outline>
</glyph>
<glyph name="copyright" format="2">
  <advance width="847"/>
  <unicode hex="00A9"/>
  <outline>
    <contour>
      <point x="420.132" y="-10.0" type="curve" smooth="yes"/>
      <point x="638.34" y="-10.0"/>
      <point x="799.34" y="152.0"/>
      <point x="799.34" y="361.0" type="curve" smooth="yes"/>
      <point x="799.34" y="569.0"/>
      <point x="642.609" y="730.0"/>
      <point x="420.599" y="730.0" type="curve" smooth="yes"/>
      <point x="208.33" y="730.0"/>
      <point x="47.33" y="569.0"/>
      <point x="47.33" y="361.0" type="curve" smooth="yes"/>
      <point x="47.33" y="152.0"/>
      <point x="208.863" y="-10.0"/>
    </contour>
    <contour>
      <point x="420.132" y="37.005" type="curve" smooth="yes"/>
      <point x="244.071" y="37.005"/>
      <point x="108.34" y="176.203"/>
      <point x="108.34" y="361.0" type="curve" smooth="yes"/>
      <point x="108.34" y="544.797"/>
      <point x="244.538" y="682.995"/>
      <point x="420.599" y="682.995" type="curve" smooth="yes"/>
      <point x="607.401" y="682.995"/>
      <point x="740.33" y="543.797"/>
      <point x="740.33" y="361.0" type="curve" smooth="yes"/>
      <point x="740.33" y="177.203"/>
      <point x="605.066" y="37.005"/>
    </contour>
    <contour>
      <point x="421.802" y="517.995" type="curve" smooth="yes"/>
      <point x="474.797" y="517.995"/>
      <point x="510.33" y="486.995"/>
      <point x="520.33" y="424.995" type="curve"/>
      <point x="566.34" y="424.995" type="line"/>
      <point x="566.34" y="553.0" type="line"/>
      <point x="523.33" y="553.0" type="line"/>
      <point x="513.33" y="520.0" type="line"/>
      <point x="485.33" y="549.0"/>
      <point x="460.462" y="559.0"/>
      <point x="421.198" y="559.0" type="curve" smooth="yes"/>
      <point x="379.934" y="559.0"/>
      <point x="341.731" y="549.401"/>
      <point x="313.33" y="526.0" type="curve" smooth="yes"/>
      <point x="268.797" y="490.0"/>
      <point x="241.33" y="426.0"/>
      <point x="241.33" y="360.0" type="curve" smooth="yes"/>
      <point x="241.33" y="301.0"/>
      <point x="262.33" y="247.0"/>
      <point x="300.33" y="211.0" type="curve" smooth="yes"/>
      <point x="329.33" y="183.0"/>
      <point x="368.264" y="169.0"/>
      <point x="420.467" y="169.0" type="curve" smooth="yes"/>
      <point x="505.269" y="169.0"/>
      <point x="556.939" y="212.335"/>
      <point x="574.34" y="304.005" type="curve"/>
      <point x="531.33" y="304.005" type="line"/>
      <point x="519.396" y="245.939"/>
      <point x="482.863" y="214.005"/>
      <point x="428.802" y="214.005" type="curve" smooth="yes"/>
      <point x="393.939" y="214.005"/>
      <point x="364.137" y="227.472"/>
      <point x="346.538" y="257.005" type="curve" smooth="yes"/>
      <point x="329.406" y="285.071"/>
      <point x="319.34" y="324.802"/>
      <point x="319.34" y="369.0" type="curve" smooth="yes"/>
      <point x="319.34" y="417.198"/>
      <point x="330.406" y="457.528"/>
      <point x="351.472" y="485.995" type="curve" smooth="yes"/>
      <point x="366.538" y="507.061"/>
      <point x="390.071" y="517.995"/>
    </contour>
  </outline>
</glyph>
<glyph name="ordfeminine" format="2">
  <advance width="378"/>
  <unicode hex="00AA"/>
  <outline>
    <contour>
      <point x="50.264" y="492.467" type="curve" smooth="yes"/>
      <point x="50.264" y="448.0"/>
      <point x="78.264" y="422.0"/>
      <point x="124.797" y="422.0" type="curve" smooth="yes"/>
      <point x="167.665" y="422.0"/>
      <point x="204.731" y="445.934"/>
      <point x="225.264" y="482.0" type="curve"/>
      <point x="229.264" y="482.0" type="line"/>
      <point x="229.264" y="434.533"/>
      <point x="234.264" y="422.0"/>
      <point x="262.198" y="422.0" type="curve" smooth="yes"/>
      <point x="279.066" y="422.0"/>
      <point x="305.203" y="427.0"/>
      <point x="337.274" y="438.0" type="curve"/>
      <point x="337.274" y="461.005" type="line"/>
      <point x="312.274" y="461.005" type="line" smooth="yes"/>
      <point x="296.274" y="461.005"/>
      <point x="293.274" y="473.005"/>
      <point x="293.274" y="509.005" type="curve" smooth="yes"/>
      <point x="293.274" y="582.0" type="line" smooth="yes"/>
      <point x="293.274" y="639.066"/>
      <point x="284.142" y="680.0"/>
      <point x="258.807" y="703.0" type="curve" smooth="yes"/>
      <point x="237.071" y="722.868"/>
      <point x="204.533" y="730.0"/>
      <point x="175.0" y="730.0" type="curve" smooth="yes"/>
      <point x="116.929" y="730.0"/>
      <point x="60.264" y="704.0"/>
      <point x="60.264" y="657.533" type="curve" smooth="yes"/>
      <point x="60.264" y="632.797"/>
      <point x="76.533" y="617.995"/>
      <point x="99.137" y="617.995" type="curve" smooth="yes"/>
      <point x="120.137" y="617.995"/>
      <point x="139.873" y="628.061"/>
      <point x="139.873" y="648.929" type="curve" smooth="yes"/>
      <point x="139.873" y="655.995"/>
      <point x="136.274" y="666.995"/>
      <point x="126.274" y="672.995" type="curve"/>
      <point x="129.873" y="685.061"/>
      <point x="144.203" y="693.995"/>
      <point x="164.269" y="693.995" type="curve" smooth="yes"/>
      <point x="179.533" y="693.995"/>
      <point x="194.198" y="687.264"/>
      <point x="203.264" y="673.0" type="curve" smooth="yes"/>
      <point x="211.264" y="660.401"/>
      <point x="215.264" y="639.868"/>
      <point x="219.264" y="601.736" type="curve"/>
      <point x="98.33" y="582.269"/>
      <point x="50.264" y="549.934"/>
    </contour>
    <contour>
      <point x="158.868" y="466.939" type="curve" smooth="yes"/>
      <point x="137.538" y="466.939"/>
      <point x="126.274" y="480.604"/>
      <point x="126.274" y="503.467" type="curve" smooth="yes"/>
      <point x="126.274" y="538.264"/>
      <point x="149.406" y="557.132"/>
      <point x="218.264" y="572.731" type="curve"/>
      <point x="219.264" y="562.665"/>
      <point x="220.264" y="551.599"/>
      <point x="220.264" y="541.467" type="curve" smooth="yes"/>
      <point x="220.264" y="517.335"/>
      <point x="213.797" y="501.203"/>
      <point x="203.264" y="489.137" type="curve" smooth="yes"/>
      <point x="188.863" y="472.203"/>
      <point x="169.731" y="466.939"/>
    </contour>
  </outline>
</glyph>
<glyph name="logicalnot" format="2">
  <advance width="572"/>
  <unicode hex="00AC"/>
  <outline>
    <contour>
      <point x="67.462" y="320.995" type="line"/>
      <point x="424.457" y="320.995" type="line"/>
      <point x="424.457" y="181.995" type="line"/>
      <point x="498.467" y="181.995" type="line"/>
      <point x="498.467" y="405.005" type="line"/>
      <point x="67.462" y="405.005" type="line"/>
    </contour>
  </outline>
</glyph>
<glyph name="registered" format="2">
  <advance width="633"/>
  <unicode hex="00AE"/>
  <outline>
    <contour>
      <point x="314.0" y="230.0" type="curve" smooth="yes"/>
      <point x="463.939" y="230.0"/>
      <point x="573.34" y="338.0"/>
      <point x="573.34" y="481.0" type="curve" smooth="yes"/>
      <point x="573.34" y="625.0"/>
      <point x="463.939" y="730.0"/>
      <point x="314.0" y="730.0" type="curve" smooth="yes"/>
      <point x="167.797" y="730.0"/>
      <point x="59.33" y="625.0"/>
      <point x="59.33" y="481.0" type="curve" smooth="yes"/>
      <point x="59.33" y="338.0"/>
      <point x="167.797" y="230.0"/>
    </contour>
    <contour>
      <point x="314.0" y="274.005" type="curve" smooth="yes"/>
      <point x="190.67" y="274.005"/>
      <point x="115.34" y="355.203"/>
      <point x="115.34" y="481.0" type="curve" smooth="yes"/>
      <point x="115.34" y="605.797"/>
      <point x="192.071" y="685.995"/>
      <point x="314.0" y="685.995" type="curve" smooth="yes"/>
      <point x="444.0" y="685.995"/>
      <point x="517.33" y="605.797"/>
      <point x="517.33" y="481.0" type="curve" smooth="yes"/>
      <point x="517.33" y="355.203"/>
      <point x="444.0" y="274.005"/>
    </contour>
    <contour>
      <point x="395.807" y="490.599" type="curve" smooth="yes"/>
      <point x="413.274" y="503.599"/>
      <point x="422.34" y="524.132"/>
      <point x="422.34" y="544.132" type="curve" smooth="yes"/>
      <point x="422.34" y="566.736"/>
      <point x="414.005" y="582.736"/>
      <point x="399.67" y="594.736" type="curve" smooth="yes"/>
      <point x="386.203" y="606.335"/>
      <point x="366.472" y="613.0"/>
      <point x="341.34" y="613.0" type="curve" smooth="yes"/>
      <point x="199.33" y="613.0" type="line"/>
      <point x="199.33" y="590.995" type="line"/>
      <point x="229.33" y="582.995" type="line"/>
      <point x="229.33" y="386.005" type="line"/>
      <point x="199.33" y="378.005" type="line"/>
      <point x="199.33" y="356.0" type="line"/>
      <point x="320.335" y="356.0" type="line"/>
      <point x="320.335" y="378.005" type="line"/>
      <point x="284.34" y="386.005" type="line"/>
      <point x="284.34" y="467.264" type="line"/>
      <point x="310.198" y="467.264" type="line"/>
      <point x="355.594" y="378.005" type="line"/>
      <point x="355.594" y="356.0" type="line"/>
      <point x="448.604" y="356.0" type="line"/>
      <point x="448.604" y="378.005" type="line"/>
      <point x="416.604" y="385.005" type="line"/>
      <point x="373.34" y="458.0" type="line" smooth="yes"/>
      <point x="369.34" y="464.533"/>
      <point x="365.274" y="469.132"/>
      <point x="360.741" y="474.731" type="curve"/>
      <point x="377.675" y="479.599"/>
      <point x="386.34" y="483.599"/>
    </contour>
    <contour>
      <point x="284.34" y="500.269" type="line"/>
      <point x="284.34" y="579.995" type="line"/>
      <point x="314.33" y="579.995" type="line" smooth="yes"/>
      <point x="333.599" y="579.995"/>
      <point x="343.198" y="576.929"/>
      <point x="349.33" y="572.797" type="curve" smooth="yes"/>
      <point x="357.929" y="567.665"/>
      <point x="363.33" y="557.066"/>
      <point x="363.33" y="544.0" type="curve" smooth="yes"/>
      <point x="363.33" y="530.0"/>
      <point x="359.731" y="520.868"/>
      <point x="351.33" y="512.868" type="curve" smooth="yes"/>
      <point x="343.33" y="504.802"/>
      <point x="329.396" y="500.269"/>
      <point x="316.33" y="500.269" type="curve" smooth="yes"/>
    </contour>
  </outline>
</glyph>
<glyph name="macron" format="2">
  <advance width="329"/>
  <unicode hex="00AF"/>
  <anchor x="165.0" y="639.0" name="_top"/>
  <outline>
    <contour>
      <point x="25.0" y="650.99" type="line"/>
      <point x="304.0" y="650.99" type="line"/>
      <point x="304.0" y="730.0" type="line"/>
      <point x="25.0" y="730.0" type="line"/>
    </contour>
  </outline>
</glyph>
<glyph name="degree" format="2">
  <advance width="366"/>
  <unicode hex="00B0"/>
  <outline>
    <contour>
      <point x="183.335" y="458.0" type="curve" smooth="yes"/>
      <point x="263.538" y="458.0"/>
      <point x="324.34" y="517.0"/>
      <point x="324.34" y="595.0" type="curve" smooth="yes"/>
      <point x="324.34" y="675.0"/>
      <point x="266.538" y="730.0"/>
      <point x="183.335" y="730.0" type="curve" smooth="yes"/>
      <point x="102.132" y="730.0"/>
      <point x="42.33" y="671.0"/>
      <point x="42.33" y="593.0" type="curve" smooth="yes"/>
      <point x="42.33" y="513.0"/>
      <point x="99.132" y="458.0"/>
    </contour>
    <contour>
      <point x="185.335" y="501.005" type="curve" smooth="yes"/>
      <point x="139.538" y="501.005"/>
      <point x="106.34" y="540.203"/>
      <point x="106.34" y="594.0" type="curve" smooth="yes"/>
      <point x="106.34" y="647.797"/>
      <point x="137.538" y="685.995"/>
      <point x="181.335" y="685.995" type="curve" smooth="yes"/>
      <point x="228.132" y="685.995"/>
      <point x="260.33" y="647.797"/>
      <point x="260.33" y="593.0" type="curve" smooth="yes"/>
      <point x="260.33" y="538.203"/>
      <point x="230.132" y="501.005"/>
    </contour>
  </outline>
</glyph>
<glyph name="plusminus" format="2">
  <advance width="526"/>
  <unicode hex="00B1"/>
  <outline>
    <contour>
      <point x="66.863" y="363.731" type="line"/>
      <point x="226.863" y="363.731" type="line"/>
      <point x="226.863" y="212.0" type="line"/>
      <point x="298.873" y="212.0" type="line"/>
      <point x="298.873" y="363.731" type="line"/>
      <point x="458.873" y="363.731" type="line"/>
      <point x="458.873" y="428.269" type="line"/>
      <point x="298.873" y="428.269" type="line"/>
      <point x="298.873" y="580.0" type="line"/>
      <point x="226.863" y="580.0" type="line"/>
      <point x="226.863" y="428.269" type="line"/>
      <point x="66.863" y="428.269" type="line"/>
    </contour>
    <contour>
      <point x="66.863" y="63.731" type="line"/>
      <point x="458.873" y="63.731" type="line"/>
      <point x="458.873" y="128.269" type="line"/>
      <point x="66.863" y="128.269" type="line"/>
    </contour>
  </outline>
</glyph>
<glyph name="twosuperior" format="2">
  <advance width="333"/>
  <unicode hex="00B2"/>
  <outline>
    <contour>
      <point x="112.411" y="456.005" type="line"/>
      <point x="112.411" y="510.132"/>
      <point x="275.01" y="538.736"/>
      <point x="275.01" y="643.0" type="curve" smooth="yes"/>
      <point x="275.01" y="696.0"/>
      <point x="233.477" y="730.0"/>
      <point x="162.071" y="730.0" type="curve" smooth="yes"/>
      <point x="93.533" y="730.0"/>
      <point x="53.0" y="696.0"/>
      <point x="53.0" y="644.0" type="curve" smooth="yes"/>
      <point x="53.0" y="619.0"/>
      <point x="63.934" y="602.33"/>
      <point x="91.472" y="602.33" type="curve" smooth="yes"/>
      <point x="114.609" y="602.33"/>
      <point x="126.076" y="614.198"/>
      <point x="126.076" y="632.665" type="curve" smooth="yes"/>
      <point x="126.076" y="650.599"/>
      <point x="116.01" y="662.0"/>
      <point x="97.01" y="662.0" type="curve"/>
      <point x="101.609" y="686.0"/>
      <point x="129.68" y="693.33"/>
      <point x="153.538" y="693.33" type="curve" smooth="yes"/>
      <point x="181.33" y="693.33"/>
      <point x="208.0" y="682.0"/>
      <point x="208.0" y="654.0" type="curve" smooth="yes"/>
      <point x="208.0" y="564.0"/>
      <point x="48.0" y="525.0"/>
      <point x="48.0" y="431.0" type="curve" smooth="yes"/>
      <point x="48.0" y="401.0" type="line"/>
      <point x="279.01" y="401.0" type="line"/>
      <point x="279.01" y="505.67" type="line"/>
      <point x="237.934" y="505.67" type="line"/>
      <point x="227.401" y="456.005" type="line"/>
    </contour>
  </outline>
</glyph>
<glyph name="threesuperior" format="2">
  <advance width="329"/>
  <unicode hex="00B3"/>
  <outline>
    <contour>
      <point x="272.01" y="646.0" type="curve" smooth="yes"/>
      <point x="272.01" y="696.0"/>
      <point x="228.142" y="730.0"/>
      <point x="158.67" y="730.0" type="curve" smooth="yes"/>
      <point x="93.0" y="730.0"/>
      <point x="52.0" y="698.0"/>
      <point x="52.0" y="652.0" type="curve" smooth="yes"/>
      <point x="52.0" y="627.0"/>
      <point x="65.401" y="607.33"/>
      <point x="89.67" y="607.33" type="curve" smooth="yes"/>
      <point x="115.076" y="607.33"/>
      <point x="127.076" y="623.0"/>
      <point x="127.076" y="640.0" type="curve" smooth="yes"/>
      <point x="127.076" y="657.0"/>
      <point x="113.675" y="667.0"/>
      <point x="98.01" y="667.0" type="curve"/>
      <point x="101.076" y="685.599"/>
      <point x="123.208" y="695.33"/>
      <point x="149.736" y="695.33" type="curve" smooth="yes"/>
      <point x="184.533" y="695.33"/>
      <point x="205.0" y="679.264"/>
      <point x="205.0" y="650.066" type="curve" smooth="yes"/>
      <point x="205.0" y="610.066"/>
      <point x="174.0" y="585.868"/>
      <point x="129.0" y="585.868" type="curve"/>
      <point x="129.0" y="551.198" type="line"/>
      <point x="177.0" y="551.198"/>
      <point x="206.0" y="526.066"/>
      <point x="206.0" y="485.401" type="curve" smooth="yes"/>
      <point x="206.0" y="450.736"/>
      <point x="183.599" y="434.137"/>
      <point x="147.67" y="434.137" type="curve" smooth="yes"/>
      <point x="120.609" y="434.137"/>
      <point x="100.076" y="442.0"/>
      <point x="96.01" y="465.0" type="curve"/>
      <point x="111.01" y="465.0"/>
      <point x="119.609" y="475.934"/>
      <point x="119.609" y="492.0" type="curve" smooth="yes"/>
      <point x="119.609" y="509.934"/>
      <point x="109.076" y="523.269"/>
      <point x="83.67" y="523.269" type="curve" smooth="yes"/>
      <point x="60.802" y="523.269"/>
      <point x="48.0" y="507.934"/>
      <point x="48.0" y="481.0" type="curve" smooth="yes"/>
      <point x="48.0" y="430.0"/>
      <point x="89.0" y="397.0"/>
      <point x="151.0" y="397.0" type="curve" smooth="yes"/>
      <point x="226.406" y="397.0"/>
      <point x="277.01" y="435.0"/>
      <point x="277.01" y="491.0" type="curve" smooth="yes"/>
      <point x="277.01" y="533.0"/>
      <point x="252.01" y="559.0"/>
      <point x="204.01" y="568.0" type="curve"/>
      <point x="204.01" y="572.0" type="line"/>
      <point x="245.543" y="579.0"/>
      <point x="272.01" y="606.0"/>
    </contour>
  </outline>
</glyph>
<glyph name="acute" format="2">
  <advance width="259"/>
  <unicode hex="00B4"/>
  <anchor x="67.0" y="639.0" name="_top"/>
  <outline>
    <contour>
      <point x="32.995" y="639.0" type="line"/>
      <point x="100.005" y="639.0" type="line"/>
      <point x="138.005" y="667.0" type="line" smooth="yes"/>
      <point x="201.472" y="713.0"/>
      <point x="224.137" y="737.198"/>
      <point x="224.137" y="757.198" type="curve" smooth="yes"/>
      <point x="224.137" y="780.264"/>
      <point x="209.005" y="795.467"/>
      <point x="174.0" y="795.467" type="curve" smooth="yes"/>
      <point x="141.33" y="795.467"/>
      <point x="121.396" y="776.401"/>
      <point x="81.995" y="715.0" type="curve" smooth="yes"/>
    </contour>
  </outline>
</glyph>
<glyph name="mu" format="2">
  <advance width="675"/>
  <unicode hex="00B5"/>
  <guideline x="0" y="247.0" angle="0" identifier="C7McPAyiQi"/>
  <outline>
    <contour>
      <point x="108.797" y="-179.0" type="line"/>
      <point x="219.807" y="-179.0" type="line"/>
      <point x="209.807" y="59.0" type="line"/>
      <point x="213.807" y="59.0" type="line"/>
      <point x="222.939" y="13.0"/>
      <point x="259.477" y="-10.0"/>
      <point x="299.005" y="-10.0" type="curve" smooth="yes"/>
      <point x="360.005" y="-10.0"/>
      <point x="413.401" y="30.0"/>
      <point x="450.797" y="100.0" type="curve"/>
      <point x="454.797" y="100.0" type="line"/>
      <point x="465.797" y="-10.0" type="line"/>
      <point x="634.807" y="0.0" type="line"/>
      <point x="634.807" y="48.005" type="line"/>
      <point x="557.807" y="67.005" type="line"/>
      <point x="557.807" y="540.0" type="line"/>
      <point x="359.797" y="540.0" type="line"/>
      <point x="359.797" y="491.995" type="line"/>
      <point x="446.797" y="472.995" type="line"/>
      <point x="446.797" y="220.005" type="line"/>
      <point x="442.797" y="164.005"/>
      <point x="431.665" y="131.005"/>
      <point x="403.665" y="103.604" type="curve" smooth="yes"/>
      <point x="378.599" y="80.137"/>
      <point x="346.868" y="68.005"/>
      <point x="311.868" y="68.005" type="curve" smooth="yes"/>
      <point x="278.406" y="68.005"/>
      <point x="248.939" y="84.538"/>
      <point x="234.873" y="116.071" type="curve" smooth="yes"/>
      <point x="223.807" y="140.071"/>
      <point x="219.807" y="178.005"/>
      <point x="219.807" y="264.005" type="curve" smooth="yes"/>
      <point x="219.807" y="540.0" type="line"/>
      <point x="41.797" y="540.0" type="line"/>
      <point x="41.797" y="491.995" type="line"/>
      <point x="108.797" y="472.995" type="line"/>
    </contour>
  </outline>
</glyph>
<glyph name="paragraph" format="2">
  <advance width="689"/>
  <unicode hex="00B6"/>
  <outline>
    <contour>
      <point x="483.066" y="-96.0" type="line"/>
      <point x="567.076" y="-96.0" type="line"/>
      <point x="567.076" y="598.995" type="line"/>
      <point x="651.076" y="619.995" type="line"/>
      <point x="651.076" y="670.0" type="line"/>
      <point x="276.066" y="670.0" type="line" smooth="yes"/>
      <point x="118.066" y="670.0"/>
      <point x="30.066" y="585.0"/>
      <point x="30.066" y="432.0" type="curve" smooth="yes"/>
      <point x="30.066" y="277.33"/>
      <point x="115.066" y="195.995"/>
      <point x="277.066" y="195.995" type="curve" smooth="yes"/>
      <point x="343.066" y="195.995" type="line"/>
      <point x="343.066" y="-96.0" type="line"/>
      <point x="427.076" y="-96.0" type="line"/>
      <point x="427.076" y="598.995" type="line"/>
      <point x="483.066" y="598.995" type="line"/>
    </contour>
  </outline>
</glyph>
<glyph name="cedilla" format="2">
  <advance width="254"/>
  <unicode hex="00B8"/>
  <anchor x="139.0" y="0" name="_bottom"/>
  <outline>
    <contour>
      <point x="108.995" y="-210.0" type="curve" smooth="yes"/>
      <point x="178.467" y="-210.0"/>
      <point x="236.005" y="-180.0"/>
      <point x="236.005" y="-126.0" type="curve" smooth="yes"/>
      <point x="236.005" y="-84.0"/>
      <point x="207.873" y="-59.198"/>
      <point x="133.873" y="-59.198" type="curve"/>
      <point x="132.873" y="-56.198" type="line"/>
      <point x="177.005" y="17.0" type="line"/>
      <point x="118.995" y="17.0" type="line"/>
      <point x="41.995" y="-83.0" type="line"/>
      <point x="56.863" y="-108.269" type="line"/>
      <point x="69.929" y="-104.269"/>
      <point x="85.731" y="-102.269"/>
      <point x="100.731" y="-102.269" type="curve" smooth="yes"/>
      <point x="131.995" y="-102.269"/>
      <point x="150.528" y="-112.736"/>
      <point x="150.528" y="-131.335" type="curve" smooth="yes"/>
      <point x="150.528" y="-150.0"/>
      <point x="133.396" y="-162.665"/>
      <point x="105.863" y="-162.665" type="curve" smooth="yes"/>
      <point x="85.863" y="-162.665"/>
      <point x="65.863" y="-155.665"/>
      <point x="46.863" y="-142.665" type="curve"/>
      <point x="17.994999999999997" y="-182.0" type="line"/>
      <point x="43.995" y="-201.0"/>
      <point x="74.995" y="-210.0"/>
    </contour>
  </outline>
</glyph>
<glyph name="onesuperior" format="2">
  <advance width="313"/>
  <unicode hex="00B9"/>
  <outline>
    <contour>
      <point x="129.401" y="434.005" type="line"/>
      <point x="69.401" y="425.005" type="line"/>
      <point x="69.401" y="392.0" type="line"/>
      <point x="243.411" y="392.0" type="line"/>
      <point x="243.411" y="425.005" type="line"/>
      <point x="195.411" y="434.005" type="line"/>
      <point x="195.411" y="720.0" type="line"/>
      <point x="142.401" y="720.0" type="line"/>
      <point x="132.401" y="707.0"/>
      <point x="90.401" y="700.0"/>
      <point x="69.401" y="700.0" type="curve"/>
      <point x="69.401" y="661.995" type="line"/>
      <point x="129.401" y="661.995" type="line"/>
    </contour>
  </outline>
</glyph>
<glyph name="ordmasculine" format="2">
  <advance width="375"/>
  <unicode hex="00BA"/>
  <outline>
    <contour>
      <point x="329.807" y="579.0" type="curve" smooth="yes"/>
      <point x="329.807" y="625.0"/>
      <point x="316.274" y="668.467"/>
      <point x="290.807" y="695.0" type="curve" smooth="yes"/>
      <point x="267.873" y="718.467"/>
      <point x="231.604" y="730.0"/>
      <point x="188.802" y="730.0" type="curve" smooth="yes"/>
      <point x="143.533" y="730.0"/>
      <point x="109.731" y="718.467"/>
      <point x="86.797" y="694.0" type="curve" smooth="yes"/>
      <point x="60.797" y="666.467"/>
      <point x="45.797" y="620.0"/>
      <point x="45.797" y="572.0" type="curve" smooth="yes"/>
      <point x="45.797" y="526.0"/>
      <point x="59.33" y="483.533"/>
      <point x="84.797" y="457.0" type="curve" smooth="yes"/>
      <point x="106.731" y="433.533"/>
      <point x="141.533" y="422.0"/>
      <point x="185.802" y="422.0" type="curve" smooth="yes"/>
      <point x="231.071" y="422.0"/>
      <point x="265.873" y="433.533"/>
      <point x="288.807" y="458.0" type="curve" smooth="yes"/>
      <point x="314.807" y="485.533"/>
      <point x="329.807" y="532.0"/>
    </contour>
    <contour>
      <point x="123.807" y="578.0" type="curve" smooth="yes"/>
      <point x="123.807" y="618.0"/>
      <point x="129.873" y="647.665"/>
      <point x="143.807" y="667.731" type="curve" smooth="yes"/>
      <point x="152.939" y="680.528"/>
      <point x="167.071" y="688.995"/>
      <point x="186.802" y="688.995" type="curve" smooth="yes"/>
      <point x="207.533" y="688.995"/>
      <point x="222.132" y="680.462"/>
      <point x="232.264" y="664.665" type="curve" smooth="yes"/>
      <point x="246.198" y="643.132"/>
      <point x="251.797" y="612.0"/>
      <point x="251.797" y="574.0" type="curve" smooth="yes"/>
      <point x="251.797" y="530.0"/>
      <point x="246.264" y="500.335"/>
      <point x="232.797" y="483.335" type="curve" smooth="yes"/>
      <point x="222.665" y="470.604"/>
      <point x="207.934" y="463.005"/>
      <point x="188.736" y="463.005" type="curve" smooth="yes"/>
      <point x="167.005" y="463.005"/>
      <point x="152.472" y="472.472"/>
      <point x="143.34" y="488.269" type="curve" smooth="yes"/>
      <point x="129.873" y="510.269"/>
      <point x="123.807" y="539.0"/>
    </contour>
  </outline>
</glyph>
<glyph name="AE" format="2">
  <advance width="1064"/>
  <unicode hex="00C6"/>
  <outline>
    <contour>
      <point x="855.675" y="238.0" type="line"/>
      <point x="855.675" y="502.0" type="line"/>
      <point x="790.665" y="502.0" type="line"/>
      <point x="773.599" y="403.269" type="line"/>
      <point x="620.675" y="403.269" type="line"/>
      <point x="620.675" y="654.995" type="line"/>
      <point x="893.066" y="654.995" type="line"/>
      <point x="923.665" y="508.0" type="line"/>
      <point x="989.675" y="508.0" type="line"/>
      <point x="989.675" y="720.0" type="line"/>
      <point x="335.665" y="720.0" type="line"/>
      <point x="335.665" y="669.995" type="line"/>
      <point x="415.462" y="658.995" type="line"/>
      <point x="86.401" y="71.005" type="line"/>
      <point x="-11.335" y="50.005" type="line"/>
      <point x="-11.335" y="0.0" type="line"/>
      <point x="249.675" y="0.0" type="line"/>
      <point x="249.675" y="50.005" type="line"/>
      <point x="174.411" y="71.005" type="line"/>
      <point x="266.34" y="238.264" type="line"/>
      <point x="506.665" y="238.264" type="line"/>
      <point x="506.665" y="71.005" type="line"/>
      <point x="412.665" y="50.005" type="line"/>
      <point x="412.665" y="0.0" type="line"/>
      <point x="1011.675" y="0.0" type="line"/>
      <point x="1011.675" y="223.0" type="line"/>
      <point x="939.665" y="223.0" type="line"/>
      <point x="910.066" y="67.005" type="line"/>
      <point x="620.675" y="67.005" type="line"/>
      <point x="620.675" y="336.264" type="line"/>
      <point x="773.599" y="336.264" type="line"/>
      <point x="790.665" y="238.0" type="line"/>
    </contour>
    <contour>
      <point x="506.665" y="648.995" type="line"/>
      <point x="506.665" y="303.269" type="line"/>
      <point x="302.543" y="303.269" type="line"/>
      <point x="491.137" y="651.061" type="line"/>
    </contour>
  </outline>
</glyph>
<glyph name="Eth" format="2">
  <advance width="778"/>
  <unicode hex="00D0"/>
  <outline>
    <contour>
      <point x="50.198" y="326.264" type="line"/>
      <point x="134.198" y="326.264" type="line"/>
      <point x="134.198" y="71.005" type="line"/>
      <point x="50.198" y="50.005" type="line"/>
      <point x="50.198" y="0.0" type="line"/>
      <point x="391.208" y="0.0" type="line" smooth="yes"/>
      <point x="497.208" y="0.0"/>
      <point x="573.208" y="28.0"/>
      <point x="629.208" y="87.0" type="curve" smooth="yes"/>
      <point x="692.208" y="153.0"/>
      <point x="729.208" y="256.0"/>
      <point x="729.208" y="368.0" type="curve" smooth="yes"/>
      <point x="729.208" y="474.0"/>
      <point x="694.208" y="572.0"/>
      <point x="632.208" y="636.0" type="curve" smooth="yes"/>
      <point x="576.208" y="693.0"/>
      <point x="501.208" y="720.0"/>
      <point x="400.208" y="720.0" type="curve" smooth="yes"/>
      <point x="50.198" y="720.0" type="line"/>
      <point x="50.198" y="669.995" type="line"/>
      <point x="134.198" y="648.995" type="line"/>
      <point x="134.198" y="400.269" type="line"/>
      <point x="50.198" y="400.269" type="line"/>
    </contour>
    <contour>
      <point x="248.208" y="67.005" type="line"/>
      <point x="248.208" y="326.264" type="line"/>
      <point x="375.208" y="326.264" type="line"/>
      <point x="375.208" y="400.269" type="line"/>
      <point x="248.208" y="400.269" type="line"/>
      <point x="248.208" y="652.995" type="line"/>
      <point x="379.198" y="652.995" type="line" smooth="yes"/>
      <point x="456.198" y="652.995"/>
      <point x="510.198" y="631.33"/>
      <point x="545.198" y="586.0" type="curve" smooth="yes"/>
      <point x="582.198" y="535.0"/>
      <point x="600.198" y="457.0"/>
      <point x="600.198" y="354.0" type="curve" smooth="yes"/>
      <point x="600.198" y="249.0"/>
      <point x="581.731" y="173.467"/>
      <point x="545.198" y="126.0" type="curve" smooth="yes"/>
      <point x="511.198" y="86.137"/>
      <point x="461.198" y="67.005"/>
      <point x="389.198" y="67.005" type="curve" smooth="yes"/>
    </contour>
  </outline>
</glyph>
<glyph name="multiply" format="2">
  <advance width="506"/>
  <unicode hex="00D7"/>
  <outline>
    <contour>
      <point x="87.553" y="334.017" type="line"/>
      <point x="227.416" y="319.777" type="line"/>
      <point x="212.709" y="179.447" type="line"/>
      <point x="270.983" y="186.553" type="line"/>
      <point x="285.223" y="326.416" type="line"/>
      <point x="425.553" y="311.709" type="line"/>
      <point x="418.447" y="369.983" type="line"/>
      <point x="278.584" y="384.223" type="line"/>
      <point x="293.291" y="524.553" type="line"/>
      <point x="235.017" y="517.447" type="line"/>
      <point x="220.777" y="377.584" type="line"/>
      <point x="80.447" y="392.291" type="line"/>
    </contour>
  </outline>
</glyph>
